<svg width="66" height="67" viewBox="0 0 66 67" fill="none" xmlns="http://www.w3.org/2000/svg">
<rect x="0.785645" y="7.21397" width="58.3581" height="58.9074" rx="20" fill="#E5E9FD"/>
<path d="M29.6327 31.8645C29.4429 31.6747 29.1797 31.5656 28.9114 31.5656C28.6431 31.5656 28.3799 31.6746 28.1902 31.8645C27.9994 32.0542 27.8913 32.3174 27.8913 32.5857C27.8913 32.854 27.9994 33.1172 28.1902 33.3068C28.3799 33.4966 28.6431 33.6058 28.9114 33.6058C29.1797 33.6058 29.4429 33.4967 29.6327 33.3068C29.8224 33.1172 29.9316 32.854 29.9316 32.5857C29.9316 32.3174 29.8224 32.0542 29.6327 31.8645Z" fill="#5A75FF"/>
<path d="M64.1064 25.8527H62.6782H61.658V25.6487C61.658 23.9612 60.2851 22.5882 58.5976 22.5882C56.9101 22.5882 55.5372 23.9612 55.5372 25.6487V25.8527H54.415V21.3641H60.9949C62.9355 21.3641 64.5144 19.7852 64.5144 17.8446V3.66463C64.5144 1.72401 62.9356 0.145142 60.9949 0.145142H41.5102C39.5696 0.145142 37.9907 1.72401 37.9907 3.66463V17.8446C37.9907 19.7852 39.5696 21.3641 41.5102 21.3641H47.6821V25.8527H43.0914H36.8721C36.9359 25.6196 36.9706 25.3747 36.9706 25.1216V20.3439C36.9706 19.7805 36.5139 19.3238 35.9505 19.3238H30.2377C29.6742 19.3238 29.2175 19.7805 29.2175 20.3439V25.1216C29.2175 25.3746 29.2523 25.6196 29.3161 25.8527H26.0436L27.5347 19.7707C27.5876 19.555 27.5667 19.3309 27.4821 19.1308C29.6693 15.8952 29.9197 12.287 29.9293 12.1346C29.9524 11.7659 29.7745 11.4134 29.464 11.2132C29.1536 11.0129 28.759 10.9964 28.4327 11.1694C28.3211 11.2287 26.2498 12.3433 24.305 14.3392C23.9457 10.7336 22.3617 8.01635 22.286 7.88852C22.1025 7.5784 21.7688 7.38814 21.4082 7.38814C21.408 7.38814 21.4077 7.38814 21.4075 7.38814C21.0467 7.38835 20.7129 7.57922 20.5297 7.88985C20.4547 8.01706 18.8929 10.7045 18.5259 14.2782C16.5739 12.2983 14.4919 11.2194 14.3796 11.162C14.0532 10.9952 13.6623 11.0164 13.3559 11.2174C13.0494 11.4185 12.8744 11.7686 12.8973 12.1345C12.9069 12.2869 13.1573 15.8951 15.3445 19.1307C15.2597 19.3309 15.2389 19.555 15.2919 19.7707L16.783 25.8527H13.9154C13.352 25.8527 12.8953 26.3094 12.8953 26.8728C12.8953 27.4362 13.352 27.893 13.9154 27.893H14.3235V51.3562C14.3235 51.9196 14.7802 52.3764 15.3436 52.3764C15.907 52.3764 16.3637 51.9196 16.3637 51.3562V33.6058H24.5249C25.0883 33.6058 25.545 33.149 25.545 32.5856C25.545 32.0223 25.0883 31.5655 24.5249 31.5655H16.3637V27.893H42.0713V31.5655H33.0941C32.5306 31.5655 32.0739 32.0223 32.0739 32.5856C32.0739 33.149 32.5306 33.6058 33.0941 33.6058H42.0713V51.3562C42.0713 51.9196 42.528 52.3764 43.0914 52.3764H62.6782C63.2416 52.3764 63.6983 51.9196 63.6983 51.3562V27.893H64.1064C64.6698 27.893 65.1265 27.4362 65.1265 26.8728C65.1265 26.3094 64.6698 25.8527 64.1064 25.8527ZM21.4117 10.8754C21.8704 12.1178 22.3367 13.8497 22.3379 15.7577C22.3385 16.6469 22.2374 17.569 22.0369 18.5077H20.7932C20.5915 17.5698 20.4893 16.6483 20.4887 15.7595C20.4876 13.8591 20.9538 12.1223 21.4117 10.8754ZM17.0479 18.0082C16.1696 16.7154 15.651 15.3269 15.3474 14.2113C16.3444 14.9616 17.5463 16.037 18.4648 17.3892C18.4935 17.4314 18.5256 17.4698 18.5592 17.5063C18.5997 17.8382 18.6514 18.1721 18.7144 18.5077H17.4087C17.2824 18.3427 17.1617 18.1757 17.0479 18.0082ZM23.943 25.8527H18.8837L17.5831 20.548H19.9911H20.598H22.2286H22.8401H25.2436L23.943 25.8527ZM25.4179 18.5076H24.1152C24.1723 18.2006 24.2205 17.8951 24.2589 17.5913C24.3023 17.5474 24.3428 17.4996 24.3787 17.4467C25.2905 16.1048 26.4767 15.0226 27.4662 14.2586C27.1609 15.3661 26.6445 16.7338 25.7788 18.008C25.665 18.1756 25.5443 18.3426 25.4179 18.5076ZM34.9303 25.1216C34.9303 25.5247 34.6023 25.8527 34.1992 25.8527H31.9889C31.5858 25.8527 31.2578 25.5247 31.2578 25.1216V21.3641H34.9303V25.1216ZM57.5774 25.6487C57.5774 25.0862 58.0351 24.6285 58.5976 24.6285C59.1601 24.6285 59.6177 25.0862 59.6177 25.6487V25.8527H57.5774V25.6487ZM40.031 3.66463C40.031 2.84903 40.6946 2.18542 41.5102 2.18542H49.522L44.6984 7.00906C44.3 7.40742 44.2999 8.05338 44.6984 8.45185C44.8976 8.65108 45.1587 8.75065 45.4197 8.75065C45.6808 8.75065 45.9419 8.65098 46.1411 8.45185L52.4074 2.18542H60.9949C61.8105 2.18542 62.4741 2.84903 62.4741 3.66463V14.4271H52.3068L58.3109 8.42308C58.7093 8.02471 58.7093 7.37876 58.3109 6.98039C57.9126 6.58203 57.2667 6.58203 56.8681 6.98039L49.6259 14.2227C49.5633 14.2852 49.5117 14.3544 49.4689 14.4272H40.031V3.66463ZM41.5102 19.3238C40.6946 19.3238 40.031 18.6602 40.031 17.8446V16.4674H62.4741V17.8446C62.4741 18.6602 61.8105 19.3238 60.9949 19.3238H41.5102ZM52.3747 21.3641V25.8527H49.7224V21.3641H52.3747ZM61.658 50.3361H44.1116V44.2152H61.658V50.3361ZM61.658 42.175H44.1116V36.0541H61.658V42.175ZM61.658 34.0138H44.1116V27.893H61.658V34.0138Z" fill="#5A75FF"/>
<path d="M53.606 30.1986C53.4163 30.0078 53.1531 29.8997 52.8848 29.8997C52.6165 29.8997 52.3533 30.0078 52.1635 30.1986C51.9738 30.3883 51.8646 30.6506 51.8646 30.9198C51.8646 31.1881 51.9738 31.4513 52.1635 31.641C52.3533 31.8307 52.6165 31.9399 52.8848 31.9399C53.1531 31.9399 53.4163 31.8308 53.606 31.641C53.7958 31.4503 53.9049 31.1881 53.9049 30.9198C53.9049 30.6505 53.7958 30.3883 53.606 30.1986Z" fill="#5A75FF"/>
<path d="M53.606 38.5974C53.4163 38.4076 53.1531 38.2985 52.8848 38.2985C52.6165 38.2985 52.3533 38.4075 52.1635 38.5974C51.9738 38.7871 51.8646 39.0493 51.8646 39.3186C51.8646 39.5869 51.9738 39.8501 52.1635 40.0397C52.3533 40.2295 52.6165 40.3387 52.8848 40.3387C53.1531 40.3387 53.4163 40.2296 53.606 40.0397C53.7958 39.8501 53.9049 39.5869 53.9049 39.3186C53.9049 39.0503 53.7958 38.7871 53.606 38.5974Z" fill="#5A75FF"/>
<path d="M53.606 46.5484C53.4163 46.3585 53.1531 46.2494 52.8848 46.2494C52.6165 46.2494 52.3533 46.3585 52.1635 46.5484C51.9738 46.738 51.8646 47.0012 51.8646 47.2695C51.8646 47.5378 51.9738 47.801 52.1635 47.9908C52.3533 48.1805 52.6165 48.2897 52.8848 48.2897C53.1531 48.2897 53.4163 48.1806 53.606 47.9908C53.7958 47.8009 53.9049 47.5378 53.9049 47.2695C53.9049 47.0012 53.7958 46.738 53.606 46.5484Z" fill="#5A75FF"/>
<path d="M60.7246 4.56648C60.5349 4.37673 60.2727 4.26758 60.0034 4.26758C59.7351 4.26758 59.4719 4.37673 59.2821 4.56648C59.0924 4.75623 58.9832 5.01942 58.9832 5.28772C58.9832 5.55602 59.0924 5.81921 59.2821 6.00896C59.4719 6.19871 59.7351 6.30786 60.0034 6.30786C60.2727 6.30786 60.5349 6.19871 60.7246 6.00896C60.9143 5.81921 61.0235 5.55602 61.0235 5.28772C61.0235 5.01942 60.9143 4.75623 60.7246 4.56648Z" fill="#5A75FF"/>
<path d="M51.8054 17.1744C51.6157 16.9846 51.3525 16.8755 51.0842 16.8755C50.8159 16.8755 50.5527 16.9846 50.3629 17.1744C50.1732 17.3641 50.064 17.6273 50.064 17.8956C50.064 18.1639 50.1732 18.4271 50.3629 18.6169C50.5527 18.8066 50.8159 18.9158 51.0842 18.9158C51.3525 18.9158 51.6157 18.8066 51.8054 18.6169C51.9952 18.4271 52.1043 18.1639 52.1043 17.8956C52.1043 17.6273 51.9952 17.3641 51.8054 17.1744Z" fill="#5A75FF"/>
<path d="M31.9208 14.7789C31.3574 14.7789 30.9007 15.2356 30.9007 15.7991V16.7682C30.9007 17.3316 31.3574 17.7883 31.9208 17.7883C32.4843 17.7883 32.941 17.3316 32.941 16.7682V15.7991C32.941 15.2356 32.4843 14.7789 31.9208 14.7789Z" fill="#5A75FF"/>
<path d="M34.6243 12.1471C34.0608 12.1471 33.6041 12.6038 33.6041 13.1672V14.2997C33.6041 14.8631 34.0608 15.3198 34.6243 15.3198C35.1877 15.3198 35.6444 14.8631 35.6444 14.2997V13.1672C35.6444 12.6038 35.1877 12.1471 34.6243 12.1471Z" fill="#5A75FF"/>
</svg>
