<svg width="236" height="197" viewBox="0 0 236 197" fill="none" xmlns="http://www.w3.org/2000/svg">
<g filter="url(#filter0_f)">
<path d="M175.953 130.478H60.0492C56.0287 130.478 52.7694 133.737 52.7694 137.758C52.7694 141.778 56.0287 145.037 60.0492 145.037H175.953C179.974 145.037 183.233 141.778 183.233 137.758C183.233 133.737 179.974 130.478 175.953 130.478Z" fill="#FF5468"/>
<path d="M183.233 146.979H52.7694C51.5067 146.979 50.665 146.202 50.665 145.037V130.478C50.665 129.313 51.5067 128.536 52.7694 128.536H183.233C184.495 128.536 185.337 129.313 185.337 130.478V145.037C185.337 146.008 184.495 146.979 183.233 146.979ZM54.8735 138.096C54.8735 140.858 57.1121 143.096 59.8735 143.096H176.128C178.89 143.096 181.128 140.858 181.128 138.096V137.419C181.128 134.658 178.89 132.419 176.128 132.419H59.8735C57.1121 132.419 54.8735 134.658 54.8735 137.419V138.096Z" fill="#3FBA53"/>
<path d="M160.13 52.6331H75.8717C66.4829 52.6331 58.8717 60.2442 58.8717 69.6331V113.478C58.8717 122.867 66.4829 130.478 75.8717 130.478H160.13C169.519 130.478 177.13 122.867 177.13 113.478V69.6331C177.13 60.2442 169.519 52.6331 160.13 52.6331Z" fill="#3FBA53"/>
<path d="M177.13 132.419H58.8716C57.6089 132.419 56.7672 131.642 56.7672 130.477V52.633C56.7672 51.4681 57.6089 50.6917 58.8716 50.6917H177.13C178.393 50.6917 179.234 51.4681 179.234 52.633V130.478C179.234 131.448 178.182 132.419 177.13 132.419ZM60.9757 118.536C60.9757 124.059 65.4528 128.536 70.9757 128.536H165.026C170.549 128.536 175.026 124.059 175.026 118.536V64.5744C175.026 59.0516 170.549 54.5744 165.026 54.5744H70.9757C65.4528 54.5744 60.9757 59.0515 60.9757 64.5744V118.536Z" fill="#3FBA53"/>
<path d="M159.629 60.5129H76.2045C71.2339 60.5129 67.2045 64.5424 67.2045 69.5129V113.827C67.2045 118.798 71.2339 122.827 76.2045 122.827H159.629C164.6 122.827 168.629 118.798 168.629 113.827V69.5129C168.629 64.5424 164.6 60.5129 159.629 60.5129Z" fill="white"/>
<path d="M78.6515 93.5936C77.8098 93.5936 76.9681 93.0113 76.7577 92.4287L71.918 80.7813C71.497 79.8106 72.1285 78.6459 73.1807 78.2576C74.2329 77.8692 75.4953 78.4518 75.9162 79.4225L79.0725 86.9935L87.6999 70.2987C88.1209 69.7163 88.7521 69.1338 89.5938 69.1338H120.526C121.789 69.1338 122.63 69.9103 122.63 71.0752C122.63 72.24 121.789 73.0165 120.526 73.0165H90.6457L80.5454 92.6234C80.1244 93.0113 79.4932 93.5936 78.6515 93.5936Z" fill="#3FBA53"/>
<path d="M96.9584 92.0406C96.1168 91.2641 95.9063 90.0992 96.748 89.3227L107.9 77.2869C108.742 76.5104 110.005 76.3162 110.846 77.0927C111.688 77.8692 111.899 79.0341 111.057 79.8106L99.9045 91.8464C99.273 92.6229 98.0104 92.8171 96.9584 92.0406Z" fill="#3FBA53"/>
<path d="M107.901 91.8464L96.9585 79.8106C96.1168 79.0341 96.3273 77.6752 97.169 77.0927C98.0107 76.3162 99.4836 76.5104 100.115 77.2869L111.057 89.3227C111.899 90.0992 111.688 91.458 110.847 92.0406C110.005 92.8171 108.742 92.6229 107.901 91.8464Z" fill="#3FBA53"/>
<path d="M156.93 76.8989L153.352 73.5987L149.775 76.8989C148.933 77.6754 147.671 77.6754 146.829 76.8989L143.041 73.5987L139.464 76.8989C139.043 77.2871 138.412 77.4812 137.991 77.4812C137.36 77.4812 136.939 77.2871 136.518 76.8989L131.468 72.2399C130.626 71.4634 130.626 70.2986 131.468 69.5221C132.31 68.7456 133.573 68.7456 134.414 69.5221L137.991 72.8223L141.569 69.5221C141.99 69.1337 142.41 68.9398 143.042 68.9398C143.673 68.9398 144.094 69.1339 144.515 69.5221L148.092 72.8223L151.669 69.5221C152.511 68.7456 153.773 68.7456 154.615 69.5221L159.665 74.1811C160.507 74.9576 160.507 76.1224 159.665 76.8989C159.244 77.6754 157.771 77.6754 156.93 76.8989Z" fill="#3FBA53"/>
<path d="M158.403 88.3525H132.731C131.468 88.3525 130.626 87.576 130.626 86.4111C130.626 85.2462 131.468 84.4697 132.731 84.4697H158.403C159.665 84.4697 160.507 85.2462 160.507 86.4111C160.507 87.5757 159.665 88.3525 158.403 88.3525Z" fill="#3FBA53"/>
<path d="M158.403 99.029H132.731C131.468 99.029 130.626 98.2525 130.626 97.0876C130.626 95.9227 131.468 95.1462 132.731 95.1462H158.403C159.665 95.1462 160.507 95.9227 160.507 97.0876C160.507 98.0583 159.665 99.029 158.403 99.029Z" fill="#3FBA53"/>
<path d="M134.366 107.377H134.04C132.968 107.377 132.099 108.246 132.099 109.318C132.099 110.39 132.968 111.259 134.04 111.259H134.366C135.439 111.259 136.308 110.39 136.308 109.318C136.308 108.246 135.439 107.377 134.366 107.377Z" fill="#3FBA53"/>
<path d="M145.729 107.377H145.404C144.331 107.377 143.462 108.246 143.462 109.318C143.462 110.39 144.331 111.259 145.404 111.259H145.729C146.802 111.259 147.671 110.39 147.671 109.318C147.671 108.246 146.802 107.377 145.729 107.377Z" fill="#3FBA53"/>
<path d="M157.093 107.377H156.767C155.694 107.377 154.825 108.246 154.825 109.318C154.825 110.39 155.694 111.259 156.767 111.259H157.093C158.165 111.259 159.034 110.39 159.034 109.318C159.034 108.246 158.165 107.377 157.093 107.377Z" fill="#3FBA53"/>
<path d="M122.42 116.695H75.9159C74.6532 116.695 73.8115 115.918 73.8115 114.753C73.8115 113.588 74.6532 112.812 75.9159 112.812H122.42C123.682 112.812 124.524 113.588 124.524 114.753C124.524 115.918 123.472 116.695 122.42 116.695Z" fill="#3FBA53"/>
</g>
<path d="M188.143 114.92H47.4288C42.0814 114.92 37.7466 119.255 37.7466 124.603C37.7466 129.95 42.0814 134.285 47.4288 134.285H188.143C193.49 134.285 197.825 129.95 197.825 124.603C197.825 119.255 193.49 114.92 188.143 114.92Z" fill="#FF5468"/>
<path d="M197.824 136.867H37.7465C36.1972 136.867 35.1644 135.834 35.1644 134.285V114.92C35.1644 113.371 36.1972 112.338 37.7465 112.338H197.825C199.374 112.338 200.407 113.371 200.407 114.92V134.285C200.406 135.576 199.374 136.867 197.824 136.867ZM40.3282 126.703C40.3282 129.464 42.5668 131.703 45.3282 131.703H190.243C193.004 131.703 195.243 129.464 195.243 126.703V122.502C195.243 119.741 193.004 117.502 190.243 117.502H45.3282C42.5668 117.502 40.3282 119.741 40.3282 122.502V126.703Z" fill="#36363E"/>
<path d="M180.677 11.386H54.894C51.4771 11.386 49.7686 11.386 48.4682 12.0615C47.3723 12.6308 46.4788 13.5243 45.9095 14.6201C45.234 15.9206 45.234 17.629 45.234 21.046V105.26C45.234 108.677 45.234 110.386 45.9095 111.686C46.4788 112.782 47.3723 113.676 48.4682 114.245C49.7686 114.92 51.4796 114.92 54.9016 114.92H180.67C184.092 114.92 185.803 114.92 187.103 114.245C188.199 113.676 189.092 112.782 189.662 111.686C190.337 110.386 190.337 108.677 190.337 105.26V21.046C190.337 17.629 190.337 15.9206 189.662 14.6201C189.092 13.5243 188.199 12.6308 187.103 12.0615C185.803 11.386 184.094 11.386 180.677 11.386Z" fill="#3FBA53"/>
<path d="M170.906 21.866H64.4584C59.4878 21.866 55.4584 25.8954 55.4584 30.866V95.7451C55.4584 100.716 59.4878 104.745 64.4584 104.745H170.906C175.877 104.745 179.906 100.716 179.906 95.7451V30.866C179.906 25.8954 175.877 21.866 170.906 21.866Z" fill="white"/>
<path d="M69.5038 65.8639C68.471 65.8639 67.4383 65.0894 67.18 64.3146L61.2418 48.8233C60.7252 47.5323 61.5 45.9833 62.7911 45.4668C64.0821 44.9502 65.631 45.7251 66.1476 47.0161L70.0203 57.0857L80.6061 34.8813C81.1227 34.1068 81.8971 33.332 82.9299 33.332H120.884C122.433 33.332 123.466 34.3648 123.466 35.9141C123.466 37.4634 122.433 38.4961 120.884 38.4961H84.2206L71.8276 64.5735C71.311 65.0894 70.5365 65.8639 69.5038 65.8639Z" fill="#36363E"/>
<path d="M91.9662 63.7983C90.9335 62.7656 90.6752 61.2163 91.708 60.1835L105.392 44.1757C106.425 43.1429 107.974 42.8847 109.007 43.9174C110.04 44.9502 110.298 46.4995 109.265 47.5322L95.581 63.5401C94.8062 64.5728 93.2569 64.8311 91.9662 63.7983Z" fill="#36363E"/>
<path d="M105.392 63.5401L91.9663 47.5322C90.9335 46.4995 91.1918 44.6922 92.2245 43.9174C93.2573 42.8847 95.0645 43.1429 95.8393 44.1757L109.265 60.1835C110.298 61.2163 110.04 63.0235 109.007 63.7983C107.974 64.8311 106.425 64.5728 105.392 63.5401Z" fill="#36363E"/>
<path d="M165.551 43.6596L161.161 39.2703L156.772 43.6596C155.739 44.6924 154.19 44.6924 153.157 43.6596L148.51 39.2703L144.121 43.6596C143.604 44.1758 142.83 44.4341 142.313 44.4341C141.539 44.4341 141.022 44.1758 140.506 43.6596L134.31 37.4631C133.277 36.4303 133.277 34.881 134.31 33.8483C135.342 32.8155 136.892 32.8155 137.924 33.8483L142.314 38.2376L146.703 33.8483C147.22 33.3318 147.736 33.0738 148.51 33.0738C149.285 33.0738 149.801 33.3321 150.317 33.8483L154.707 38.2376L159.096 33.8483C160.129 32.8155 161.678 32.8155 162.711 33.8483L168.907 40.0448C169.94 41.0776 169.94 42.6269 168.907 43.6596C168.391 44.6924 166.584 44.6924 165.551 43.6596Z" fill="#36363E"/>
<path d="M167.358 58.8931H135.859C134.309 58.8931 133.277 57.8603 133.277 56.311C133.277 54.7618 134.309 53.729 135.859 53.729H167.358C168.907 53.729 169.94 54.7618 169.94 56.311C169.94 57.86 168.907 58.8931 167.358 58.8931Z" fill="#36363E"/>
<path d="M167.358 73.0931H135.859C134.309 73.0931 133.277 72.0603 133.277 70.511C133.277 68.9617 134.309 67.929 135.859 67.929H167.358C168.907 67.929 169.94 68.9617 169.94 70.511C169.94 71.802 168.907 73.0931 167.358 73.0931Z" fill="#36363E"/>
<path d="M135.084 86.7774C135.084 88.2034 136.24 89.3593 137.666 89.3593C139.092 89.3593 140.248 88.2034 140.248 86.7774C140.248 85.3515 139.092 84.1956 137.666 84.1956C136.24 84.1956 135.084 85.3515 135.084 86.7774Z" fill="#36363E"/>
<path d="M149.026 86.7774C149.026 88.2034 150.182 89.3593 151.608 89.3593C153.034 89.3593 154.19 88.2034 154.19 86.7774C154.19 85.3515 153.034 84.1956 151.608 84.1956C150.182 84.1956 149.026 85.3515 149.026 86.7774Z" fill="#36363E"/>
<path d="M162.969 86.7774C162.969 88.2034 164.125 89.3593 165.551 89.3593C166.977 89.3593 168.133 88.2034 168.133 86.7774C168.133 85.3515 166.977 84.1956 165.551 84.1956C164.125 84.1956 162.969 85.3515 162.969 86.7774Z" fill="#36363E"/>
<path d="M123.207 96.5884H66.1471C64.5978 96.5884 63.5651 95.5557 63.5651 94.0064C63.5651 92.4571 64.5978 91.4243 66.1471 91.4243H123.207C124.756 91.4243 125.789 92.4571 125.789 94.0064C125.789 95.5557 124.498 96.5884 123.207 96.5884Z" fill="#36363E"/>
<path d="M45.219 25.2143C45.219 16.6539 52.1586 9.71436 60.719 9.71436H174.852C183.413 9.71436 190.352 16.6539 190.352 25.2144V114.195H45.219V25.2143Z" stroke="#36363E" stroke-width="5"/>
<defs>
<filter id="filter0_f" x="0.665039" y="0.69165" width="234.672" height="196.287" filterUnits="userSpaceOnUse" color-interpolation-filters="sRGB">
<feFlood flood-opacity="0" result="BackgroundImageFix"/>
<feBlend mode="normal" in="SourceGraphic" in2="BackgroundImageFix" result="shape"/>
<feGaussianBlur stdDeviation="25" result="effect1_foregroundBlur"/>
</filter>
</defs>
</svg>
