<svg width="67" height="62" viewBox="0 0 67 62" fill="none" xmlns="http://www.w3.org/2000/svg">
<rect x="0.126465" y="2.21397" width="58.3581" height="58.9074" rx="20" fill="#FEF5DD"/>
<path d="M17.1293 27.2046C18.8312 27.2046 20.2158 25.8046 20.2158 24.0837C20.2158 22.7371 19.3679 21.5871 18.1838 21.1505V12.7908L26.8662 15.572V24.8016C26.8755 25.1242 27.0184 25.4295 27.2816 25.6231C27.4715 25.763 32.0275 29.048 40.1358 29.048C48.244 29.048 52.7991 25.7629 52.989 25.623C53.2456 25.434 53.4043 25.1204 53.4043 24.8015V15.5719L63.4523 12.3532C63.8563 12.2238 64.1382 11.8579 64.1599 11.4341C64.1816 11.0105 63.9389 10.6175 63.5503 10.4474L40.5439 0.373409C40.283 0.259156 39.9863 0.259156 39.7256 0.373409L16.7201 10.4473C16.3315 10.6174 16.0888 11.0104 16.1105 11.4341C16.1142 11.5054 16.1436 21.1268 16.1436 21.1268C14.9237 21.5438 14.0427 22.7112 14.0427 24.0837C14.0428 25.8045 15.4274 27.2046 17.1293 27.2046ZM31.7763 13.0924C37.7972 10.8814 45.802 11.1015 51.3641 14.4414V23.025C47.7783 21.2169 43.6746 20.4984 39.6832 20.5588C35.991 20.6143 32.2198 21.35 28.9064 23.0248V14.4395C29.8076 13.895 30.7871 13.4558 31.7763 13.0924ZM40.1359 27.0077C35.2438 27.0077 31.7455 25.6952 29.9264 24.7984C36.0706 21.7544 44.1946 21.7759 50.3379 24.8016C48.5163 25.6987 45.0212 27.0077 40.1359 27.0077ZM40.1347 2.4215L60.2596 11.2336L53.311 13.4594C53.2298 13.2827 53.0961 13.1388 52.9383 13.0279C49.3586 10.5 44.4023 9.6381 40.1346 9.6381C35.8341 9.6381 30.9553 10.4982 27.3547 13.012C27.1878 13.1278 27.0453 13.2726 26.9594 13.4594L20.0108 11.2336L40.1347 2.4215ZM17.1293 23.0029C17.7062 23.0029 18.1755 23.4877 18.1755 24.0837C18.1755 24.6796 17.7062 25.1644 17.1293 25.1644C16.5524 25.1644 16.0831 24.6796 16.0831 24.0837C16.0831 23.4877 16.5524 23.0029 17.1293 23.0029Z" fill="#FFB913"/>
<path d="M64.2537 42.4851L62.8751 42.114C62.9841 41.0109 63.3254 40.0692 63.8941 39.307C64.3888 38.6439 64.8945 38.3511 64.9508 38.3198C65.3367 38.1366 65.5568 37.7373 65.5181 37.3114C65.4793 36.8833 65.1651 36.5309 64.7492 36.4222L59.496 35.0479C58.9508 34.9054 58.3935 35.2315 58.2509 35.7767C58.1083 36.3217 58.4345 36.8792 58.9797 37.0217L62.393 37.9146C61.7497 38.7165 61.1121 39.9019 60.8845 41.5783L47.8742 38.066C45.6044 37.4516 43.2081 39.2317 43.2081 41.6042C43.2083 41.9111 43.0786 42.2061 42.8428 42.4345C42.6047 42.6651 42.2841 42.7973 41.963 42.7973H41.1773V38.5187C41.1773 36.487 42.4695 34.6804 44.3934 34.0231C45.2821 33.719 46.2313 33.6847 47.1405 33.9244L50.2885 34.748C50.8336 34.8907 51.3911 34.5644 51.5336 34.0192C51.6762 33.4742 51.3499 32.9167 50.8048 32.7742L47.6588 31.9511C46.3612 31.609 45.0036 31.6579 43.7333 32.0926C42.211 32.6127 40.9661 33.6372 40.1574 34.9408C39.3491 33.6372 38.1046 32.6127 36.583 32.0929C35.3127 31.6579 33.9549 31.6089 32.6585 31.9507L15.5504 36.4306C15.1346 36.5394 14.8205 36.8919 14.7816 37.3199C14.743 37.7458 14.963 38.1451 15.3489 38.3282C15.4053 38.3596 15.9111 38.6524 16.4057 39.3153C16.9736 40.0767 17.3147 41.017 17.4242 42.1184L16.0625 42.485C15.3701 42.6626 14.7876 43.0984 14.4217 43.7129C14.0543 44.3295 13.9492 45.0524 14.1256 45.7482L14.33 46.5547C14.5064 47.2505 14.9431 47.836 15.5599 48.2033C16.1766 48.5706 16.8994 48.6756 17.5952 48.4993C17.6006 48.498 17.6059 48.4966 17.6112 48.4952L31.5857 44.71C32.1005 45.8138 32.8897 46.7926 33.869 47.527C35.1577 48.4933 36.6907 49.0041 38.3019 49.0041H42.0135C43.6248 49.0041 45.1576 48.4933 46.4464 47.527C47.4259 46.7926 48.215 45.8138 48.7298 44.71L62.7042 48.4952C62.7095 48.4966 62.7148 48.498 62.7203 48.4993C63.4161 48.6757 64.1389 48.5706 64.7556 48.2033C65.3723 47.836 65.8091 47.2505 65.9854 46.5547L66.1899 45.7482C66.3662 45.0524 66.2611 44.3295 65.8938 43.7129C65.528 43.0985 64.9458 42.6629 64.2537 42.4851ZM17.9066 37.9227L33.177 33.9239C34.0845 33.6845 35.0337 33.7188 35.9225 34.0233C37.8452 34.6801 39.137 36.4868 39.137 38.5188V42.7974H38.3534C37.6926 42.7974 37.1059 42.242 37.1063 41.6034C37.1063 39.2259 34.6962 37.4722 32.442 38.0662L19.4147 41.5827C19.1865 39.9084 18.5493 38.7239 17.9066 37.9227ZM64.2123 45.2469L64.0078 46.0534C63.8761 46.4242 63.616 46.5809 63.2278 46.5232L48.3784 42.5011C47.8484 42.3576 47.2997 42.6595 47.1373 43.1841C46.4486 45.4096 44.3417 46.9639 42.0136 46.9639H38.302C35.974 46.9639 33.8671 45.4096 33.1784 43.1841C33.0434 42.7477 32.641 42.4654 32.2044 42.4654C32.1161 42.4654 32.0264 42.4769 31.9372 42.5011L17.0877 46.5231C16.6994 46.5808 16.4393 46.4242 16.3076 46.0533L16.1032 45.2468C16.02 44.9181 16.2651 44.5428 16.5859 44.4567L33.0491 40.0256C34.0747 39.77 35.0568 40.5952 35.0665 41.6344C35.083 43.3385 36.565 44.8376 38.3526 44.8376H41.9626C42.8213 44.8376 43.638 44.5047 44.2623 43.9002C44.8989 43.2837 45.2493 42.4678 45.2488 41.603C45.2483 40.5825 46.2656 39.7765 47.2663 40.0257L51.1798 41.079L63.7294 44.4568C64.0504 44.5428 64.2955 44.9181 64.2123 45.2469Z" fill="#FFB913"/>
<path d="M55.8665 34.3645C55.5558 33.9025 54.9157 33.7755 54.4516 34.0829C53.9876 34.3903 53.8638 35.0353 54.17 35.4969C54.4769 35.9593 55.1237 36.0884 55.585 35.7794C56.0466 35.4702 56.1744 34.8266 55.8665 34.3645Z" fill="#FFB913"/>
</svg>
