<svg width="153" height="153" viewBox="0 0 153 153" fill="none" xmlns="http://www.w3.org/2000/svg">
<g filter="url(#filter0_f)">
<path d="M60.281 73.3428H92.3748C93.8099 73.3428 94.9841 72.1686 94.9841 70.7336V38.6398C94.9841 37.2047 93.8099 36.0305 92.3748 36.0305H60.281C58.846 36.0305 57.6718 37.2047 57.6718 38.6398V70.7336C57.6718 72.1686 58.846 73.3428 60.281 73.3428Z" fill="white"/>
<path d="M92.375 34.7258H60.281C58.0631 34.7258 56.3671 36.4219 56.3671 38.6398V70.7336C56.3671 72.9515 58.0631 74.6476 60.281 74.6476H92.3749C94.5928 74.6476 96.2888 72.9515 96.2888 70.7336V38.6398C96.2888 36.4219 94.5929 34.7258 92.375 34.7258ZM93.6796 70.7336C93.6796 71.5165 93.1577 72.0383 92.3749 72.0383H60.281C59.4982 72.0383 58.9763 71.5165 58.9763 70.7336V38.6398C58.9763 37.8569 59.4982 37.3351 60.281 37.3351H92.3749C93.1577 37.3351 93.6796 37.8569 93.6796 38.6398V70.7336Z" fill="#3FBA53"/>
<path d="M70.5876 79.605H38.4938C37.0587 79.605 35.8845 80.7792 35.8845 82.2142V114.308C35.8845 115.743 37.0587 116.917 38.4938 116.917H70.5876C72.0226 116.917 73.1968 115.743 73.1968 114.308V82.2142C73.1968 80.779 72.0226 79.605 70.5876 79.605Z" fill="white"/>
<path d="M70.5875 78.3005H38.4936C36.2758 78.3005 34.5797 79.9966 34.5797 82.2145V114.308C34.5797 116.526 36.2758 118.222 38.4936 118.222H70.5875C72.8054 118.222 74.5014 116.526 74.5014 114.308V82.2145C74.5014 79.9966 72.8054 78.3005 70.5875 78.3005ZM71.8922 114.308C71.8922 115.091 71.3704 115.613 70.5875 115.613H38.4936C37.7108 115.613 37.1889 115.091 37.1889 114.308V82.2145C37.1889 81.4316 37.7108 80.9098 38.4936 80.9098H70.5875C71.3704 80.9098 71.8922 81.4316 71.8922 82.2145V114.308Z" fill="#3FBA53"/>
<path d="M114.162 79.605H82.0683C80.6333 79.605 79.4591 80.7792 79.4591 82.2142V114.308C79.4591 115.743 80.6333 116.917 82.0683 116.917H114.162C115.597 116.917 116.771 115.743 116.771 114.308V82.2142C116.771 80.779 115.597 79.605 114.162 79.605Z" fill="white"/>
<path d="M114.162 78.3005H82.0682C79.8503 78.3005 78.1543 79.9966 78.1543 82.2145V114.308C78.1543 116.526 79.8503 118.222 82.0682 118.222H114.162C116.38 118.222 118.076 116.526 118.076 114.308V82.2145C118.076 79.9966 116.38 78.3005 114.162 78.3005ZM115.467 114.308C115.467 115.091 114.945 115.613 114.162 115.613H82.0682C81.2854 115.613 80.7635 115.091 80.7635 114.308V82.2145C80.7635 81.4316 81.2854 80.9098 82.0682 80.9098H114.162C114.945 80.9098 115.467 81.4316 115.467 82.2145V114.308Z" fill="#3FBA53"/>
<path d="M89.7787 41.2617H62.9033V68.1371H89.7787V41.2617Z" fill="#3FBA53"/>
<path d="M67.9784 84.7949H41.103V111.67H67.9784V84.7949Z" fill="#FFB913"/>
<path d="M111.527 84.8237H84.6515V111.699H111.527V84.8237Z" fill="#FF5468"/>
<path d="M72.4142 58.9923L70.8486 62.6452H67.9784L75.0234 46.7288H77.8937L84.9387 62.6452H82.0684L80.2419 58.9923H72.4142ZM79.1982 56.5135L76.3279 49.9903L73.4577 56.5135H79.1982Z" fill="white"/>
<path d="M55.1932 106.22H48.2787V90.3035H54.4105C55.4542 90.3035 56.3674 90.434 57.1503 90.6948C57.9331 90.9558 58.455 91.3472 58.8463 91.7385C59.6292 92.5214 59.89 93.4346 59.89 94.4782C59.89 95.7829 59.4987 96.6961 58.7158 97.218C58.4548 97.479 58.194 97.6093 58.0634 97.6093C57.9329 97.6093 57.8024 97.7398 57.5416 97.8703C58.5853 98.1313 59.3682 98.5227 59.89 99.175C60.4118 99.8274 60.8032 100.741 60.8032 101.654C60.8032 102.697 60.4118 103.741 59.629 104.524C58.8461 105.698 57.2806 106.22 55.1932 106.22ZM50.8879 96.957H54.28C56.2369 96.957 57.1503 96.3046 57.1503 95.0001C57.1503 94.2172 56.8893 93.6954 56.4979 93.304C55.9761 92.9127 55.3237 92.7822 54.28 92.7822H50.8879V96.957ZM50.8879 103.741H55.0627C56.1064 103.741 56.7587 103.611 57.2806 103.219C57.8024 102.958 58.0634 102.306 58.0634 101.523C58.0634 100.088 56.8893 99.4359 54.6714 99.4359H50.7574V103.741H50.8879Z" fill="white"/>
<path d="M99.0287 103.872C99.9419 103.872 100.725 103.741 101.377 103.35C102.029 103.089 102.682 102.567 103.464 101.915L105.161 103.741C103.464 105.568 101.377 106.481 99.0287 106.481C96.6803 106.481 94.5929 105.698 93.0273 104.133C91.4618 102.567 90.679 100.61 90.679 98.2617C90.679 95.9133 91.4618 93.9564 93.1577 92.3909C94.7232 90.8253 96.8106 90.0425 99.2895 90.0425C101.768 90.0425 103.856 90.9557 105.421 92.7822L103.725 94.6088C102.942 93.8259 102.29 93.4346 101.638 93.0432C100.986 92.7822 100.203 92.6519 99.2895 92.6519C97.724 92.6519 96.2889 93.1737 95.2452 94.2174C94.2015 95.2611 93.5492 96.5658 93.5492 98.1314C93.5492 99.6969 94.071 101.132 95.1147 102.176C96.2889 103.35 97.5936 103.872 99.0287 103.872Z" fill="white"/>
</g>
<path d="M54.8722 53.3258H92.6992C94.3906 53.3258 95.7745 51.9418 95.7745 50.2505V12.4235C95.7745 10.7321 94.3906 9.34814 92.6992 9.34814H54.8722C53.1808 9.34814 51.7969 10.7321 51.7969 12.4235V50.2505C51.7969 51.9418 53.1808 53.3258 54.8722 53.3258Z" fill="white"/>
<path d="M92.6993 7.8103H54.8721C52.2581 7.8103 50.259 9.80932 50.259 12.4234V50.2504C50.259 52.8645 52.2581 54.8635 54.8721 54.8635H92.6991C95.3132 54.8635 97.3122 52.8645 97.3122 50.2504V12.4234C97.3122 9.80932 95.3134 7.8103 92.6993 7.8103ZM94.2369 50.2504C94.2369 51.1731 93.6218 51.7881 92.6991 51.7881H54.8721C53.9494 51.7881 53.3344 51.1731 53.3344 50.2504V12.4234C53.3344 11.5007 53.9494 10.8856 54.8721 10.8856H92.6991C93.6218 10.8856 94.2369 11.5007 94.2369 12.4234V50.2504Z" fill="#36363E"/>
<path d="M67.0199 60.7065H29.1929C27.5015 60.7065 26.1176 62.0905 26.1176 63.7819V101.609C26.1176 103.3 27.5015 104.684 29.1929 104.684H67.0199C68.7112 104.684 70.0952 103.3 70.0952 101.609V63.7819C70.0952 62.0903 68.7112 60.7065 67.0199 60.7065Z" fill="white"/>
<path d="M67.0198 59.1692H29.1928C26.5787 59.1692 24.5797 61.1682 24.5797 63.7823V101.609C24.5797 104.223 26.5787 106.222 29.1928 106.222H67.0198C69.6339 106.222 71.6329 104.223 71.6329 101.609V63.7823C71.6329 61.1682 69.6339 59.1692 67.0198 59.1692ZM68.5576 101.609C68.5576 102.532 67.9425 103.147 67.0198 103.147H29.1928C28.2701 103.147 27.6551 102.532 27.6551 101.609V63.7823C27.6551 62.8596 28.2701 62.2445 29.1928 62.2445H67.0198C67.9425 62.2445 68.5576 62.8596 68.5576 63.7823V101.609Z" fill="#36363E"/>
<path d="M118.379 60.7065H80.5515C78.8602 60.7065 77.4762 62.0905 77.4762 63.7819V101.609C77.4762 103.3 78.8602 104.684 80.5515 104.684H118.379C120.07 104.684 121.454 103.3 121.454 101.609V63.7819C121.454 62.0903 120.07 60.7065 118.379 60.7065Z" fill="white"/>
<path d="M118.378 59.1692H80.5515C77.9374 59.1692 75.9384 61.1682 75.9384 63.7823V101.609C75.9384 104.223 77.9374 106.222 80.5515 106.222H118.378C120.993 106.222 122.992 104.223 122.992 101.609V63.7823C122.992 61.1682 120.993 59.1692 118.378 59.1692ZM119.916 101.609C119.916 102.532 119.301 103.147 118.378 103.147H80.5515C79.6288 103.147 79.0137 102.532 79.0137 101.609V63.7823C79.0137 62.8596 79.6288 62.2445 80.5515 62.2445H118.378C119.301 62.2445 119.916 62.8596 119.916 63.7823V101.609Z" fill="#36363E"/>
<path d="M89.6392 15.5139H57.9629V47.1902H89.6392V15.5139Z" fill="#3FBA53"/>
<path d="M63.9446 66.8235H32.2683V98.4998H63.9446V66.8235Z" fill="#FFB913"/>
<path d="M115.272 66.8574H83.5961V98.5337H115.272V66.8574Z" fill="#FF5468"/>
<path d="M69.1726 36.4115L67.3274 40.7169H63.9445L72.248 21.9573H75.6309L83.9345 40.7169H80.5515L78.3987 36.4115H69.1726ZM77.1685 33.4899L73.7855 25.8015L70.4026 33.4899H77.1685Z" fill="white"/>
<path d="M48.8755 92.0758H40.7258V73.3162H47.953C49.1832 73.3162 50.2595 73.47 51.1822 73.7774C52.1049 74.085 52.72 74.5463 53.1812 75.0076C54.1039 75.9303 54.4113 77.0066 54.4113 78.2367C54.4113 79.7745 53.9501 80.8508 53.0274 81.4659C52.7198 81.7735 52.4123 81.9271 52.2585 81.9271C52.1047 81.9271 51.9509 82.0809 51.6434 82.2347C52.8736 82.5424 53.7963 83.0036 54.4113 83.7725C55.0264 84.5414 55.4877 85.6177 55.4877 86.694C55.4877 87.9242 55.0264 89.1543 54.1037 90.077C53.181 91.4608 51.3358 92.0758 48.8755 92.0758ZM43.8012 81.1582H47.7992C50.1057 81.1582 51.1822 80.3893 51.1822 78.8518C51.1822 77.9291 50.8745 77.314 50.4133 76.8528C49.7982 76.3915 49.0293 76.2377 47.7992 76.2377H43.8012V81.1582ZM43.8012 89.1543H48.7217C49.9518 89.1543 50.7207 89.0005 51.3358 88.5392C51.9509 88.2316 52.2585 87.4629 52.2585 86.5402C52.2585 84.8488 50.8745 84.0799 48.2605 84.0799H43.6474V89.1543H43.8012Z" fill="white"/>
<path d="M100.541 89.3079C101.618 89.3079 102.54 89.1541 103.309 88.6929C104.078 88.3852 104.847 87.7702 105.77 87.0015L107.769 89.1543C105.77 91.3072 103.309 92.3835 100.541 92.3835C97.7734 92.3835 95.3132 91.4608 93.468 89.6156C91.6228 87.7704 90.7001 85.4639 90.7001 82.696C90.7001 79.9281 91.6228 77.6217 93.6216 75.7764C95.4668 73.9312 97.9271 73.0085 100.849 73.0085C103.771 73.0085 106.231 74.0849 108.076 76.2377L106.077 78.3905C105.154 77.4678 104.386 77.0066 103.617 76.5453C102.848 76.2377 101.925 76.0841 100.849 76.0841C99.0036 76.0841 97.3122 76.6992 96.0821 77.9293C94.8519 79.1594 94.083 80.6972 94.083 82.5424C94.083 84.3876 94.6981 86.079 95.9282 87.3091C97.3122 88.6927 98.85 89.3079 100.541 89.3079Z" fill="white"/>
<defs>
<filter id="filter0_f" x="0.579712" y="0.72583" width="151.496" height="151.496" filterUnits="userSpaceOnUse" color-interpolation-filters="sRGB">
<feFlood flood-opacity="0" result="BackgroundImageFix"/>
<feBlend mode="normal" in="SourceGraphic" in2="BackgroundImageFix" result="shape"/>
<feGaussianBlur stdDeviation="17" result="effect1_foregroundBlur"/>
</filter>
</defs>
</svg>
