<svg width="66" height="64" viewBox="0 0 66 64" fill="none" xmlns="http://www.w3.org/2000/svg">
<rect x="0.273315" y="4.21397" width="58.3581" height="58.9074" rx="20" fill="#E0FFE5"/>
<path d="M37.5972 35.4459C37.9954 35.0468 37.9954 34.4011 37.5972 34.0021C37.1986 33.6042 36.5528 33.6042 36.1538 34.0021C35.756 34.4011 35.756 35.0468 36.1538 35.4459C36.5528 35.8437 37.1986 35.8437 37.5972 35.4459Z" fill="#3FBA53"/>
<path d="M32.766 11.2307C32.766 17.4184 37.8001 22.4529 43.9879 22.4529C50.1756 22.4529 55.2097 17.4184 55.2097 11.2307C55.2097 5.04294 50.1756 0.00880432 43.9879 0.00880432C37.8001 0.00880432 32.766 5.04294 32.766 11.2307ZM53.1696 11.2307C53.1696 16.2935 49.0507 20.4124 43.9879 20.4124C38.925 20.4124 34.8061 16.2935 34.8061 11.2307C34.8061 6.16824 38.925 2.04933 43.9879 2.04933C49.0507 2.04933 53.1696 6.16824 53.1696 11.2307Z" fill="#3FBA53"/>
<path d="M25.3374 51.9546C25.7328 52.3532 26.3766 52.3576 26.7772 51.9629L31.7232 47.0903C32.5635 46.25 32.819 45.0059 32.4495 43.9244L33.5134 42.8984C34.0863 42.3451 34.8404 42.0402 35.6377 42.0402H49.1998C51.6059 42.0402 53.88 41.1162 55.604 39.4384C55.675 39.3694 55.0655 40.0874 64.8563 28.3856C66.3085 26.6675 66.0912 24.0877 64.3716 22.6339C62.6627 21.1937 60.1028 21.4006 58.6466 23.0891L52.6267 29.2765C51.8666 28.3409 50.7074 27.7577 49.4549 27.7577H38.0788C36.46 27.0805 34.7424 26.7377 32.9701 26.7377C28.0576 26.7377 23.768 29.0066 21.466 33.2606C20.4962 33.0769 19.4733 33.3703 18.7375 34.1061L13.8843 38.9736C13.4881 39.371 13.4873 40.014 13.8827 40.4126L25.3374 51.9546ZM32.9697 28.7778C34.5323 28.7778 36.0431 29.0923 37.4609 29.7125C37.5901 29.7692 37.7292 29.7982 37.8699 29.7982H49.4549C50.5611 29.7982 51.4955 30.7003 51.4955 31.8384C51.4955 32.9637 50.5802 33.8789 49.4549 33.8789H41.1314C40.5682 33.8789 40.1113 34.3357 40.1113 34.899C40.1113 35.4626 40.5682 35.919 41.1314 35.919H49.4549C51.7051 35.919 53.5356 34.0886 53.5356 31.8384C53.5356 31.659 53.5228 31.4812 53.4997 31.305C59.3231 25.319 60.1442 24.4779 60.1793 24.4361C60.9064 23.5778 62.1971 23.469 63.0557 24.1929C63.9152 24.9196 64.024 26.2095 63.2949 27.0725L54.1447 38.0114C52.8085 39.2941 51.0542 40.0001 49.1998 40.0001H35.6377C34.3087 40.0001 33.0506 40.5083 32.0964 41.4303L31.2294 42.267L23.2371 34.2751C25.105 30.7709 28.6101 28.7778 32.9697 28.7778ZM20.1813 35.5479C20.5177 35.2115 21.0343 35.1509 21.4445 35.4044C21.6211 35.512 21.1141 35.0504 30.2807 44.2043C30.6884 44.6121 30.6665 45.2618 30.2862 45.6421L26.0697 49.7961L16.0456 39.6955L20.1813 35.5479Z" fill="#3FBA53"/>
<path d="M42.7637 5.10991V6.30536C41.5762 6.7263 40.7232 7.86036 40.7232 9.19055C40.7232 10.8779 42.096 12.2511 43.7838 12.2511C44.3462 12.2511 44.8038 12.7087 44.8038 13.2712C44.8038 13.8336 44.3462 14.2913 43.7838 14.2913C43.3481 14.2913 42.8773 14.0174 42.4591 13.5195C42.0964 13.0882 41.453 13.0328 41.0217 13.3952C40.5904 13.7579 40.5346 14.4013 40.8974 14.8326C41.4427 15.4811 42.084 15.9332 42.7637 16.1612V17.3518C42.7637 17.9155 43.2205 18.3719 43.7838 18.3719C44.347 18.3719 44.8038 17.9155 44.8038 17.3518V16.1564C45.9913 15.735 46.8443 14.601 46.8443 13.2712C46.8443 11.5834 45.4715 10.2106 43.7838 10.2106C43.2213 10.2106 42.7637 9.753 42.7637 9.19055C42.7637 8.6281 43.2213 8.17009 43.7838 8.17009C44.1453 8.17009 44.5268 8.35465 44.8871 8.70344C45.2921 9.09528 45.9379 9.08452 46.3297 8.67992C46.7216 8.27493 46.7108 7.62917 46.3062 7.23733C45.7884 6.73626 45.2702 6.45285 44.8038 6.29818V5.10991C44.8038 4.54626 44.347 4.08945 43.7838 4.08945C43.2205 4.08945 42.7637 4.54626 42.7637 5.10991Z" fill="#3FBA53"/>
</svg>
