<svg width="170" height="170" viewBox="0 0 170 170" fill="none" xmlns="http://www.w3.org/2000/svg">
<g filter="url(#filter0_f)">
<path d="M47.3625 88.5001L84.7511 97.9565L122.14 88.5001L84.7511 82.5354L47.3625 88.5001Z" fill="white"/>
<path d="M84.7512 99.4112C84.6057 99.4112 84.4602 99.4112 84.4602 99.4112L46.9263 89.8095C46.1988 89.664 45.7625 89.082 45.7625 88.3546C45.7625 87.6272 46.3444 87.0452 46.9263 87.0452L84.3148 81.0806C84.4603 81.0806 84.6059 81.0806 84.7512 81.0806L122.14 87.0452C122.867 87.1908 123.304 87.7727 123.304 88.3546C123.304 89.082 122.867 89.664 122.14 89.8095L84.7512 99.2657C85.0421 99.4112 84.8967 99.4112 84.7512 99.4112ZM54.4912 88.7912L84.7512 96.5016L115.011 88.7912L84.7512 83.9903L54.4912 88.7912Z" fill="#5A75FF"/>
<path d="M75.1493 87.3365C76.3132 87.9184 77.0406 89.2277 77.0406 90.5371V98.8294H92.4615V90.5371C92.4615 89.2277 93.1889 88.0639 94.3528 87.3365C100.463 83.9905 104.682 77.4439 104.682 69.8788C104.682 58.0949 94.4983 48.6386 82.4234 50.0935C73.1127 51.1118 65.6932 58.6769 64.8202 67.9875C64.0928 76.2801 68.4572 83.5541 75.1493 87.3365Z" fill="white"/>
<path d="M92.4617 100.284H77.0408C76.1678 100.284 75.5859 99.7023 75.5859 98.8294V90.537C75.5859 89.8096 75.1495 89.0821 74.4221 88.6457C67.0025 84.5723 62.6382 76.28 63.511 67.8421C64.384 57.804 72.3853 49.657 82.4234 48.6387C83.2964 48.4932 84.0236 48.4932 84.8966 48.4932C96.6804 48.4932 106.282 58.0949 106.282 69.8787C106.282 77.7347 102.063 84.8632 95.2255 88.6457C94.4981 89.0821 94.0617 89.8096 94.0617 90.537V98.8294C93.9166 99.5568 93.3346 100.284 92.4617 100.284ZM78.4955 97.3747H91.0068V90.537C91.0068 88.6457 92.0251 87.0455 93.6255 86.0272C99.5902 82.8266 103.227 76.571 103.227 69.8789C103.227 59.6953 94.9349 51.4029 84.7512 51.4029C84.0238 51.4029 83.2964 51.4029 82.5691 51.5485C73.9857 52.5668 67.0027 59.5499 66.2753 68.1332C65.5478 75.5527 69.3304 82.5357 75.7314 86.1727C77.3317 87.0457 78.3502 88.7915 78.3502 90.6825V97.3747H78.4955Z" fill="#5A75FF"/>
<path d="M84.7511 130.544L47.3625 121.087V88.4998L84.7511 97.9561V130.544Z" fill="white"/>
<path d="M84.7512 131.999C84.6057 131.999 84.4602 131.999 84.4602 131.999L46.9263 122.543C46.3444 122.397 45.7625 121.815 45.7625 121.088V88.5002C45.7625 88.0638 45.908 87.6272 46.3444 87.3363C46.6354 87.0453 47.2173 86.9 47.6537 87.0453L85.0422 96.5015C85.6242 96.647 86.2061 97.2289 86.2061 97.9564V130.544C86.2061 130.98 86.0606 131.417 85.6242 131.708C85.3331 131.999 85.0421 131.999 84.7512 131.999ZM48.8176 119.924L83.2965 128.798V99.1204L48.8176 90.3915V119.924Z" fill="#5A75FF"/>
<path d="M53.182 116.578V95.9197L78.932 102.466V123.125L53.182 116.578Z" fill="#FF5468"/>
<path d="M84.7511 130.544L122.14 121.087V88.4998L84.7511 97.9561V130.544Z" fill="white"/>
<path d="M84.7512 131.999C84.4601 131.999 84.1692 131.853 83.8782 131.708C83.5871 131.417 83.2963 130.98 83.2963 130.544V97.9564C83.2963 97.229 83.7327 96.6471 84.4601 96.5016L121.849 87.0454C122.285 86.8998 122.722 87.0454 123.158 87.3364C123.449 87.6275 123.74 88.0639 123.74 88.5003V121.088C123.74 121.815 123.304 122.397 122.576 122.543L85.1875 131.999C85.042 131.999 84.8967 131.999 84.7512 131.999ZM86.2058 99.1203V128.798L120.685 120.07V90.2462L86.2058 99.1203Z" fill="#5A75FF"/>
<path d="M90.5703 102.466L116.32 95.9197V116.578L90.5703 123.125V102.466Z" fill="#5A75FF"/>
<path d="M92.4615 107.412L129.85 97.9561L122.14 88.4998L84.7511 97.9561L92.4615 107.412Z" fill="#E3E3EA"/>
<path d="M92.4615 108.867C92.0251 108.867 91.5885 108.722 91.2976 108.286L83.5872 98.8294C83.2961 98.393 83.1508 97.9564 83.2961 97.52C83.4417 97.0836 83.8781 96.6471 84.3145 96.5017L121.703 87.0455C122.285 86.9 122.867 87.0455 123.158 87.4819L130.868 96.9381C131.159 97.3745 131.305 97.8111 131.159 98.2475C131.014 98.6839 130.577 99.1204 130.141 99.2658L92.7525 108.722C92.7525 108.867 92.607 108.867 92.4615 108.867ZM87.3697 98.8294L93.0436 105.812L127.377 97.0836L121.703 90.1007L87.3697 98.8294Z" fill="#5A75FF"/>
<path d="M77.0407 107.412L39.6522 97.9561L47.3627 88.4998L84.7512 97.9561L77.0407 107.412Z" fill="#E3E3EA"/>
<path d="M77.0407 108.867C76.8951 108.867 76.7496 108.867 76.7496 108.867L39.3613 99.4113C38.9249 99.2658 38.4883 98.9749 38.343 98.393C38.1975 97.9566 38.343 97.3747 38.634 97.0836L46.3445 87.6274C46.6355 87.191 47.2174 87.0455 47.7993 87.191L85.1879 96.6472C85.6243 96.7928 86.0608 97.0836 86.2062 97.6655C86.3517 98.1019 86.2062 98.6838 85.9151 98.9749L78.2047 108.431C77.9135 108.722 77.4771 108.867 77.0407 108.867ZM42.2709 97.0836L76.6043 105.812L82.2781 98.8294L47.9445 90.1006L42.2709 97.0836Z" fill="#5A75FF"/>
<path d="M84.7511 85.5905C93.2678 85.5905 100.172 78.6864 100.172 70.1697C100.172 61.6529 93.2678 54.7488 84.7511 54.7488C76.2344 54.7488 69.3302 61.6529 69.3302 70.1697C69.3302 78.6864 76.2344 85.5905 84.7511 85.5905Z" fill="#FFB913"/>
<path d="M115.302 71.6241H111.956C111.083 71.6241 110.501 71.0422 110.501 70.1692C110.501 69.2963 111.083 68.7144 111.956 68.7144H115.302C116.175 68.7144 116.757 69.2963 116.757 70.1692C116.757 71.0422 116.029 71.6241 115.302 71.6241Z" fill="#5A75FF"/>
<path d="M57.5462 71.6244H54.2002C53.3273 71.6244 52.7454 71.0425 52.7454 70.1695C52.7454 69.2965 53.3273 68.7146 54.2002 68.7146H57.5462C58.4192 68.7146 59.0011 69.2965 59.0011 70.1695C59.0011 71.0425 58.2737 71.6244 57.5462 71.6244Z" fill="#5A75FF"/>
<path d="M108.61 60.4223C108.319 59.6948 108.61 58.8221 109.337 58.531L112.392 57.2216C113.12 56.9306 113.993 57.2216 114.284 57.9491C114.575 58.6765 114.284 59.5493 113.556 59.8404L110.501 61.1497C109.774 61.4406 108.901 61.1497 108.61 60.4223Z" fill="#5A75FF"/>
<path d="M102.936 51.9845C102.354 51.4026 102.354 50.5296 102.936 49.9477L105.264 47.62C105.846 47.0381 106.719 47.0381 107.301 47.62C107.883 48.2019 107.883 49.0749 107.301 49.6568L105.118 51.9845C104.536 52.5664 103.518 52.5664 102.936 51.9845Z" fill="#5A75FF"/>
<path d="M94.6437 46.4561C93.9163 46.165 93.4799 45.2923 93.9163 44.5648L95.0801 41.5097C95.3712 40.7823 96.244 40.3459 96.9714 40.7823C97.6988 41.0733 98.1352 41.9461 97.6988 42.6735L96.3895 45.7286C96.2441 46.3107 95.3712 46.7471 94.6437 46.4561Z" fill="#5A75FF"/>
<path d="M84.7512 44.4195C83.8782 44.4195 83.2963 43.8376 83.2963 42.9647V39.7642C83.2963 38.8912 83.8782 38.3093 84.7512 38.3093C85.6241 38.3093 86.206 38.8912 86.206 39.7642V42.9648C86.2058 43.8376 85.6239 44.4195 84.7512 44.4195Z" fill="#5A75FF"/>
<path d="M72.9672 45.5833L71.6578 42.5282C71.3667 41.8008 71.6578 40.928 72.3852 40.6369C73.1127 40.3459 73.9855 40.6369 74.2765 41.3644L75.5859 44.4195C75.8769 45.1469 75.5859 46.0197 74.8584 46.3107C74.131 46.7471 73.258 46.3107 72.9672 45.5833Z" fill="#5A75FF"/>
<path d="M64.384 51.9845L62.0563 49.6568C61.4744 49.0749 61.4744 48.2019 62.0563 47.62C62.6382 47.0381 63.5112 47.0381 64.0931 47.62L66.4208 49.9477C67.0027 50.5296 67.0027 51.4026 66.4208 51.9845C65.9842 52.5664 64.9659 52.5664 64.384 51.9845Z" fill="#5A75FF"/>
<path d="M59.0011 61.1495L55.946 59.8402C55.2185 59.5491 54.7822 58.6764 55.2185 57.9489C55.5096 57.2215 56.3824 56.7851 57.1098 57.2215L60.1649 58.5308C60.8924 58.8219 61.3288 59.6947 60.8924 60.4221C60.6013 61.1495 59.7285 61.4404 59.0011 61.1495Z" fill="#5A75FF"/>
<path d="M84.7512 59.6948C83.4419 59.6948 82.4236 60.8587 82.4236 62.168L83.4419 74.9704C83.4419 75.6978 84.0238 76.1342 84.7512 76.1342C85.4787 76.1342 86.0606 75.5523 86.0606 74.9704L87.0789 62.168C87.0789 60.8587 86.0606 59.6948 84.7512 59.6948Z" fill="white"/>
<path d="M84.7512 80.7897C85.5547 80.7897 86.206 80.1383 86.206 79.3348C86.206 78.5313 85.5547 77.8799 84.7512 77.8799C83.9476 77.8799 83.2963 78.5313 83.2963 79.3348C83.2963 80.1383 83.9476 80.7897 84.7512 80.7897Z" fill="white"/>
</g>
<path d="M38.3687 69.8862L84.0206 81.4326L129.672 69.8862L84.0206 62.6033L38.3687 69.8862Z" fill="white"/>
<path d="M84.0207 83.2089C83.843 83.2089 83.6654 83.2089 83.6654 83.2089L37.836 71.485C36.9478 71.3074 36.4149 70.5968 36.4149 69.7086C36.4149 68.8204 37.1254 68.1099 37.836 68.1099L83.4879 60.8269C83.6656 60.8269 83.8433 60.8269 84.0207 60.8269L129.673 68.1099C130.561 68.2876 131.094 68.9981 131.094 69.7086C131.094 70.5968 130.561 71.3074 129.673 71.485L84.0207 83.0312C84.3759 83.2089 84.1984 83.2089 84.0207 83.2089ZM47.0728 70.2417L84.0207 79.6562L120.969 70.2417L84.0207 64.3798L47.0728 70.2417Z" fill="#36363E"/>
<path d="M72.2966 68.4654C73.7177 69.1759 74.6059 70.7747 74.6059 72.3734V82.4985H93.435V72.3734C93.435 70.7747 94.3232 69.3536 95.7442 68.4654C103.205 64.3799 108.356 56.3864 108.356 47.1494C108.356 32.7611 95.9219 21.2148 81.1783 22.9912C69.8099 24.2346 60.7505 33.4716 59.6846 44.8401C58.7964 54.9654 64.1254 63.8471 72.2966 68.4654Z" fill="white"/>
<path d="M93.4352 84.2747H74.6061C73.5402 84.2747 72.8297 83.5642 72.8297 82.4983V72.3732C72.8297 71.485 72.2969 70.5968 71.4086 70.064C62.3492 65.0903 57.0204 54.9652 58.0861 44.6624C59.152 32.4058 68.9217 22.4582 81.1783 21.2148C82.2442 21.0371 83.1322 21.0371 84.1981 21.0371C98.5864 21.0371 110.31 32.7609 110.31 47.1492C110.31 56.7414 105.159 65.4454 96.8099 70.064C95.9217 70.5968 95.3889 71.485 95.3889 72.3732V82.4983C95.2117 83.3865 94.5011 84.2747 93.4352 84.2747ZM76.3823 80.7221H91.6588V72.3732C91.6588 70.064 92.9022 68.1101 94.8563 66.8667C102.139 62.9587 106.58 55.3206 106.58 47.1494C106.58 34.7151 96.455 24.59 84.0207 24.59C83.1325 24.59 82.2442 24.59 81.3563 24.7677C70.8758 26.011 62.3495 34.5376 61.4613 45.0178C60.573 54.0772 65.1916 62.6035 73.0074 67.0444C74.9613 68.1103 76.2049 70.2419 76.2049 72.5509V80.7221H76.3823Z" fill="#36363E"/>
<path d="M84.0206 121.222L38.3687 109.676V69.886L84.0206 81.4324V121.222Z" fill="white"/>
<path d="M84.0207 122.999C83.843 122.999 83.6653 122.999 83.6653 122.999L37.836 111.453C37.1254 111.275 36.4149 110.565 36.4149 109.676V69.8863C36.4149 69.3535 36.5926 68.8204 37.1254 68.4653C37.4808 68.1099 38.1914 67.9324 38.7242 68.1099L84.3761 79.656C85.0866 79.8337 85.7972 80.5442 85.7972 81.4325V121.222C85.7972 121.755 85.6195 122.288 85.0866 122.644C84.7313 122.999 84.3759 122.999 84.0207 122.999ZM40.1452 108.255L82.2445 119.091V82.8537L40.1452 72.1956V108.255Z" fill="#36363E"/>
<path d="M45.4742 104.17V78.9456L76.9154 86.939V112.163L45.4742 104.17Z" fill="#FF5468"/>
<path d="M84.0206 121.222L129.673 109.676V69.886L84.0206 81.4324V121.222Z" fill="white"/>
<path d="M84.0206 122.999C83.6652 122.999 83.31 122.821 82.9547 122.644C82.5993 122.288 82.2441 121.755 82.2441 121.223V81.4326C82.2441 80.5443 82.777 79.8338 83.6652 79.6561L129.317 68.11C129.85 67.9323 130.383 68.11 130.916 68.4654C131.271 68.8207 131.626 69.3536 131.626 69.8864V109.676C131.626 110.565 131.094 111.275 130.205 111.453L84.5534 122.999C84.3757 122.999 84.1983 122.999 84.0206 122.999ZM85.7968 82.8536V119.091L127.896 108.433V72.0182L85.7968 82.8536Z" fill="#36363E"/>
<path d="M91.126 86.939L122.567 78.9456V104.17L91.126 112.163V86.939Z" fill="#5A75FF"/>
<path d="M93.4352 92.9785L139.087 81.4324L129.673 69.886L84.0206 81.4324L93.4352 92.9785Z" fill="#E3E3EA"/>
<path d="M93.435 94.755C92.9022 94.755 92.3691 94.5773 92.014 94.0445L82.5994 82.4983C82.244 81.9655 82.0666 81.4324 82.244 80.8996C82.4217 80.3668 82.9546 79.8337 83.4874 79.6562L129.139 68.1101C129.85 67.9324 130.56 68.1101 130.916 68.6429L140.33 80.1891C140.686 80.7219 140.863 81.255 140.686 81.7878C140.508 82.3206 139.975 82.8537 139.442 83.0312L93.7904 94.5773C93.7904 94.755 93.6127 94.755 93.435 94.755ZM87.218 82.4983L94.1458 91.0247L136.067 80.3668L129.14 71.8404L87.218 82.4983Z" fill="#36363E"/>
<path d="M74.6061 92.9785L28.9542 81.4324L38.3688 69.886L84.0207 81.4324L74.6061 92.9785Z" fill="#E3E3EA"/>
<path d="M74.606 94.755C74.4283 94.755 74.2506 94.755 74.2506 94.755L28.599 83.2089C28.0661 83.0312 27.5331 82.6761 27.3556 81.9655C27.1779 81.4327 27.3556 80.7222 27.711 80.3668L37.1255 68.8207C37.4809 68.2878 38.1914 68.1101 38.902 68.2878L84.5539 79.834C85.0867 80.0117 85.6198 80.3668 85.7972 81.0773C85.9749 81.6102 85.7972 82.3207 85.4419 82.6761L76.0273 94.2222C75.6717 94.5776 75.1389 94.755 74.606 94.755ZM32.1516 80.3668L74.0732 91.0247L81.001 82.4984L39.0792 71.8405L32.1516 80.3668Z" fill="#36363E"/>
<path d="M84.0205 66.3335C94.4195 66.3335 102.85 57.9034 102.85 47.5044C102.85 37.1054 94.4195 28.6753 84.0205 28.6753C73.6215 28.6753 65.1914 37.1054 65.1914 47.5044C65.1914 57.9034 73.6215 66.3335 84.0205 66.3335Z" fill="#FFB913"/>
<path d="M121.324 49.2806H117.238C116.172 49.2806 115.462 48.5701 115.462 47.5042C115.462 46.4383 116.172 45.7278 117.238 45.7278H121.324C122.389 45.7278 123.1 46.4383 123.1 47.5042C123.1 48.5701 122.212 49.2806 121.324 49.2806Z" fill="#36363E"/>
<path d="M50.8029 49.2806H46.7175C45.6516 49.2806 44.941 48.5701 44.941 47.5042C44.941 46.4383 45.6516 45.7278 46.7175 45.7278H50.8029C51.8689 45.7278 52.5794 46.4383 52.5794 47.5042C52.5794 48.5701 51.6912 49.2806 50.8029 49.2806Z" fill="#36363E"/>
<path d="M113.152 35.6028C112.797 34.7146 113.152 33.6489 114.041 33.2935L117.771 31.6948C118.659 31.3394 119.725 31.6948 120.08 32.583C120.436 33.4712 120.08 34.5369 119.192 34.8923L115.462 36.491C114.573 36.8462 113.508 36.491 113.152 35.6028Z" fill="#36363E"/>
<path d="M106.225 25.3002C105.514 24.5897 105.514 23.5238 106.225 22.8132L109.067 19.9711C109.777 19.2606 110.843 19.2606 111.554 19.9711C112.264 20.6817 112.264 21.7476 111.554 22.4581L108.889 25.3002C108.179 26.0107 106.935 26.0107 106.225 25.3002Z" fill="#36363E"/>
<path d="M96.0996 18.5501C95.2114 18.1947 94.6785 17.129 95.2114 16.2408L96.6324 12.5105C96.9878 11.6223 98.0535 11.0894 98.9417 11.6223C99.8299 11.9776 100.363 13.0433 99.8299 13.9315L98.2312 17.6619C98.0537 18.3726 96.9878 18.9055 96.0996 18.5501Z" fill="#36363E"/>
<path d="M84.0206 16.0632C82.9547 16.0632 82.2441 15.3527 82.2441 14.2868V10.379C82.2441 9.31307 82.9547 8.60254 84.0206 8.60254C85.0865 8.60254 85.797 9.31307 85.797 10.379V14.287C85.7968 15.3527 85.0863 16.0632 84.0206 16.0632Z" fill="#36363E"/>
<path d="M69.6323 17.4844L68.0335 13.7541C67.6781 12.8658 68.0335 11.8002 68.9217 11.4448C69.81 11.0894 70.8756 11.4448 71.231 12.333L72.8298 16.0633C73.1851 16.9515 72.8298 18.0172 71.9415 18.3726C71.0533 18.9054 69.9874 18.3726 69.6323 17.4844Z" fill="#36363E"/>
<path d="M59.152 25.3002L56.3099 22.4581C55.5993 21.7476 55.5993 20.6817 56.3099 19.9711C57.0204 19.2606 58.0863 19.2606 58.7968 19.9711L61.6389 22.8132C62.3495 23.5238 62.3495 24.5897 61.6389 25.3002C61.1059 26.0107 59.8625 26.0107 59.152 25.3002Z" fill="#36363E"/>
<path d="M52.5794 36.491L48.8491 34.8923C47.9609 34.5369 47.428 33.4712 47.9609 32.583C48.3163 31.6948 49.3819 31.1619 50.2702 31.6948L54.0005 33.2935C54.8887 33.6489 55.4215 34.7146 54.8887 35.6028C54.5333 36.491 53.4676 36.8461 52.5794 36.491Z" fill="#36363E"/>
<path d="M84.0207 34.7146C82.422 34.7146 81.1786 36.1357 81.1786 37.7344L82.422 53.3662C82.422 54.2544 83.1325 54.7873 84.0207 54.7873C84.9089 54.7873 85.6194 54.0768 85.6194 53.3662L86.8628 37.7344C86.8628 36.1357 85.6194 34.7146 84.0207 34.7146Z" fill="white"/>
<path d="M84.0206 60.4718C85.0017 60.4718 85.797 59.6765 85.797 58.6954C85.797 57.7143 85.0017 56.9189 84.0206 56.9189C83.0395 56.9189 82.2441 57.7143 82.2441 58.6954C82.2441 59.6765 83.0395 60.4718 84.0206 60.4718Z" fill="white"/>
<defs>
<filter id="filter0_f" x="0.285889" y="0.309326" width="168.93" height="169.69" filterUnits="userSpaceOnUse" color-interpolation-filters="sRGB">
<feFlood flood-opacity="0" result="BackgroundImageFix"/>
<feBlend mode="normal" in="SourceGraphic" in2="BackgroundImageFix" result="shape"/>
<feGaussianBlur stdDeviation="19" result="effect1_foregroundBlur"/>
</filter>
</defs>
</svg>
