<svg width="163" height="164" viewBox="0 0 163 164" fill="none" xmlns="http://www.w3.org/2000/svg">
<g filter="url(#filter0_f)">
<path d="M114.926 73.9179C114.926 71.0222 112.82 68.7847 110.188 68.5215C111.899 67.6003 112.952 65.7575 112.952 63.6517C112.952 60.6245 110.583 58.1237 107.687 58.1237C107.555 58.1237 107.555 58.1237 107.424 58.1237C107.555 57.7289 107.687 57.3339 107.687 56.8074C107.687 53.7803 105.318 51.2794 102.422 51.2794C101.501 51.2794 100.711 51.5428 99.9217 52.0692C99.6584 49.1736 97.421 46.936 94.657 46.936C91.7614 46.936 89.3923 49.4367 89.3923 52.464C89.3923 55.4913 89.3923 94.7134 89.3923 94.7134C89.3923 97.7406 91.7615 100.241 94.657 100.241C97.421 100.241 99.7902 97.8722 99.9217 94.9767C100.843 95.7665 101.896 96.293 103.08 96.293C105.976 96.293 108.345 93.7923 108.345 90.765C108.345 89.8437 108.082 89.0539 107.687 88.2643C107.95 88.2643 108.082 88.396 108.345 88.396C111.241 88.396 113.61 85.8953 113.61 82.868C113.61 81.2886 112.952 79.8408 111.899 78.7879C113.741 77.8665 114.926 76.1554 114.926 73.9179Z" fill="#5A75FF"/>
<path d="M94.6567 101.689C90.9715 101.689 88.0758 98.662 88.0758 94.8451V52.5955C88.0758 48.7786 91.103 45.7515 94.6567 45.7515C97.4207 45.7515 99.9214 47.5942 100.843 50.3582C101.369 50.2265 101.896 50.0949 102.422 50.0949C106.108 50.0949 109.003 53.122 109.003 56.9389C109.003 56.9389 109.003 56.9389 109.003 57.0706C112.03 57.7287 114.268 60.4927 114.268 63.7832C114.268 65.3626 113.741 66.942 112.688 68.1266C114.794 69.3112 116.111 71.5487 116.111 74.0494C116.111 76.0236 115.321 77.8663 113.873 79.1826C114.531 80.2355 114.926 81.5518 114.926 82.9995C114.926 86.4216 112.557 89.1856 109.53 89.7121C109.661 90.1069 109.661 90.5019 109.661 90.8967C109.661 94.7136 106.634 97.7408 103.08 97.7408C102.291 97.7408 101.501 97.6091 100.711 97.2143C99.7897 99.8465 97.4207 101.689 94.6567 101.689ZM94.6567 48.2521C92.4192 48.2521 90.7081 50.2264 90.7081 52.4639V94.7133C90.7081 97.0825 92.5509 98.925 94.6567 98.925C96.7626 98.925 98.4737 97.214 98.6053 94.9764C98.6053 94.45 99.0001 94.0552 99.3951 93.7918C99.7901 93.5285 100.316 93.6602 100.711 93.9235C102.422 95.3712 104.528 95.1081 105.845 93.6602C106.634 92.8704 107.029 91.8175 107.029 90.633C107.029 89.9749 106.897 89.4484 106.503 88.6588C106.239 88.264 106.371 87.7375 106.634 87.3426C106.898 86.9478 107.424 86.6844 107.819 86.8161C107.951 86.8161 108.082 86.8161 108.345 86.9478C110.583 86.9478 112.294 85.105 112.294 82.736C112.294 81.5514 111.899 80.4985 110.978 79.7089C110.846 79.4457 110.714 79.0507 110.714 78.6559C110.714 78.2611 110.978 77.8661 111.373 77.7347C112.689 76.9449 113.61 75.4971 113.61 74.0494C113.61 71.9435 112.031 70.1008 110.056 69.8376C109.53 69.8376 109.004 69.3112 108.872 68.7847C108.74 68.2582 109.004 67.6001 109.53 67.337C110.846 66.5472 111.636 65.2311 111.636 63.6517C111.636 61.2825 109.925 59.44 107.819 59.44C107.687 59.44 107.556 59.44 107.556 59.44C107.161 59.44 106.766 59.3083 106.503 58.9135C106.239 58.6502 106.108 58.1237 106.239 57.7289L106.371 57.3341C106.503 57.0708 106.503 56.8076 106.503 56.676C106.503 54.3068 104.66 52.4642 102.554 52.4642C102.028 52.4642 101.369 52.5959 100.711 52.9907C100.317 53.254 99.7901 53.254 99.3951 52.9907C99.0001 52.7274 98.737 52.3326 98.737 51.9378C98.342 49.9632 96.6309 48.2521 94.6567 48.2521Z" fill="#5A75FF"/>
<path d="M100.053 66.8106C99.2633 66.8106 98.7368 66.2841 98.7368 65.4943C98.7368 64.7046 99.2633 64.1781 100.053 64.1781C101.501 64.1781 102.949 63.52 104.133 62.3354C105.318 61.1508 105.976 59.5714 105.976 58.1236C105.976 57.3338 106.502 56.8074 107.292 56.8074C108.082 56.8074 108.608 57.3338 108.608 58.1236C108.608 60.2295 107.687 62.467 105.976 64.1781C104.396 65.8893 102.291 66.8106 100.053 66.8106Z" fill="#5A75FF"/>
<path d="M99.9214 96.4244C99.1316 96.4244 98.6052 95.8979 98.6052 95.1081C98.6052 93.1339 96.631 91.2912 94.6566 91.2912C93.8668 91.2912 93.3403 90.7647 93.3403 89.9749C93.3403 89.1852 93.8668 88.6587 94.6566 88.6587C98.0787 88.6587 101.238 91.6858 101.238 95.108C101.238 95.8979 100.58 96.4244 99.9214 96.4244Z" fill="#5A75FF"/>
<path d="M103.738 86.9482C102.949 86.9482 102.422 86.4217 102.422 85.6319C102.422 81.1569 107.555 77.6033 112.03 77.6033C112.82 77.6033 113.346 78.1297 113.346 78.9195C113.346 79.7093 112.82 80.2358 112.03 80.2358C108.871 80.2358 105.054 82.7365 105.054 85.6321C105.055 86.2901 104.528 86.9482 103.738 86.9482Z" fill="#5A75FF"/>
<path d="M63.9896 73.3914C63.9896 76.2871 66.0955 78.5246 68.7278 78.7877C67.0168 79.709 65.9638 81.5517 65.9638 83.6576C65.9638 86.6848 68.333 89.1856 71.2285 89.1856C71.3602 89.1856 71.3602 89.1856 71.4918 89.1856C71.3602 89.5804 71.2285 89.9754 71.2285 90.5019C71.2285 93.529 73.5977 96.0299 76.4932 96.0299C77.4145 96.0299 78.2042 95.7665 78.9939 95.2401C79.2572 98.1357 81.4945 100.373 84.2585 100.373C87.1542 100.373 89.5232 97.8726 89.5232 94.8453C89.5232 91.8179 89.5232 52.5959 89.5232 52.5959C89.5232 49.5687 87.154 47.0679 84.2585 47.0679C81.4945 47.0679 79.1254 49.4371 78.9939 52.3325C78.0726 51.5428 77.0197 51.0163 75.8351 51.0163C72.9394 51.0163 70.5704 53.517 70.5704 56.5443C70.5704 57.4656 70.8337 58.2553 71.2285 59.045C70.9652 59.045 70.8337 58.9133 70.5704 58.9133C67.6747 58.9133 65.3057 61.414 65.3057 64.4413C65.3057 66.0207 65.9638 67.4684 67.0168 68.5214C65.1742 69.4428 63.9896 71.2855 63.9896 73.3914Z" fill="#FFB913"/>
<path d="M84.2589 101.689C81.4949 101.689 78.9942 99.8465 78.0728 97.0826C77.5463 97.2143 77.0198 97.346 76.4934 97.346C72.8081 97.346 69.9124 94.3188 69.9124 90.5019C69.9124 90.5019 69.9124 90.5019 69.9124 90.3702C66.8853 89.7121 64.6478 86.9481 64.6478 83.6576C64.6478 82.0782 65.1742 80.4988 66.2272 79.3142C64.1213 78.1296 62.8051 75.8921 62.8051 73.3914C62.8051 71.4172 63.5948 69.5745 65.0426 68.2582C64.3845 67.2053 63.9896 65.8891 63.9896 64.4413C63.9896 61.0192 66.3588 58.2552 69.386 57.7287C69.2543 57.3339 69.2543 56.9389 69.2543 56.5441C69.2543 52.7272 72.2815 49.7001 75.8352 49.7001C76.625 49.7001 77.4147 49.8317 78.2044 50.2265C79.1257 47.5942 81.4949 45.7515 84.3906 45.7515C88.0758 45.7515 90.9715 48.7786 90.9715 52.5955V94.8449C90.8398 98.6619 87.9442 101.689 84.2589 101.689ZM78.9942 93.9237C79.2575 93.9237 79.389 93.9237 79.6523 94.0553C80.0472 94.3186 80.3105 94.7134 80.3105 95.1083C80.4421 97.3458 82.1532 98.9252 84.2591 98.9252C86.4966 98.9252 88.2077 96.951 88.2077 94.7134V52.5955C88.2077 50.2264 86.3649 48.3838 84.2591 48.3838C82.1532 48.3838 80.4421 50.0949 80.3105 52.3324C80.3105 52.8589 79.9157 53.2537 79.5207 53.517C79.1259 53.7803 78.5994 53.6486 78.2044 53.3853C77.4147 52.7272 76.625 52.4641 75.8352 52.4641C73.5977 52.4641 71.8867 54.4383 71.8867 56.6758C71.8867 57.3339 72.0183 57.8604 72.4131 58.65C72.6764 59.0448 72.5448 59.5713 72.2815 59.9663C72.0181 60.3611 71.4917 60.6244 71.0969 60.4927C70.9652 60.4927 70.8336 60.4927 70.5704 60.3611C69.5175 60.3611 68.5962 60.7559 67.8064 61.5457C67.0166 62.3354 66.6218 63.3884 66.6218 64.5728C66.6218 65.7574 67.0166 66.8103 67.9381 67.5999C68.2014 67.8633 68.3329 68.2581 68.3329 68.6529C68.3329 69.0477 68.0696 69.4427 67.6747 69.5742C66.3585 70.3639 65.4372 71.8117 65.4372 73.2594C65.4372 75.3653 67.0166 77.208 68.9908 77.4712C69.5173 77.4712 70.0438 77.9976 70.1754 78.5241C70.3071 79.0506 70.0438 79.7087 69.5173 79.9718C68.0696 80.7616 67.2798 82.0777 67.2798 83.6571C67.2798 86.0263 68.9908 87.8689 71.0967 87.8689C71.2284 87.8689 71.36 87.8689 71.36 87.8689C71.7548 87.8689 72.1498 88.0005 72.413 88.3953C72.6763 88.6586 72.8078 89.1851 72.6763 89.5799L72.5446 89.9747C72.5446 90.1064 72.5446 90.3695 72.5446 90.5012C72.5446 92.8704 74.3873 94.7129 76.4932 94.7129C77.0197 94.7129 77.6778 94.5813 78.3359 94.1865C78.5992 94.0553 78.8626 93.9237 78.9942 93.9237Z" fill="#5A75FF"/>
<path d="M84.2588 58.65C80.8367 58.65 77.8096 55.6229 77.8096 52.2008C77.8096 51.411 78.336 50.8845 79.1258 50.8845C79.9156 50.8845 80.4421 51.411 80.4421 52.2008C80.4421 54.175 82.4163 56.0177 84.3907 56.0177C85.1805 56.0177 85.7069 56.5442 85.7069 57.334C85.5751 57.9919 84.917 58.65 84.2588 58.65Z" fill="#5A75FF"/>
<path d="M66.8853 69.8375C66.0956 69.8375 65.5691 69.3111 65.5691 68.5213C65.5691 67.7315 66.0956 67.205 66.8853 67.205C68.4647 67.205 70.3075 66.5469 71.6236 65.494C72.4133 64.8358 73.8611 63.5197 73.8611 61.8087C73.8611 61.0189 74.3875 60.4924 75.1773 60.4924C75.9671 60.4924 76.4936 61.0189 76.4936 61.8087C76.4936 63.9146 75.309 66.0204 73.2031 67.5998C71.3604 69.0479 68.9912 69.8375 66.8853 69.8375Z" fill="#5A75FF"/>
<path d="M89.5235 83.526C88.7337 83.526 88.2073 82.9995 88.2073 82.2098C88.2073 77.8664 91.7609 74.3127 96.1043 74.3127C96.8941 74.3127 97.4205 74.8392 97.4205 75.629C97.4205 76.4188 96.8941 76.9453 96.1043 76.9453C93.2086 76.9453 90.8396 79.3144 90.8396 82.2099C90.8398 82.9995 90.3133 83.526 89.5235 83.526Z" fill="#5A75FF"/>
<path d="M82.6795 71.5487C81.8898 71.5487 81.3633 71.0222 81.3633 70.2325C81.3633 65.8891 84.9169 62.3354 89.2603 62.3354C90.0501 62.3354 90.5765 62.8619 90.5765 63.6517C90.5765 64.4415 90.0501 64.968 89.2603 64.968C86.3646 64.968 83.9956 67.3371 83.9956 70.2326C83.9958 71.0222 83.4692 71.5487 82.6795 71.5487Z" fill="#5A75FF"/>
<path d="M84.3906 84.3157C84.3906 73.6547 75.5721 65.2311 64.7794 65.7575C55.6978 66.1523 48.064 73.3914 47.1425 82.6047C46.4844 89.7121 49.7749 96.0297 55.0395 99.7149C56.4873 100.768 57.4087 102.479 57.4087 104.19V116.825H74.1242V104.19C74.1242 102.479 74.914 100.768 76.3617 99.7149C81.1001 96.293 84.3906 90.6333 84.3906 84.3157Z" fill="white"/>
<path d="M73.9927 118.01H57.4088C56.6191 118.01 56.0926 117.483 56.0926 116.694V104.058C56.0926 102.611 55.4345 101.426 54.2499 100.636C48.3271 96.5561 45.1683 89.4487 45.8264 82.3413C46.7477 72.6016 54.908 64.836 64.6477 64.3096C76.0985 63.7831 85.7066 72.9964 85.7066 84.3155C85.7066 90.8964 82.5478 96.9509 77.1515 100.768C76.0985 101.558 75.4404 102.742 75.4404 104.19V116.825C75.3089 117.352 74.7823 118.01 73.9927 118.01ZM58.7249 115.377H72.8081V104.058C72.8081 101.821 73.861 99.7149 75.7037 98.5303C80.1788 95.2398 83.0743 89.9752 83.0743 84.3155C83.0743 74.4441 74.7823 66.5471 64.9109 67.0736C56.3557 67.4684 49.38 74.181 48.4586 82.6045C47.8004 88.9221 50.5644 94.8449 55.8291 98.5303C57.6718 99.8466 58.7248 101.952 58.7248 104.19C58.7249 104.19 58.7249 115.377 58.7249 115.377Z" fill="#5A75FF"/>
<path d="M65.7008 70.2327C65.4374 70.2327 65.1743 70.2327 65.0426 70.2327C58.3301 70.496 52.4072 76.0238 51.7491 82.8681C51.2227 88.0012 53.4602 92.7394 57.6719 95.7666C60.4359 97.6093 62.0153 100.768 62.0153 104.059V106.954H69.3859V104.058C69.3859 100.768 70.9653 97.6091 73.5976 95.7664C77.4145 93.1341 79.6521 88.7907 79.6521 84.3156C79.6524 76.5503 73.3346 70.2327 65.7008 70.2327Z" fill="#FFB913"/>
<path d="M122.297 72.3384H119.664V75.1024H122.297V72.3384Z" fill="#5A75FF"/>
<path d="M116.342 59.7856L118.622 58.4697L117.24 56.0758L114.96 57.3917L116.342 59.7856Z" fill="#5A75FF"/>
<path d="M105.76 48.212L107.077 45.9331L104.684 44.5504L103.367 46.8293L105.76 48.212Z" fill="#5A75FF"/>
<path d="M90.8398 103.927H88.0758V106.559H90.8398V103.927Z" fill="#5A75FF"/>
<path d="M90.8398 40.75H88.0758V43.3823H90.8398V40.75Z" fill="#5A75FF"/>
<path d="M104.717 102.855L107.111 101.474L105.795 99.1938L103.401 100.575L104.717 102.855Z" fill="#5A75FF"/>
<path d="M73.0978 48.1183L75.4917 46.7366L74.1758 44.4567L71.7819 45.8384L73.0978 48.1183Z" fill="#5A75FF"/>
<path d="M117.246 91.2812L118.629 88.8877L116.349 87.5713L114.967 89.9648L117.246 91.2812Z" fill="#5A75FF"/>
<path d="M62.52 59.753L63.9017 57.3591L61.6219 56.0432L60.2401 58.4371L62.52 59.753Z" fill="#5A75FF"/>
<path d="M43.5889 81.9463H40.9565V84.7103H43.5889V81.9463Z" fill="#5A75FF"/>
<path d="M44.9565 96.7637L47.2361 95.4475L45.8541 93.0539L43.5745 94.3701L44.9565 96.7637Z" fill="#5A75FF"/>
<path d="M53.3859 64.8571L55.7798 63.4753L54.4639 61.1955L52.07 62.5772L53.3859 64.8571Z" fill="#5A75FF"/>
<path d="M45.8264 73.4559L47.2081 71.062L44.9283 69.7461L43.5465 72.14L45.8264 73.4559Z" fill="#5A75FF"/>
<path d="M61.3573 116.694V117.878C61.3573 120.247 63.3315 122.222 65.7007 122.222C68.0699 122.222 70.0441 120.247 70.0441 117.878V116.694H61.3573Z" fill="white"/>
<path d="M70.0441 115.377H61.3573C60.5675 115.377 60.041 115.904 60.041 116.694V117.878C60.041 121.037 62.5417 123.538 65.7007 123.538C68.8596 123.538 71.3603 121.037 71.3603 117.878V116.694C71.3603 115.904 70.7022 115.377 70.0441 115.377ZM65.7007 120.905C64.1213 120.905 62.805 119.589 62.6735 118.01H68.728C68.5963 119.589 67.2801 120.905 65.7007 120.905Z" fill="#5A75FF"/>
<path d="M73.5979 84.0522C73.5979 84.0522 73.5979 84.1839 73.5979 84.0522C75.4406 86.0265 73.8612 89.1854 71.3604 89.1854H68.5964V86.4214C68.4647 83.7891 71.6235 82.2097 73.5979 84.0522Z" fill="white"/>
<path d="M71.2287 90.5016H68.4647C67.6749 90.5016 67.1484 89.9751 67.1484 89.1853V86.4213C67.1484 83.9207 69.1226 81.9463 71.6235 81.9463C72.6764 81.9463 73.7294 82.3411 74.5192 83.1309L74.6508 83.2625C75.8354 84.4471 76.0986 86.1582 75.4406 87.8693C74.6508 89.4487 73.0714 90.5016 71.2287 90.5016ZM69.7809 87.8693H71.2287C72.15 87.8693 72.6764 87.2111 72.9397 86.6847C73.0714 86.4213 73.3346 85.6317 72.6764 84.9736C72.2816 84.5788 72.0183 84.4471 71.6235 84.4471C70.7022 84.4471 69.7808 85.1053 69.7808 86.2899V87.8693H69.7809Z" fill="#5A75FF"/>
<path d="M57.8038 84.0522C57.8038 84.0522 57.8038 84.1839 57.8038 84.0522C55.961 86.0265 57.5404 89.1854 60.0413 89.1854H62.8053V86.4214C62.8053 83.7891 59.6463 82.2097 57.8038 84.0522Z" fill="white"/>
<path d="M62.8053 90.5016H60.0413C58.3302 90.5016 56.6191 89.4487 55.9612 87.7376C55.3031 86.1582 55.5664 84.4471 56.751 83.2625L56.8826 83.1309C57.6724 82.3411 58.7254 81.9463 59.7783 81.9463C62.279 81.9463 64.2534 83.9205 64.2534 86.4213V89.1853C64.1214 89.8435 63.5949 90.5016 62.8053 90.5016ZM59.778 84.5788C59.3831 84.5788 59.1198 84.7105 58.725 84.9736C58.0669 85.6317 58.3302 86.4213 58.3302 86.6847C58.5935 87.2111 59.12 87.8693 60.0413 87.8693H61.489V86.4215C61.489 85.2369 60.5677 84.5788 59.778 84.5788Z" fill="#5A75FF"/>
<path d="M68.4647 108.27C67.6749 108.27 67.1484 107.744 67.1484 106.954V90.5017H64.1213V106.954C64.1213 107.744 63.5948 108.27 62.805 108.27C62.0152 108.27 61.4888 107.744 61.4888 106.954V89.1856C61.4888 88.3959 62.0152 87.8694 62.805 87.8694H68.4647C69.2545 87.8694 69.7809 88.3959 69.7809 89.1856V106.954C69.7809 107.612 69.2545 108.27 68.4647 108.27Z" fill="#5A75FF"/>
<path d="M76.4933 108.27H54.7763C53.9866 108.27 53.4601 107.744 53.4601 106.954C53.4601 106.164 53.9866 105.638 54.7763 105.638H76.4933C77.2831 105.638 77.8096 106.164 77.8096 106.954C77.8096 107.612 77.2831 108.27 76.4933 108.27Z" fill="#5A75FF"/>
<path d="M76.4933 113.14H54.7763C53.9866 113.14 53.4601 112.614 53.4601 111.824C53.4601 111.034 53.9866 110.508 54.7763 110.508H76.4933C77.2831 110.508 77.8096 111.034 77.8096 111.824C77.8096 112.614 77.2831 113.14 76.4933 113.14Z" fill="#5A75FF"/>
</g>
<path d="M124.089 54.2164C124.089 50.3639 121.287 47.3869 117.785 47.0368C120.062 45.8111 121.463 43.3594 121.463 40.5576C121.463 36.5301 118.311 33.2028 114.458 33.2028C114.283 33.2028 114.283 33.2028 114.108 33.2028C114.283 32.6776 114.458 32.1521 114.458 31.4516C114.458 27.4241 111.306 24.0968 107.454 24.0968C106.228 24.0968 105.177 24.4472 104.127 25.1476C103.776 21.2951 100.8 18.3181 97.1223 18.3181C93.2697 18.3181 90.1178 21.6452 90.1178 25.6729C90.1178 29.7006 90.1178 81.8841 90.1178 81.8841C90.1178 85.9116 93.2699 89.2389 97.1223 89.2389C100.8 89.2389 103.952 86.0868 104.127 82.2344C105.352 83.2852 106.753 83.9856 108.329 83.9856C112.182 83.9856 115.334 80.6586 115.334 76.6309C115.334 75.4051 114.983 74.3544 114.458 73.3038C114.809 73.3038 114.983 73.479 115.334 73.479C119.186 73.479 122.338 70.1519 122.338 66.1242C122.338 64.0229 121.463 62.0967 120.062 60.6958C122.513 59.4699 124.089 57.1934 124.089 54.2164Z" fill="#5A75FF"/>
<path d="M97.1219 91.1652C92.2188 91.1652 88.3662 87.1377 88.3662 82.0594V25.848C88.3662 20.7697 92.3937 16.7422 97.1219 16.7422C100.799 16.7422 104.126 19.1939 105.352 22.8712C106.053 22.6961 106.753 22.5209 107.454 22.5209C112.357 22.5209 116.209 26.5484 116.209 31.6267C116.209 31.6267 116.209 31.6267 116.209 31.8019C120.237 32.6775 123.214 36.3549 123.214 40.7327C123.214 42.834 122.513 44.9354 121.112 46.5114C123.914 48.0875 125.665 51.0644 125.665 54.3915C125.665 57.0181 124.615 59.4698 122.688 61.221C123.564 62.6219 124.089 64.3731 124.089 66.2993C124.089 70.8523 120.937 74.5297 116.91 75.2301C117.085 75.7554 117.085 76.2809 117.085 76.8062C117.085 81.8845 113.057 85.912 108.329 85.912C107.278 85.912 106.228 85.7368 105.177 85.2115C103.951 88.7135 100.799 91.1652 97.1219 91.1652ZM97.1219 20.0692C94.1449 20.0692 91.8684 22.6959 91.8684 25.6728V81.884C91.8684 85.0361 94.3201 87.4876 97.1219 87.4876C99.9237 87.4876 102.2 85.2111 102.375 82.2341C102.375 81.5337 102.901 81.0084 103.426 80.6581C103.952 80.3077 104.652 80.4829 105.177 80.8332C107.454 82.7594 110.256 82.4093 112.007 80.4829C113.058 79.4321 113.583 78.0312 113.583 76.4554C113.583 75.5798 113.408 74.8793 112.882 73.8288C112.532 73.3035 112.707 72.603 113.058 72.0775C113.408 71.5523 114.108 71.2019 114.634 71.3771C114.809 71.3771 114.984 71.3771 115.334 71.5523C118.311 71.5523 120.588 69.1006 120.588 65.9487C120.588 64.3727 120.062 62.9718 118.836 61.9212C118.661 61.5711 118.486 61.0456 118.486 60.5203C118.486 59.995 118.836 59.4695 119.362 59.2946C121.113 58.2438 122.339 56.3177 122.339 54.3915C122.339 51.5897 120.237 49.138 117.611 48.7879C116.91 48.7879 116.21 48.0875 116.035 47.387C115.859 46.6866 116.21 45.811 116.91 45.4609C118.661 44.4101 119.712 42.6591 119.712 40.5578C119.712 37.4056 117.435 34.9542 114.634 34.9542C114.459 34.9542 114.283 34.9542 114.283 34.9542C113.758 34.9542 113.233 34.779 112.882 34.2538C112.532 33.9034 112.357 33.203 112.532 32.6777L112.707 32.1524C112.882 31.8021 112.882 31.452 112.882 31.2768C112.882 28.1247 110.431 25.6733 107.629 25.6733C106.929 25.6733 106.053 25.8484 105.177 26.3737C104.652 26.724 103.952 26.724 103.426 26.3737C102.901 26.0234 102.55 25.4981 102.55 24.9728C102.025 22.3457 99.7485 20.0692 97.1219 20.0692Z" fill="#36363E"/>
<path d="M104.302 44.7603C103.251 44.7603 102.55 44.0599 102.55 43.0091C102.55 41.9583 103.251 41.2579 104.302 41.2579C106.228 41.2579 108.154 40.3823 109.73 38.8062C111.306 37.2301 112.182 35.1288 112.182 33.2026C112.182 32.1519 112.882 31.4514 113.933 31.4514C114.984 31.4514 115.684 32.1519 115.684 33.2026C115.684 36.0044 114.458 38.9814 112.182 41.2579C110.08 43.5346 107.278 44.7603 104.302 44.7603Z" fill="#36363E"/>
<path d="M104.126 84.1606C103.075 84.1606 102.375 83.4601 102.375 82.4093C102.375 79.7827 99.7484 77.3311 97.1216 77.3311C96.0708 77.3311 95.3704 76.6306 95.3704 75.5798C95.3704 74.5291 96.0708 73.8286 97.1216 73.8286C101.675 73.8286 105.877 77.8561 105.877 82.4091C105.877 83.4601 105.002 84.1606 104.126 84.1606Z" fill="#36363E"/>
<path d="M109.205 71.5524C108.154 71.5524 107.453 70.852 107.453 69.8012C107.453 63.8473 114.283 59.1194 120.237 59.1194C121.287 59.1194 121.988 59.8198 121.988 60.8706C121.988 61.9214 121.287 62.6218 120.237 62.6218C116.034 62.6218 110.956 65.9489 110.956 69.8014C110.956 70.6768 110.255 71.5524 109.205 71.5524Z" fill="#36363E"/>
<path d="M56.3204 53.5159C56.3204 57.3684 59.1222 60.3454 62.6244 60.6955C60.3479 61.9212 58.947 64.3729 58.947 67.1746C58.947 71.2021 62.0992 74.5294 65.9515 74.5294C66.1267 74.5294 66.1267 74.5294 66.3018 74.5294C66.1267 75.0547 65.9515 75.5802 65.9515 76.2807C65.9515 80.3082 69.1036 83.6354 72.9559 83.6354C74.1817 83.6354 75.2324 83.2851 76.283 82.5847C76.6333 86.4372 79.6101 89.4142 83.2874 89.4142C87.14 89.4142 90.2919 86.0871 90.2919 82.0594C90.2919 78.0317 90.2919 25.8482 90.2919 25.8482C90.2919 21.8207 87.1398 18.4934 83.2874 18.4934C79.6101 18.4934 76.4579 21.6455 76.283 25.4979C75.0573 24.4471 73.6564 23.7466 72.0803 23.7466C68.2278 23.7466 65.0759 27.0737 65.0759 31.1014C65.0759 32.3271 65.4262 33.3779 65.9515 34.4285C65.6012 34.4285 65.4262 34.2533 65.0759 34.2533C61.2233 34.2533 58.0714 37.5804 58.0714 41.6081C58.0714 43.7094 58.947 45.6356 60.3479 47.0365C57.8965 48.2624 56.3204 50.7141 56.3204 53.5159Z" fill="#FF5468"/>
<path d="M83.2878 91.1652C79.6104 91.1652 76.2833 88.7135 75.0574 85.0363C74.3569 85.2115 73.6565 85.3867 72.956 85.3867C68.0529 85.3867 64.2004 81.3592 64.2004 76.2809C64.2004 76.2809 64.2004 76.2809 64.2004 76.1057C60.1729 75.2301 57.1959 71.5527 57.1959 67.1749C57.1959 65.0735 57.8964 62.9722 59.2973 61.3962C56.4955 59.8201 54.7443 56.8432 54.7443 53.5161C54.7443 50.8895 55.795 48.4378 57.7212 46.6866C56.8456 45.2857 56.3203 43.5345 56.3203 41.6083C56.3203 37.0553 59.4724 33.3779 63.4999 32.6775C63.3248 32.1522 63.3248 31.6267 63.3248 31.1014C63.3248 26.0231 67.3523 21.9956 72.0804 21.9956C73.1312 21.9956 74.1818 22.1708 75.2326 22.6961C76.4583 19.1939 79.6104 16.7422 83.4629 16.7422C88.3661 16.7422 92.2186 20.7697 92.2186 25.848V82.0592C92.0434 87.1375 88.1909 91.1652 83.2878 91.1652ZM76.2833 80.8334C76.6337 80.8334 76.8086 80.8334 77.1589 81.0086C77.6842 81.3589 78.0346 81.8842 78.0346 82.4095C78.2097 85.3864 80.4862 87.4878 83.288 87.4878C86.265 87.4878 88.5415 84.8612 88.5415 81.8842V25.848C88.5415 22.6959 86.0898 20.2444 83.288 20.2444C80.4862 20.2444 78.2097 22.5209 78.0346 25.4979C78.0346 26.1983 77.5093 26.7236 76.9838 27.0739C76.4585 27.4243 75.7581 27.2491 75.2326 26.8987C74.1818 26.0231 73.1312 25.673 72.0804 25.673C69.1035 25.673 66.827 28.2996 66.827 31.2766C66.827 32.1522 67.0022 32.8526 67.5274 33.9032C67.8778 34.4285 67.7026 35.1289 67.3523 35.6544C67.0019 36.1797 66.3015 36.53 65.7762 36.3549C65.601 36.3549 65.4259 36.3549 65.0758 36.1797C63.6749 36.1797 62.4492 36.705 61.3984 37.7558C60.3476 38.8065 59.8223 40.2074 59.8223 41.7833C59.8223 43.3593 60.3476 44.7602 61.5735 45.8108C61.9239 46.1611 62.0988 46.6864 62.0988 47.2116C62.0988 47.7369 61.7485 48.2624 61.2232 48.4374C59.472 49.4881 58.2463 51.4143 58.2463 53.3405C58.2463 56.1423 60.3476 58.5939 62.9742 58.944C63.6747 58.944 64.3751 59.6445 64.5503 60.3449C64.7254 61.0454 64.3751 61.921 63.6747 62.2711C61.7485 63.3219 60.6977 65.0729 60.6977 67.1742C60.6977 70.3263 62.9742 72.7778 65.776 72.7778C65.9511 72.7778 66.1263 72.7778 66.1263 72.7778C66.6516 72.7778 67.1771 72.9529 67.5272 73.4782C67.8775 73.8285 68.0525 74.529 67.8775 75.0543L67.7024 75.5795C67.7024 75.7547 67.7024 76.1048 67.7024 76.28C67.7024 79.4321 70.154 81.8836 72.9558 81.8836C73.6563 81.8836 74.5319 81.7084 75.4075 81.1831C75.7578 81.0086 76.1082 80.8334 76.2833 80.8334Z" fill="#36363E"/>
<path d="M83.2878 33.9033C78.7348 33.9033 74.7073 29.8758 74.7073 25.3228C74.7073 24.272 75.4077 23.5715 76.4585 23.5715C77.5093 23.5715 78.2097 24.272 78.2097 25.3228C78.2097 27.9494 80.8363 30.401 83.4632 30.401C84.514 30.401 85.2144 31.1015 85.2144 32.1523C85.039 33.0276 84.1634 33.9033 83.2878 33.9033Z" fill="#36363E"/>
<path d="M60.1729 48.7878C59.1221 48.7878 58.4216 48.0873 58.4216 47.0366C58.4216 45.9858 59.1221 45.2853 60.1729 45.2853C62.2742 45.2853 64.7259 44.4097 66.4769 43.0088C67.5276 42.1332 69.4538 40.3822 69.4538 38.1057C69.4538 37.0549 70.1542 36.3545 71.205 36.3545C72.2558 36.3545 72.9563 37.0549 72.9563 38.1057C72.9563 40.9075 71.3802 43.7093 68.5784 45.8106C66.1267 47.7372 62.9746 48.7878 60.1729 48.7878Z" fill="#36363E"/>
<path d="M90.2922 66.9996C89.2415 66.9996 88.541 66.2991 88.541 65.2484C88.541 59.4696 93.269 54.7417 99.0477 54.7417C100.098 54.7417 100.799 55.4421 100.799 56.4929C100.799 57.5437 100.098 58.2441 99.0477 58.2441C95.1951 58.2441 92.0432 61.3963 92.0432 65.2486C92.0435 66.2992 91.343 66.9996 90.2922 66.9996Z" fill="#36363E"/>
<path d="M81.1865 51.0643C80.1357 51.0643 79.4353 50.3638 79.4353 49.3131C79.4353 43.5343 84.1632 38.8064 89.942 38.8064C90.9928 38.8064 91.6932 39.5068 91.6932 40.5576C91.6932 41.6084 90.9928 42.3088 89.942 42.3088C86.0894 42.3088 82.9375 45.461 82.9375 49.3133C82.9378 50.3638 82.2371 51.0643 81.1865 51.0643Z" fill="#36363E"/>
<path d="M83.463 68.0502C83.463 53.8662 71.7304 42.6588 57.3712 43.3593C45.2885 43.8845 35.1319 53.5158 33.9059 65.7737C33.0303 75.2298 37.4082 83.6352 44.4126 88.5383C46.3388 89.9392 47.5647 92.2157 47.5647 94.4922V111.303H69.804V94.4922C69.804 92.2157 70.8548 89.9392 72.781 88.5383C79.0852 83.9855 83.463 76.4556 83.463 68.0502Z" fill="white"/>
<path d="M69.629 112.879H47.5649C46.5141 112.879 45.8137 112.179 45.8137 111.128V94.317C45.8137 92.3909 44.9381 90.8148 43.362 89.764C35.482 84.3356 31.2793 74.8795 32.1549 65.4234C33.3806 52.4651 44.2376 42.1333 57.196 41.4329C72.4308 40.7325 85.214 52.9904 85.214 68.05C85.214 76.8057 81.0113 84.8609 73.8317 89.9392C72.4308 90.99 71.5552 92.5658 71.5552 94.4922V111.303C71.3803 112.004 70.6796 112.879 69.629 112.879ZM49.3159 109.377H68.053V94.317C68.053 91.3401 69.4539 88.5383 71.9056 86.9623C77.8594 82.5844 81.7118 75.58 81.7118 68.05C81.7118 54.9165 70.6796 44.4098 57.5461 45.1103C46.1638 45.6356 36.8829 54.5664 35.6569 65.7735C34.7813 74.1789 38.4587 82.0589 45.4631 86.9623C47.9148 88.7135 49.3157 91.5153 49.3157 94.4922C49.3159 94.4922 49.3159 109.377 49.3159 109.377Z" fill="#36363E"/>
<path d="M58.5969 49.3132C58.2466 49.3132 57.8965 49.3132 57.7213 49.3132C48.7905 49.6636 40.9104 57.0181 40.0348 66.1241C39.3344 72.9536 42.3113 79.2576 47.9149 83.2851C51.5923 85.7368 53.6936 89.9395 53.6936 94.3173V98.1699H63.4998V94.3171C63.4998 89.9393 65.6012 85.7366 69.1034 83.2849C74.1817 79.7827 77.1586 74.004 77.1586 68.0501C77.1591 57.7186 68.7535 49.3132 58.5969 49.3132Z" fill="#FFB913"/>
<path d="M133.896 52.115H130.393V55.7924H133.896V52.115Z" fill="#36363E"/>
<path d="M125.973 35.4141L129.007 33.6633L127.168 30.4783L124.135 32.2291L125.973 35.4141Z" fill="#36363E"/>
<path d="M111.894 20.0157L113.646 16.9836L110.462 15.144L108.71 18.176L111.894 20.0157Z" fill="#36363E"/>
<path d="M92.0436 94.1421H88.3662V97.6443H92.0436V94.1421Z" fill="#36363E"/>
<path d="M92.0436 10.0879H88.3662V13.5901H92.0436V10.0879Z" fill="#36363E"/>
<path d="M110.507 92.7167L113.692 90.8784L111.941 87.8451L108.756 89.6835L110.507 92.7167Z" fill="#36363E"/>
<path d="M68.4385 19.8911L71.6235 18.0527L69.8728 15.0195L66.6878 16.8578L68.4385 19.8911Z" fill="#36363E"/>
<path d="M127.177 77.3177L129.016 74.1333L125.983 72.382L124.144 75.5664L127.177 77.3177Z" fill="#36363E"/>
<path d="M54.3652 35.3705L56.2035 32.1855L53.1702 30.4348L51.3319 33.6198L54.3652 35.3705Z" fill="#36363E"/>
<path d="M29.178 64.8979H25.6758V68.5753H29.178V64.8979Z" fill="#36363E"/>
<path d="M30.9975 84.6117L34.0304 82.8606L32.1917 79.676L29.1588 81.4271L30.9975 84.6117Z" fill="#36363E"/>
<path d="M42.2126 42.1613L45.3976 40.323L43.6468 37.2897L40.4618 39.1281L42.2126 42.1613Z" fill="#36363E"/>
<path d="M32.155 53.6017L33.9933 50.4167L30.96 48.666L29.1217 51.851L32.155 53.6017Z" fill="#36363E"/>
<path d="M52.8182 111.128V112.704C52.8182 115.856 55.4448 118.483 58.597 118.483C61.7491 118.483 64.3757 115.856 64.3757 112.704V111.128H52.8182Z" fill="white"/>
<path d="M64.3756 109.377H52.8181C51.7673 109.377 51.0669 110.077 51.0669 111.128V112.704C51.0669 116.907 54.3939 120.234 58.5968 120.234C62.7997 120.234 66.1268 116.907 66.1268 112.704V111.128C66.1268 110.077 65.2512 109.377 64.3756 109.377ZM58.5968 116.731C56.4955 116.731 54.7443 114.98 54.5693 112.879H62.6246C62.4494 114.98 60.6982 116.731 58.5968 116.731Z" fill="#36363E"/>
<path d="M69.1039 67.6998C69.1039 67.6998 69.1039 67.875 69.1039 67.6998C71.5555 70.3265 69.4542 74.5293 66.1269 74.5293H62.4495V70.852C62.2744 67.3497 66.477 65.2484 69.1039 67.6998Z" fill="white"/>
<path d="M65.9517 76.2805H62.2743C61.2235 76.2805 60.5231 75.58 60.5231 74.5292V70.8518C60.5231 67.5248 63.1497 64.8979 66.477 64.8979C67.8779 64.8979 69.2787 65.4232 70.3295 66.474L70.5047 66.6492C72.0807 68.2252 72.4309 70.5017 71.5555 72.7782C70.5047 74.8796 68.4034 76.2805 65.9517 76.2805ZM64.0255 72.7782H65.9517C67.1774 72.7782 67.8779 71.9026 68.2282 71.2022C68.4034 70.8518 68.7535 69.8013 67.8779 68.9257C67.3526 68.4004 67.0022 68.2252 66.477 68.2252C65.2512 68.2252 64.0253 69.1008 64.0253 70.6769V72.7782H64.0255Z" fill="#36363E"/>
<path d="M48.0903 67.6998C48.0903 67.6998 48.0903 67.875 48.0903 67.6998C45.6386 70.3265 47.74 74.5293 51.0672 74.5293H54.7446V70.852C54.7446 67.3497 50.5417 65.2484 48.0903 67.6998Z" fill="white"/>
<path d="M54.7445 76.2802H51.0671C48.7906 76.2802 46.5141 74.8793 45.6387 72.6028C44.7631 70.5015 45.1135 68.225 46.6895 66.6489L46.8647 66.4738C47.9155 65.423 49.3163 64.8977 50.7172 64.8977C54.0443 64.8977 56.6711 67.5243 56.6711 70.8516V74.529C56.4955 75.4046 55.7951 76.2802 54.7445 76.2802ZM50.7168 68.4002C50.1915 68.4002 49.8412 68.5753 49.3159 68.9254C48.4403 69.801 48.7906 70.8516 48.7906 71.2019C49.141 71.9024 49.8414 72.778 51.0671 72.778H52.9933V70.8518C52.9933 69.2758 51.7676 68.4002 50.7168 68.4002Z" fill="#36363E"/>
<path d="M62.2743 99.9209C61.2236 99.9209 60.5231 99.2205 60.5231 98.1697V76.2805H56.4956V98.1697C56.4956 99.2205 55.7952 99.9209 54.7444 99.9209C53.6936 99.9209 52.9932 99.2205 52.9932 98.1697V74.5295C52.9932 73.4788 53.6936 72.7783 54.7444 72.7783H62.2743C63.3251 72.7783 64.0256 73.4788 64.0256 74.5295V98.1697C64.0256 99.0453 63.3251 99.9209 62.2743 99.9209Z" fill="#36363E"/>
<path d="M72.9561 99.9207H44.0625C43.0117 99.9207 42.3113 99.2202 42.3113 98.1694C42.3113 97.1187 43.0117 96.4182 44.0625 96.4182H72.9561C74.0069 96.4182 74.7074 97.1187 74.7074 98.1694C74.7074 99.045 74.0069 99.9207 72.9561 99.9207Z" fill="#36363E"/>
<path d="M72.9561 106.4H44.0625C43.0117 106.4 42.3113 105.7 42.3113 104.649C42.3113 103.598 43.0117 102.898 44.0625 102.898H72.9561C74.0069 102.898 74.7074 103.598 74.7074 104.649C74.7074 105.7 74.0069 106.4 72.9561 106.4Z" fill="#36363E"/>
<defs>
<filter id="filter0_f" x="0.956543" y="0.75" width="161.34" height="162.788" filterUnits="userSpaceOnUse" color-interpolation-filters="sRGB">
<feFlood flood-opacity="0" result="BackgroundImageFix"/>
<feBlend mode="normal" in="SourceGraphic" in2="BackgroundImageFix" result="shape"/>
<feGaussianBlur stdDeviation="20" result="effect1_foregroundBlur"/>
</filter>
</defs>
</svg>
