<svg xmlns="http://www.w3.org/2000/svg" viewBox="0 0 128.25 112"><defs><style>.cls-1{fill:#20265b;}.cls-2{fill:#58b0e3;}.cls-3{fill:#009444;}.cls-4{fill:#39b54a;}.cls-5{fill:#343442;stroke:#343442;stroke-miterlimit:10;stroke-width:0.25px;}.cls-6{fill:#231f20;}</style></defs><g id="Layer_2" data-name="Layer 2"><g id="Layer_1-2" data-name="Layer 1"><path class="cls-1" d="M39.55,28.33h0a17.15,17.15,0,0,1,34.29,0H85.27a28.58,28.58,0,0,0-57.15,0H39.55Z"/><ellipse class="cls-2" cx="56.7" cy="28.33" rx="6.86" ry="6.8"/><polygon class="cls-3" points="68.01 68 56.7 68 44.98 45.33 56.33 45.33 68.01 68"/><polygon class="cls-3" points="83.89 68 72.57 68 60.85 45.33 72.21 45.33 83.89 68"/><polygon class="cls-4" points="72.58 68 88.75 35.7 100.13 35.7 83.9 68 72.58 68"/><polygon class="cls-4" points="56.7 68 72.87 35.7 84.25 35.7 68.03 68 56.7 68"/><path class="cls-5" d="M12.18,80.87a1.2,1.2,0,0,1,.7.92,1.32,1.32,0,0,1-.34,1.14,1,1,0,0,1-.76.45,1.83,1.83,0,0,1-1-.18,6.06,6.06,0,0,0-1.16-.38,5.82,5.82,0,0,0-1.27-.13,5.94,5.94,0,0,0-2.22.38,4.59,4.59,0,0,0-1.66,1.08,4.74,4.74,0,0,0-1,1.67A6.26,6.26,0,0,0,3.11,88a6.32,6.32,0,0,0,.4,2.37A4.74,4.74,0,0,0,4.62,92,4.45,4.45,0,0,0,6.3,93a6.4,6.4,0,0,0,2.09.33,7.42,7.42,0,0,0,1.24-.11,4.31,4.31,0,0,0,1.19-.41,1.63,1.63,0,0,1,1-.15,1.2,1.2,0,0,1,.79.47,1.31,1.31,0,0,1,.33,1.15,1.19,1.19,0,0,1-.7.86,7.12,7.12,0,0,1-1.23.48,8,8,0,0,1-1.27.29,8.17,8.17,0,0,1-1.31.1,9.51,9.51,0,0,1-3.13-.51A7.89,7.89,0,0,1,2.62,94,6.89,6.89,0,0,1,.79,91.45,8.7,8.7,0,0,1,.12,88a8.27,8.27,0,0,1,.61-3.18,7.37,7.37,0,0,1,1.73-2.52,8,8,0,0,1,2.62-1.66A9.14,9.14,0,0,1,8.39,80a8.62,8.62,0,0,1,2,.22A8.36,8.36,0,0,1,12.18,80.87Z"/><path class="cls-5" d="M24.07,82.8a1.31,1.31,0,0,1,1,.41,1.45,1.45,0,0,1,.39,1.05V94.33a1.44,1.44,0,0,1-.39,1,1.37,1.37,0,0,1-2,0,1.44,1.44,0,0,1-.39-1V93.16l.5.22a1.35,1.35,0,0,1-.32.75A4.18,4.18,0,0,1,22,95a5.23,5.23,0,0,1-1.3.73,4.32,4.32,0,0,1-1.62.3,5.09,5.09,0,0,1-2.87-.85,5.93,5.93,0,0,1-2-2.33,8.32,8.32,0,0,1,0-6.86,6,6,0,0,1,2-2.33A4.89,4.89,0,0,1,19,82.8a5.35,5.35,0,0,1,1.82.31,5.45,5.45,0,0,1,1.43.79,4.43,4.43,0,0,1,.94,1,1.59,1.59,0,0,1,.33.82l-.82.31V84.26a1.46,1.46,0,0,1,.39-1A1.29,1.29,0,0,1,24.07,82.8ZM19.43,93.4a3.12,3.12,0,0,0,1.77-.52,3.63,3.63,0,0,0,1.18-1.43,4.79,4.79,0,0,0,.42-2,4.85,4.85,0,0,0-.42-2A3.59,3.59,0,0,0,21.2,86a3.06,3.06,0,0,0-1.77-.53,3,3,0,0,0-1.75.53,3.51,3.51,0,0,0-1.18,1.42,4.85,4.85,0,0,0-.42,2,4.79,4.79,0,0,0,.42,2,3.54,3.54,0,0,0,1.18,1.43A3.08,3.08,0,0,0,19.43,93.4Z"/><path class="cls-5" d="M34.21,82.8a3.6,3.6,0,0,1,2.71.92,4.64,4.64,0,0,1,1.15,2.37l-.39-.22.18-.38a5.79,5.79,0,0,1,.85-1.18,5.36,5.36,0,0,1,1.39-1.07,3.64,3.64,0,0,1,5.52,2.27,10.41,10.41,0,0,1,.32,2.72v6.1a1.44,1.44,0,0,1-.39,1,1.37,1.37,0,0,1-2,0,1.44,1.44,0,0,1-.39-1v-6.1A4.88,4.88,0,0,0,43,86.81a2,2,0,0,0-.66-1A2.2,2.2,0,0,0,41,85.42a2.82,2.82,0,0,0-1.49.38,2.38,2.38,0,0,0-.93,1,3.18,3.18,0,0,0-.31,1.42v6.1a1.44,1.44,0,0,1-.39,1,1.38,1.38,0,0,1-2,0,1.44,1.44,0,0,1-.39-1v-6.1a5.26,5.26,0,0,0-.18-1.42,1.91,1.91,0,0,0-.67-1,2.19,2.19,0,0,0-1.37-.38,2.86,2.86,0,0,0-1.5.38,2.51,2.51,0,0,0-.93,1,3.32,3.32,0,0,0-.31,1.42v6.1a1.44,1.44,0,0,1-.39,1,1.37,1.37,0,0,1-2,0,1.44,1.44,0,0,1-.39-1V84.49a1.45,1.45,0,0,1,.39-1,1.37,1.37,0,0,1,2,0,1.45,1.45,0,0,1,.39,1v1l-.34-.07a5.83,5.83,0,0,1,.57-.87,5.33,5.33,0,0,1,.9-.87,4.78,4.78,0,0,1,1.17-.66A4,4,0,0,1,34.21,82.8Z"/><path class="cls-5" d="M54.59,82.8a5,5,0,0,1,2.88.85,5.94,5.94,0,0,1,2,2.32,8.24,8.24,0,0,1,0,6.87,5.94,5.94,0,0,1-2,2.33,4.85,4.85,0,0,1-2.81.85A4.69,4.69,0,0,1,53,95.71a5.32,5.32,0,0,1-1.41-.79,4.22,4.22,0,0,1-.94-1,1.54,1.54,0,0,1-.34-.82l.72-.31v6.26a1.52,1.52,0,0,1-.39,1,1.34,1.34,0,0,1-1,.41,1.31,1.31,0,0,1-1-.4,1.45,1.45,0,0,1-.39-1V84.49a1.45,1.45,0,0,1,.39-1,1.29,1.29,0,0,1,1-.42,1.31,1.31,0,0,1,1,.42,1.5,1.5,0,0,1,.39,1v1.17l-.39-.21a1.3,1.3,0,0,1,.32-.75,4.51,4.51,0,0,1,.87-.89,5.05,5.05,0,0,1,1.27-.72A4.16,4.16,0,0,1,54.59,82.8Zm-.34,2.62a3,3,0,0,0-1.77.53,3.47,3.47,0,0,0-1.18,1.41,4.63,4.63,0,0,0-.43,2,4.68,4.68,0,0,0,.43,2,3.4,3.4,0,0,0,1.18,1.45,3.08,3.08,0,0,0,1.77.52A3,3,0,0,0,56,92.88a3.46,3.46,0,0,0,1.17-1.45,4.68,4.68,0,0,0,.43-2,4.63,4.63,0,0,0-.43-2A3.53,3.53,0,0,0,56,86,3,3,0,0,0,54.25,85.42Z"/><path class="cls-5" d="M71,83a1.29,1.29,0,0,1,1,.42,1.45,1.45,0,0,1,.39,1v6.05a5.7,5.7,0,0,1-1.35,4A5,5,0,0,1,67.07,96a5,5,0,0,1-3.89-1.48,5.74,5.74,0,0,1-1.34-4V84.49a1.45,1.45,0,0,1,.39-1,1.37,1.37,0,0,1,2,0,1.45,1.45,0,0,1,.39,1v6.05a3.22,3.22,0,0,0,.62,2.16,2.4,2.4,0,0,0,1.86.7A2.42,2.42,0,0,0,69,92.7a3.22,3.22,0,0,0,.62-2.16V84.49a1.45,1.45,0,0,1,.39-1A1.29,1.29,0,0,1,71,83Z"/><path class="cls-5" d="M73.85,93.8a1.4,1.4,0,0,1-.21-.85,1.19,1.19,0,0,1,.6-.91,1.24,1.24,0,0,1,.78-.2,1.29,1.29,0,0,1,.81.44,5.28,5.28,0,0,0,1.4,1.07,3.88,3.88,0,0,0,1.83.38,5.9,5.9,0,0,0,.76-.1,1.42,1.42,0,0,0,.72-.39,1.18,1.18,0,0,0,.31-.91,1.08,1.08,0,0,0-.34-.84A2.9,2.9,0,0,0,79.6,91a12.34,12.34,0,0,0-1.25-.4l-1.46-.48a6.18,6.18,0,0,1-1.36-.68,3.18,3.18,0,0,1-1-1.11,3.5,3.5,0,0,1-.39-1.74,3.21,3.21,0,0,1,.64-2,4.36,4.36,0,0,1,1.66-1.29,5.28,5.28,0,0,1,2.15-.45,6.65,6.65,0,0,1,1.49.18,5.74,5.74,0,0,1,1.49.57,3.65,3.65,0,0,1,1.2,1,1.7,1.7,0,0,1,.3.86,1,1,0,0,1-.44.9,1.1,1.1,0,0,1-.8.25,1.17,1.17,0,0,1-.76-.32,2.65,2.65,0,0,0-1-.83,3.38,3.38,0,0,0-1.5-.31,3.43,3.43,0,0,0-.75.08,1.47,1.47,0,0,0-.7.36,1.15,1.15,0,0,0-.29.87,1.11,1.11,0,0,0,.34.86,2.58,2.58,0,0,0,.93.53l1.25.39c.46.13.93.28,1.4.45a5.48,5.48,0,0,1,1.31.7,3.1,3.1,0,0,1,1,1.1,3.55,3.55,0,0,1,.37,1.73,3.19,3.19,0,0,1-.69,2.07,4.44,4.44,0,0,1-1.72,1.3,5.39,5.39,0,0,1-2.11.44,7.84,7.84,0,0,1-2.71-.49A4.68,4.68,0,0,1,73.85,93.8Z"/><path class="cls-5" d="M101.57,80a1.45,1.45,0,0,1,1,.4A1.33,1.33,0,0,1,103,81.5a2,2,0,0,1-.06.45l-4.25,13a1.13,1.13,0,0,1-.47.62,1.39,1.39,0,0,1-.7.23,1.34,1.34,0,0,1-.72-.22,1.47,1.47,0,0,1-.55-.65L93,87.39l.19.13-3.15,7.39a1.47,1.47,0,0,1-.55.65,1.34,1.34,0,0,1-.72.22,1.45,1.45,0,0,1-.69-.23,1.15,1.15,0,0,1-.48-.62L83.38,82a2.07,2.07,0,0,1-.07-.45,1.31,1.31,0,0,1,.47-1.06,1.5,1.5,0,0,1,1-.4,1.44,1.44,0,0,1,.77.23,1.11,1.11,0,0,1,.48.65l3.43,10.79-.47,0L92,84.05a1.53,1.53,0,0,1,.5-.64,1.16,1.16,0,0,1,.73-.21,1.19,1.19,0,0,1,.74.21,1.39,1.39,0,0,1,.47.64l2.81,7.3-.35.22,3.39-10.65a1.1,1.1,0,0,1,.5-.65A1.44,1.44,0,0,1,101.57,80Z"/><path class="cls-5" d="M109.15,96a6.49,6.49,0,0,1-3.39-.85,5.7,5.7,0,0,1-2.2-2.29,6.86,6.86,0,0,1-.77-3.29,7.44,7.44,0,0,1,.84-3.66,6,6,0,0,1,2.19-2.32,5.5,5.5,0,0,1,2.87-.81,5.07,5.07,0,0,1,2.21.5,6.06,6.06,0,0,1,1.85,1.37,6.54,6.54,0,0,1,1.27,2,6.27,6.27,0,0,1,.48,2.43,1.29,1.29,0,0,1-.44.93,1.43,1.43,0,0,1-1,.36h-8.77L103.64,88h8.42l-.5.47v-.64a2.26,2.26,0,0,0-.47-1.24,3.32,3.32,0,0,0-1.06-.87,3,3,0,0,0-1.34-.32,4.47,4.47,0,0,0-1.29.19,2.38,2.38,0,0,0-1,.65,3.13,3.13,0,0,0-.69,1.21,6.19,6.19,0,0,0-.25,1.93,4.34,4.34,0,0,0,.51,2.18,3.62,3.62,0,0,0,1.34,1.35,3.43,3.43,0,0,0,1.73.47,5.36,5.36,0,0,0,1.35-.14,3,3,0,0,0,.82-.35c.2-.13.39-.25.56-.34a1.66,1.66,0,0,1,.78-.22,1.09,1.09,0,0,1,.84.36,1.18,1.18,0,0,1,.33.83,1.5,1.5,0,0,1-.64,1.17,5.46,5.46,0,0,1-1.68.92A6.49,6.49,0,0,1,109.15,96Z"/><path class="cls-5" d="M118.91,94.49a1.19,1.19,0,0,1-.4.92,1.41,1.41,0,0,1-1,.37,1.33,1.33,0,0,1-1-.37,1.22,1.22,0,0,1-.39-.92V81.39a1.19,1.19,0,0,1,.4-.92,1.41,1.41,0,0,1,1-.37,1.34,1.34,0,0,1,1,.37,1.24,1.24,0,0,1,.37.92Z"/><path class="cls-5" d="M121.4,83.28h5.44a1.24,1.24,0,0,1,.92.38,1.32,1.32,0,0,1,.36,1,1.27,1.27,0,0,1-.36.92,1.24,1.24,0,0,1-.92.37H121.4a1.23,1.23,0,0,1-.92-.38,1.35,1.35,0,0,1-.37-1,1.26,1.26,0,0,1,.37-.92A1.22,1.22,0,0,1,121.4,83.28Zm2.45-3a1.26,1.26,0,0,1,1,.42,1.49,1.49,0,0,1,.38,1v10.6a1,1,0,0,0,.13.55.68.68,0,0,0,.34.31,1.19,1.19,0,0,0,.47.09,1.25,1.25,0,0,0,.51-.1,1.21,1.21,0,0,1,.52-.11.76.76,0,0,1,.59.31,1.26,1.26,0,0,1,.26.86,1.25,1.25,0,0,1-.7,1.09,2.78,2.78,0,0,1-1.5.43,8.58,8.58,0,0,1-1.07-.08,2.78,2.78,0,0,1-1.1-.41,2.42,2.42,0,0,1-.86-1,4,4,0,0,1-.35-1.83V81.75a1.43,1.43,0,0,1,.41-1A1.31,1.31,0,0,1,123.85,80.3Z"/><path class="cls-6" d="M3.38,102.62a2.07,2.07,0,0,1,1.48.47,1.83,1.83,0,0,1,.49,1.39,1.57,1.57,0,0,1-.24.86,1.61,1.61,0,0,1-.7.57,2.87,2.87,0,0,1-1.16.2l0-.47a3.46,3.46,0,0,1,.74.09,2.79,2.79,0,0,1,.81.32,1.81,1.81,0,0,1,.64.62,1.89,1.89,0,0,1,.26,1,2.42,2.42,0,0,1-.23,1.12,1.77,1.77,0,0,1-.58.68,2.41,2.41,0,0,1-.78.33,3.85,3.85,0,0,1-.8.09H.76a.58.58,0,0,1-.45-.19.62.62,0,0,1-.19-.45v-6a.66.66,0,0,1,.19-.46.61.61,0,0,1,.45-.18Zm-.19,1.23H1.34l.14-.16v1.88l-.13-.09H3.22a.84.84,0,0,0,.54-.2.69.69,0,0,0,.24-.57.82.82,0,0,0-.22-.65A.84.84,0,0,0,3.19,103.85Zm.08,2.86H1.38l.1-.09v2.2l-.11-.1h2a1.05,1.05,0,0,0,.75-.26,1,1,0,0,0,.29-.76A1,1,0,0,0,4.2,107a.8.8,0,0,0-.45-.26A2.06,2.06,0,0,0,3.27,106.71Z"/><path class="cls-6" d="M7.26,103.66a.82.82,0,0,1-.5-.11.52.52,0,0,1-.14-.41V103a.47.47,0,0,1,.16-.42.91.91,0,0,1,.49-.11.79.79,0,0,1,.51.12.49.49,0,0,1,.15.41v.19a.47.47,0,0,1-.16.42A.93.93,0,0,1,7.26,103.66Zm.64,5.62a.61.61,0,0,1-.18.45.58.58,0,0,1-.45.19.55.55,0,0,1-.44-.19.61.61,0,0,1-.18-.45V105a.65.65,0,0,1,.18-.46.57.57,0,0,1,.44-.18.61.61,0,0,1,.45.18.65.65,0,0,1,.18.46Z"/><path class="cls-6" d="M10.42,109.28a.61.61,0,0,1-.18.45.58.58,0,0,1-.45.19.58.58,0,0,1-.44-.19.6.6,0,0,1-.17-.45v-6.44a.62.62,0,0,1,.63-.63.57.57,0,0,1,.44.18.6.6,0,0,1,.17.45Z"/><path class="cls-6" d="M16.17,102.21a.6.6,0,0,1,.45.17.65.65,0,0,1,.17.46v6.44a.64.64,0,0,1-.17.45.63.63,0,0,1-.9,0,.6.6,0,0,1-.17-.45v-.51l.22.09a.56.56,0,0,1-.14.33,1.83,1.83,0,0,1-.4.38,2.29,2.29,0,0,1-.58.32,2,2,0,0,1-.74.13,2.31,2.31,0,0,1-1.29-.37,2.59,2.59,0,0,1-.92-1,3.48,3.48,0,0,1,0-3,2.49,2.49,0,0,1,.9-1,2.3,2.3,0,0,1,1.27-.37,2.39,2.39,0,0,1,.82.13,2.36,2.36,0,0,1,.65.35,1.91,1.91,0,0,1,.43.42.66.66,0,0,1,.15.36l-.37.13v-2.79a.6.6,0,0,1,.17-.45A.61.61,0,0,1,16.17,102.21Zm-2.1,6.66a1.44,1.44,0,0,0,.8-.22,1.55,1.55,0,0,0,.53-.63,2.08,2.08,0,0,0,0-1.78,1.49,1.49,0,0,0-.53-.63,1.44,1.44,0,0,0-.8-.23,1.41,1.41,0,0,0-.79.23,1.58,1.58,0,0,0-.54.63,2.18,2.18,0,0,0,0,1.78,1.65,1.65,0,0,0,.54.63A1.4,1.4,0,0,0,14.07,108.87Z"/><path class="cls-6" d="M22.33,104.34a.61.61,0,0,1,.45.18A.64.64,0,0,1,23,105v2.64a2.42,2.42,0,0,1-.61,1.75,2.3,2.3,0,0,1-1.77.65,2.29,2.29,0,0,1-1.76-.65,2.46,2.46,0,0,1-.6-1.75V105a.64.64,0,0,1,.17-.46.65.65,0,0,1,.9,0,.69.69,0,0,1,.17.46v2.64a1.42,1.42,0,0,0,.28.95,1.1,1.1,0,0,0,.84.3,1.12,1.12,0,0,0,.86-.3,1.42,1.42,0,0,0,.28-.95V105a.69.69,0,0,1,.17-.46A.61.61,0,0,1,22.33,104.34Z"/><path class="cls-6" d="M27.17,104.24a1.83,1.83,0,0,1,1.17.32,1.63,1.63,0,0,1,.55.86,4.46,4.46,0,0,1,.15,1.19v2.67a.64.64,0,0,1-.17.45.63.63,0,0,1-.9,0,.6.6,0,0,1-.17-.45v-2.67a2,2,0,0,0-.09-.62.89.89,0,0,0-.32-.44,1.09,1.09,0,0,0-.65-.17,1.37,1.37,0,0,0-.7.17,1.1,1.1,0,0,0-.44.44,1.29,1.29,0,0,0-.15.62v2.67a.61.61,0,0,1-.18.45.58.58,0,0,1-.44.19.57.57,0,0,1-.45-.19.61.61,0,0,1-.18-.45V105a.65.65,0,0,1,.18-.46.6.6,0,0,1,.45-.18.6.6,0,0,1,.44.18.65.65,0,0,1,.18.46v.45l-.16,0a2.28,2.28,0,0,1,.27-.38,3.13,3.13,0,0,1,.42-.38,2.3,2.3,0,0,1,.54-.28A1.74,1.74,0,0,1,27.17,104.24Z"/><path class="cls-6" d="M32.55,104.24a2.32,2.32,0,0,1,.8.13,2.18,2.18,0,0,1,.62.35,2.08,2.08,0,0,1,.42.42.66.66,0,0,1,.15.36l-.27.13v-.76a.61.61,0,0,1,.18-.45.57.57,0,0,1,.44-.18.64.64,0,0,1,.45.17.63.63,0,0,1,.18.46v4.64a2.44,2.44,0,0,1-.39,1.45,2.21,2.21,0,0,1-1,.8,3.78,3.78,0,0,1-1.36.24,4.31,4.31,0,0,1-.54,0l-.63-.13-.46-.13a.91.91,0,0,1-.43-.34.5.5,0,0,1-.05-.43.77.77,0,0,1,.3-.42.52.52,0,0,1,.44,0l.34.12a5.46,5.46,0,0,0,.53.18,2,2,0,0,0,.5.07,1.79,1.79,0,0,0,1.16-.31,1.06,1.06,0,0,0,.37-.86v-.91l.13.09a.64.64,0,0,1-.14.33,2,2,0,0,1-.39.38,2.13,2.13,0,0,1-.58.32,1.82,1.82,0,0,1-.7.13,2.42,2.42,0,0,1-1.33-.37,2.64,2.64,0,0,1-.94-1,3.48,3.48,0,0,1,0-3,2.56,2.56,0,0,1,.93-1A2.32,2.32,0,0,1,32.55,104.24Zm.19,1.14a1.51,1.51,0,0,0-.82.23,1.61,1.61,0,0,0-.55.63,2.08,2.08,0,0,0,0,1.78,1.68,1.68,0,0,0,.55.63,1.66,1.66,0,0,0,1.65,0,1.6,1.6,0,0,0,.55-.63,2.08,2.08,0,0,0,0-1.78,1.53,1.53,0,0,0-.55-.63A1.5,1.5,0,0,0,32.74,105.38Z"/><path class="cls-6" d="M36.34,109.05a.55.55,0,0,1-.09-.37.47.47,0,0,1,.27-.4.54.54,0,0,1,.35-.09.64.64,0,0,1,.36.19,2.15,2.15,0,0,0,.64.47,1.86,1.86,0,0,0,.83.17,2.33,2.33,0,0,0,.34,0,.68.68,0,0,0,.33-.16.54.54,0,0,0,.14-.4.44.44,0,0,0-.16-.37,1.22,1.22,0,0,0-.41-.23l-.56-.18-.66-.2a2.74,2.74,0,0,1-.62-.3,1.36,1.36,0,0,1-.46-.49,1.45,1.45,0,0,1-.18-.76,1.39,1.39,0,0,1,.29-.88,2,2,0,0,1,.76-.56,2.31,2.31,0,0,1,1-.2,2.66,2.66,0,0,1,.67.08,2.42,2.42,0,0,1,.68.25,1.57,1.57,0,0,1,.54.45.75.75,0,0,1,.14.37.48.48,0,0,1-.2.4.54.54,0,0,1-.37.11.58.58,0,0,1-.34-.14,1.25,1.25,0,0,0-.47-.37,1.65,1.65,0,0,0-.68-.13,1.37,1.37,0,0,0-.34,0,.63.63,0,0,0-.32.15.59.59,0,0,0,0,.76,1.2,1.2,0,0,0,.42.23l.57.17.64.2a3,3,0,0,1,.59.3,1.45,1.45,0,0,1,.43.49,1.54,1.54,0,0,1,.17.75,1.36,1.36,0,0,1-.31.91,2,2,0,0,1-.78.57,2.45,2.45,0,0,1-1,.19,3.73,3.73,0,0,1-1.22-.21A2.19,2.19,0,0,1,36.34,109.05Z"/><path class="cls-6" d="M46.15,104.24a.64.64,0,0,1,.45.17.67.67,0,0,1,.17.46v4.41a.64.64,0,0,1-.17.45.63.63,0,0,1-.9,0,.61.61,0,0,1-.18-.45v-.51l.23.09a.64.64,0,0,1-.14.33,1.83,1.83,0,0,1-.4.38,2.29,2.29,0,0,1-.58.32,2,2,0,0,1-.74.13,2.35,2.35,0,0,1-1.3-.37,2.75,2.75,0,0,1-.92-1,3.57,3.57,0,0,1,0-3,2.59,2.59,0,0,1,.91-1,2.27,2.27,0,0,1,1.27-.37,2.39,2.39,0,0,1,.82.13,2.36,2.36,0,0,1,.65.35,1.91,1.91,0,0,1,.43.42.66.66,0,0,1,.15.36l-.38.13v-.76a.62.62,0,0,1,.63-.63Zm-2.1,4.63a1.44,1.44,0,0,0,.8-.22,1.55,1.55,0,0,0,.53-.63,2.08,2.08,0,0,0,0-1.78,1.49,1.49,0,0,0-.53-.63,1.44,1.44,0,0,0-.8-.23,1.41,1.41,0,0,0-.79.23,1.58,1.58,0,0,0-.54.63,2.18,2.18,0,0,0,0,1.78,1.65,1.65,0,0,0,.54.63A1.4,1.4,0,0,0,44.05,108.87Z"/><path class="cls-6" d="M48.75,109.92a.58.58,0,0,1-.45-.19.61.61,0,0,1-.18-.45v-6.44a.62.62,0,0,1,.63-.63.59.59,0,0,1,.44.18.61.61,0,0,1,.18.45v6.44a.61.61,0,0,1-.18.45A.56.56,0,0,1,48.75,109.92Zm3.3-5.58a.56.56,0,0,1,.42.2.61.61,0,0,1,.17.39.6.6,0,0,1-.25.46l-3.12,2.89-.06-1.44,2.38-2.3A.65.65,0,0,1,52.05,104.34Zm.16,5.57a.59.59,0,0,1-.46-.21l-1.92-2,.94-.88,1.87,2a.69.69,0,0,1,.2.47.54.54,0,0,1-.21.44A.67.67,0,0,1,52.21,109.91Z"/><path class="cls-6" d="M58.28,104.24a.64.64,0,0,1,.45.17.63.63,0,0,1,.18.46v4.41a.61.61,0,0,1-.18.45.58.58,0,0,1-.45.19.56.56,0,0,1-.44-.19.61.61,0,0,1-.18-.45v-.51l.23.09a.59.59,0,0,1-.15.33,1.57,1.57,0,0,1-.39.38,2.36,2.36,0,0,1-.59.32A1.93,1.93,0,0,1,56,110a2.35,2.35,0,0,1-1.3-.37,2.67,2.67,0,0,1-.92-1,3.48,3.48,0,0,1,0-3,2.59,2.59,0,0,1,.91-1,2.25,2.25,0,0,1,1.27-.37,2.39,2.39,0,0,1,.82.13,2.36,2.36,0,0,1,.65.35,2.08,2.08,0,0,1,.42.42.62.62,0,0,1,.16.36l-.38.13v-.76a.61.61,0,0,1,.18-.45A.59.59,0,0,1,58.28,104.24Zm-2.09,4.63a1.44,1.44,0,0,0,.8-.22,1.72,1.72,0,0,0,.53-.63,2.18,2.18,0,0,0,0-1.78,1.64,1.64,0,0,0-.53-.63,1.44,1.44,0,0,0-.8-.23,1.39,1.39,0,0,0-.79.23,1.58,1.58,0,0,0-.54.63,2.18,2.18,0,0,0,0,1.78,1.65,1.65,0,0,0,.54.63A1.38,1.38,0,0,0,56.19,108.87Z"/><path class="cls-6" d="M64.65,102.21a.6.6,0,0,1,.45.17.62.62,0,0,1,.18.46v6.44a.61.61,0,0,1-.18.45.58.58,0,0,1-.45.19.56.56,0,0,1-.44-.19.61.61,0,0,1-.18-.45v-.51l.23.09a.59.59,0,0,1-.15.33,1.57,1.57,0,0,1-.39.38,2.36,2.36,0,0,1-.59.32,1.93,1.93,0,0,1-.73.13,2.35,2.35,0,0,1-1.3-.37,2.67,2.67,0,0,1-.92-1,3.48,3.48,0,0,1,0-3,2.59,2.59,0,0,1,.91-1,2.25,2.25,0,0,1,1.27-.37,2.39,2.39,0,0,1,.82.13,2.36,2.36,0,0,1,.65.35,2.08,2.08,0,0,1,.42.42.62.62,0,0,1,.16.36l-.38.13v-2.79a.61.61,0,0,1,.18-.45A.59.59,0,0,1,64.65,102.21Zm-2.09,6.66a1.44,1.44,0,0,0,.8-.22,1.72,1.72,0,0,0,.53-.63,2.18,2.18,0,0,0,0-1.78,1.64,1.64,0,0,0-.53-.63,1.44,1.44,0,0,0-.8-.23,1.39,1.39,0,0,0-.79.23,1.58,1.58,0,0,0-.54.63,2.18,2.18,0,0,0,0,1.78,1.65,1.65,0,0,0,.54.63A1.38,1.38,0,0,0,62.56,108.87Z"/><path class="cls-6" d="M69.09,110a3,3,0,0,1-1.53-.37,2.6,2.6,0,0,1-1-1,3,3,0,0,1-.35-1.44,3.18,3.18,0,0,1,.38-1.6,2.85,2.85,0,0,1,1-1,2.64,2.64,0,0,1,1.3-.35,2.33,2.33,0,0,1,1,.22,2.55,2.55,0,0,1,.83.6,2.65,2.65,0,0,1,.58.88,2.67,2.67,0,0,1,.21,1.06.53.53,0,0,1-.19.41.69.69,0,0,1-.44.15h-4l-.31-1h3.81l-.23.21v-.28a.94.94,0,0,0-.21-.55,1.65,1.65,0,0,0-.48-.38,1.4,1.4,0,0,0-.61-.14,1.85,1.85,0,0,0-.58.09,1.14,1.14,0,0,0-.47.28,1.43,1.43,0,0,0-.31.53,2.8,2.8,0,0,0-.11.84,1.89,1.89,0,0,0,.23,1,1.57,1.57,0,0,0,.61.59,1.51,1.51,0,0,0,.78.2,2.44,2.44,0,0,0,.61-.06,1.29,1.29,0,0,0,.37-.15l.26-.15a.79.79,0,0,1,.35-.09.52.52,0,0,1,.38.15.53.53,0,0,1,.15.37.68.68,0,0,1-.29.51,2.54,2.54,0,0,1-.76.4A3.15,3.15,0,0,1,69.09,110Z"/><path class="cls-6" d="M75.37,104.24a1.63,1.63,0,0,1,1.22.4,1.91,1.91,0,0,1,.52,1l-.17-.1.08-.16a2.27,2.27,0,0,1,.38-.52,2.72,2.72,0,0,1,.63-.47,1.75,1.75,0,0,1,.83-.19,1.78,1.78,0,0,1,1.14.32,1.6,1.6,0,0,1,.53.86,4.46,4.46,0,0,1,.15,1.19v2.67a.61.61,0,0,1-.18.45.58.58,0,0,1-.45.19.56.56,0,0,1-.44-.19.61.61,0,0,1-.18-.45v-2.67a2.39,2.39,0,0,0-.08-.62.92.92,0,0,0-.3-.44,1,1,0,0,0-.63-.17,1.28,1.28,0,0,0-.67.17,1,1,0,0,0-.42.44,1.29,1.29,0,0,0-.14.62v2.67a.61.61,0,0,1-.18.45.58.58,0,0,1-.45.19.55.55,0,0,1-.44-.19.61.61,0,0,1-.18-.45v-2.67a2.39,2.39,0,0,0-.08-.62.92.92,0,0,0-.3-.44,1,1,0,0,0-.63-.17,1.28,1.28,0,0,0-.67.17,1,1,0,0,0-.42.44,1.29,1.29,0,0,0-.15.62v2.67a.6.6,0,0,1-.17.45.63.63,0,0,1-.9,0,.64.64,0,0,1-.17-.45V105a.69.69,0,0,1,.17-.46.65.65,0,0,1,.9,0,.64.64,0,0,1,.17.46v.45l-.15,0a2.89,2.89,0,0,1,.26-.38,2.11,2.11,0,0,1,.93-.66A1.69,1.69,0,0,1,75.37,104.24Z"/><path class="cls-6" d="M82.47,103.66a.79.79,0,0,1-.5-.11.49.49,0,0,1-.15-.41V103a.5.5,0,0,1,.16-.42.93.93,0,0,1,.5-.11.78.78,0,0,1,.5.12.49.49,0,0,1,.15.41v.19a.47.47,0,0,1-.16.42A.91.91,0,0,1,82.47,103.66Zm.63,5.62a.61.61,0,0,1-.18.45.56.56,0,0,1-.44.19.58.58,0,0,1-.45-.19.61.61,0,0,1-.18-.45V105a.65.65,0,0,1,.18-.46.61.61,0,0,1,.45-.18.59.59,0,0,1,.44.18.65.65,0,0,1,.18.46Z"/><path class="cls-6" d="M86.84,110a3,3,0,0,1-1.53-.37,2.53,2.53,0,0,1-1-1,3,3,0,0,1-.35-1.44,3.18,3.18,0,0,1,.38-1.6,2.7,2.7,0,0,1,1-1,2.61,2.61,0,0,1,1.3-.35,2.25,2.25,0,0,1,1,.22,2.49,2.49,0,0,1,.84.6,2.81,2.81,0,0,1,.58.88,2.67,2.67,0,0,1,.21,1.06.54.54,0,0,1-.2.41.66.66,0,0,1-.43.15h-4l-.31-1h3.81l-.23.21v-.28a.94.94,0,0,0-.21-.55,1.65,1.65,0,0,0-.48-.38,1.4,1.4,0,0,0-.61-.14,1.81,1.81,0,0,0-.58.09,1.08,1.08,0,0,0-.47.28,1.43,1.43,0,0,0-.31.53,2.52,2.52,0,0,0-.11.84,1.8,1.8,0,0,0,.23,1,1.61,1.61,0,0,0,.6.59,1.57,1.57,0,0,0,.79.2,2.5,2.5,0,0,0,.61-.06,1.29,1.29,0,0,0,.37-.15l.25-.15a.87.87,0,0,1,.36-.09.52.52,0,0,1,.38.15.53.53,0,0,1,.15.37.68.68,0,0,1-.29.51,2.67,2.67,0,0,1-.76.4A3.15,3.15,0,0,1,86.84,110Z"/><path class="cls-6" d="M98.2,103a.54.54,0,0,1,.31.42.6.6,0,0,1-.15.54.45.45,0,0,1-.34.2.77.77,0,0,1-.44-.08,2.9,2.9,0,0,0-.52-.18,2.72,2.72,0,0,0-.58-.06,2.62,2.62,0,0,0-1,.18,2.15,2.15,0,0,0-.75.5,2.22,2.22,0,0,0-.48.78,3.11,3.11,0,0,0-.16,1,2.85,2.85,0,0,0,.19,1.1,2.06,2.06,0,0,0,.5.79,2.1,2.1,0,0,0,.76.46,2.85,2.85,0,0,0,.94.15,3.43,3.43,0,0,0,.56,0,2,2,0,0,0,.54-.19.76.76,0,0,1,.44-.07.5.5,0,0,1,.35.22.61.61,0,0,1,.15.53.51.51,0,0,1-.31.4,3.6,3.6,0,0,1-1.13.36,4,4,0,0,1-.6,0,4.24,4.24,0,0,1-1.42-.24,3.69,3.69,0,0,1-1.19-.71A3.35,3.35,0,0,1,93,107.9a4.12,4.12,0,0,1-.3-1.63,3.75,3.75,0,0,1,.28-1.48,3.34,3.34,0,0,1,.78-1.17,3.44,3.44,0,0,1,1.19-.77,3.8,3.8,0,0,1,1.49-.28,4.43,4.43,0,0,1,.9.1A3.85,3.85,0,0,1,98.2,103Z"/><path class="cls-6" d="M104.75,107.13a3,3,0,0,1-.37,1.51,2.93,2.93,0,0,1-1,1,3,3,0,0,1-2.86,0,2.77,2.77,0,0,1-1-1,3,3,0,0,1-.38-1.51,2.93,2.93,0,0,1,.38-1.5,2.63,2.63,0,0,1,1-1,2.84,2.84,0,0,1,3.88,1A2.93,2.93,0,0,1,104.75,107.13Zm-1.24,0a1.82,1.82,0,0,0-.22-.92,1.6,1.6,0,0,0-.57-.61,1.54,1.54,0,0,0-.79-.22,1.58,1.58,0,0,0-.8.22,1.6,1.6,0,0,0-.57.61,2.12,2.12,0,0,0,0,1.84,1.6,1.6,0,0,0,.57.61,1.57,1.57,0,0,0,.8.21,1.53,1.53,0,0,0,.79-.21,1.6,1.6,0,0,0,.57-.61A1.82,1.82,0,0,0,103.51,107.13Z"/><path class="cls-6" d="M107,109.28a.61.61,0,0,1-.18.45.58.58,0,0,1-.45.19.56.56,0,0,1-.44-.19.61.61,0,0,1-.18-.45v-6.44a.58.58,0,0,1,.19-.45.61.61,0,0,1,.45-.18.59.59,0,0,1,.44.18.64.64,0,0,1,.17.45Z"/><path class="cls-6" d="M113.63,107.13a3,3,0,0,1-.38,1.51,2.77,2.77,0,0,1-1,1,2.84,2.84,0,0,1-1.43.36,2.89,2.89,0,0,1-1.43-.36,2.82,2.82,0,0,1-1-1,2.87,2.87,0,0,1-.38-1.51,2.84,2.84,0,0,1,.38-1.5,2.67,2.67,0,0,1,1-1,2.8,2.8,0,0,1,1.43-.37,2.75,2.75,0,0,1,1.43.37,2.63,2.63,0,0,1,1,1A2.93,2.93,0,0,1,113.63,107.13Zm-1.25,0a1.92,1.92,0,0,0-.21-.92,1.6,1.6,0,0,0-.57-.61,1.58,1.58,0,0,0-.8-.22,1.54,1.54,0,0,0-.79.22,1.6,1.6,0,0,0-.57.61,2,2,0,0,0,0,1.84,1.6,1.6,0,0,0,.57.61,1.53,1.53,0,0,0,.79.21,1.57,1.57,0,0,0,.8-.21,1.6,1.6,0,0,0,.57-.61A1.92,1.92,0,0,0,112.38,107.13Z"/><path class="cls-6" d="M117.54,104.24a1.82,1.82,0,0,1,1.16.32,1.64,1.64,0,0,1,.56.86,4.46,4.46,0,0,1,.15,1.19v2.67a.61.61,0,0,1-.18.45.58.58,0,0,1-.45.19.55.55,0,0,1-.44-.19.61.61,0,0,1-.18-.45v-2.67a2,2,0,0,0-.09-.62.83.83,0,0,0-.32-.44,1.09,1.09,0,0,0-.65-.17,1.37,1.37,0,0,0-.7.17,1.16,1.16,0,0,0-.44.44,1.29,1.29,0,0,0-.15.62v2.67a.61.61,0,0,1-.18.45.55.55,0,0,1-.44.19.58.58,0,0,1-.45-.19.61.61,0,0,1-.18-.45V105a.65.65,0,0,1,.18-.46.61.61,0,0,1,.45-.18.57.57,0,0,1,.44.18.65.65,0,0,1,.18.46v.45l-.15,0a2.28,2.28,0,0,1,.27-.38,2.52,2.52,0,0,1,.41-.38,2.3,2.3,0,0,1,.54-.28A1.76,1.76,0,0,1,117.54,104.24Z"/><path class="cls-6" d="M121.19,103.66a.77.77,0,0,1-.49-.11.49.49,0,0,1-.15-.41V103a.47.47,0,0,1,.16-.42.91.91,0,0,1,.49-.11.79.79,0,0,1,.51.12.49.49,0,0,1,.15.41v.19a.47.47,0,0,1-.16.42A.93.93,0,0,1,121.19,103.66Zm.64,5.62a.61.61,0,0,1-.18.45.58.58,0,0,1-.45.19.56.56,0,0,1-.44-.19.61.61,0,0,1-.18-.45V105a.65.65,0,0,1,.18-.46.59.59,0,0,1,.44-.18.61.61,0,0,1,.45.18.65.65,0,0,1,.18.46Z"/><path class="cls-6" d="M127.5,104.24a.64.64,0,0,1,.45.17.63.63,0,0,1,.17.46v4.41a.6.6,0,0,1-.17.45.58.58,0,0,1-.45.19.55.55,0,0,1-.44-.19.61.61,0,0,1-.18-.45v-.51l.23.09a.59.59,0,0,1-.15.33,2,2,0,0,1-.39.38,2.55,2.55,0,0,1-.59.32,2,2,0,0,1-.73.13,2.35,2.35,0,0,1-1.3-.37,2.59,2.59,0,0,1-.92-1,3.48,3.48,0,0,1,0-3,2.51,2.51,0,0,1,.91-1,2.25,2.25,0,0,1,1.27-.37,2.43,2.43,0,0,1,.82.13,2.52,2.52,0,0,1,.65.35,2.08,2.08,0,0,1,.42.42.66.66,0,0,1,.15.36l-.37.13v-.76a.61.61,0,0,1,.18-.45A.57.57,0,0,1,127.5,104.24Zm-2.1,4.63a1.41,1.41,0,0,0,.8-.22,1.65,1.65,0,0,0,.54-.63,2.18,2.18,0,0,0,0-1.78,1.58,1.58,0,0,0-.54-.63,1.49,1.49,0,0,0-1.59,0,1.56,1.56,0,0,0-.53.63,2.18,2.18,0,0,0,0,1.78,1.63,1.63,0,0,0,.53.63A1.4,1.4,0,0,0,125.4,108.87Z"/></g></g></svg>