<svg width="49" height="41" viewBox="0 0 49 41" fill="none" xmlns="http://www.w3.org/2000/svg">
<circle cx="16.8306" cy="16.8516" r="16" fill="#7DD48B" fill-opacity="0.19"/>
<path d="M32.8267 40.9529C28.9412 40.9529 25.3732 39.5554 22.2218 36.7994C19.6565 34.5562 18.0126 31.9354 17.2611 30.5727C16.6825 29.5238 16.6873 28.2739 17.2743 27.2289C18.0385 25.8682 19.7041 23.2505 22.2725 21.0085C25.4329 18.25 28.9839 16.8516 32.8267 16.8516C36.6708 16.8516 40.2206 18.2513 43.3766 21.0117C45.9414 23.2544 47.6016 25.8726 48.3629 27.2335C48.946 28.2756 48.9511 29.5221 48.3761 30.5681C48.029 31.1999 47.4475 32.1805 46.6481 33.2646C46.239 33.8198 45.4572 33.9378 44.902 33.5288C44.3468 33.1194 44.2287 32.3376 44.6378 31.7824C45.3557 30.8089 45.8765 29.9307 46.1873 29.3652C46.3444 29.0791 46.3429 28.7381 46.1834 28.4529C44.6519 25.7157 40.285 19.349 32.8267 19.349C25.369 19.349 20.9889 25.7147 19.4519 28.4517C19.2914 28.7376 19.2899 29.0796 19.448 29.3662C20.9552 32.099 25.2766 38.455 32.8267 38.455C35.6065 38.455 38.2172 37.5861 40.586 35.8722C41.1449 35.468 41.9255 35.5934 42.3297 36.152C42.7341 36.7109 42.6087 37.4915 42.0501 37.8959C39.2463 39.9243 36.143 40.9529 32.8267 40.9529ZM40.185 28.9023C40.185 24.8397 36.8799 21.5347 32.8174 21.5347C28.7549 21.5347 25.45 24.8397 25.45 28.9023C25.45 32.9648 28.7551 36.2696 32.8174 36.2696C36.8799 36.2696 40.185 32.9648 40.185 28.9023ZM37.6876 28.9023C37.6876 31.5875 35.5029 33.7722 32.8174 33.7722C30.1321 33.7722 27.9474 31.5875 27.9474 28.9023C27.9474 26.217 30.1321 24.0323 32.8174 24.0323C35.5029 24.0323 37.6876 26.217 37.6876 28.9023ZM34.2181 29.2413C33.2604 29.1772 32.4968 28.3766 32.4747 27.4169C32.4744 27.4091 32.4742 27.4011 32.4742 27.3933C32.4683 26.8481 31.8648 26.53 31.414 26.8366C30.7034 27.3201 30.2553 28.1602 30.3275 29.0996C30.4212 30.3156 31.404 31.2987 32.62 31.3921C33.5594 31.4643 34.3996 31.0162 34.883 30.3059C35.1894 29.8553 34.8721 29.2513 34.3271 29.2455C34.291 29.2452 34.2547 29.2438 34.2181 29.2413Z" fill="#3FBA53"/>
</svg>
