<svg width="39" height="44" viewBox="0 0 39 44" fill="none" xmlns="http://www.w3.org/2000/svg">
<circle cx="16.6991" cy="16.459" r="16" fill="#FF5468" fill-opacity="0.12"/>
<path d="M37.814 34.3394L32.1959 28.744L36.4798 24.4717C37.5502 23.4014 38.1396 21.9785 38.1396 20.4649C38.1396 18.9513 37.5502 17.5284 36.4799 16.4581C35.4096 15.3878 33.9867 14.7984 32.4731 14.7984C30.9595 14.7984 29.5365 15.3878 28.4662 16.4581L24.204 20.7202L18.5817 15.1208C18.3734 14.9134 18.0909 14.7969 17.7972 14.7984C17.5032 14.7994 17.2218 14.9173 17.0149 15.1262L10.1387 22.0699C9.70966 22.5032 9.7121 23.2019 10.1442 23.6322L15.7294 29.1949L12.6299 32.2944C12.4951 32.4292 12.3975 32.5965 12.3464 32.7801L9.85901 41.7165C9.75176 42.102 9.86089 42.5153 10.1446 42.7975C10.3548 43.0066 10.6365 43.1195 10.9249 43.1195C11.0257 43.1195 11.1273 43.1056 11.2271 43.0773L20.1635 40.5389C20.5406 40.4318 20.8328 40.1331 20.9317 39.7539C21.0306 39.3746 20.9215 38.9713 20.6447 38.6936L15.0108 33.0426L28.1378 19.9156L33.0198 24.7976L22.9705 34.8194C22.762 35.0273 22.6451 35.3096 22.6454 35.604C22.6458 35.8984 22.7635 36.1805 22.9724 36.3879L29.431 42.7984C29.6382 43.0041 29.9184 43.1195 30.2103 43.1195C30.2118 43.1195 30.2135 43.1195 30.215 43.1195C30.5087 43.1182 30.7898 43.0003 30.9964 42.7916L37.8194 35.9017C38.2485 35.4684 38.2461 34.7696 37.814 34.3394ZM17.7503 38.9243L12.5193 40.4102L13.9843 35.1469L17.7503 38.9243ZM17.294 27.6304L12.4871 22.8429L17.8065 17.4714L19.5618 19.2195L17.3824 21.4346C16.954 21.8702 16.9596 22.5706 17.3951 22.9991C17.6106 23.2111 17.8908 23.3168 18.171 23.3168C18.4571 23.3168 18.7431 23.2065 18.9597 22.9864L21.1296 20.781L22.6396 22.2848L17.294 27.6304ZM29.7024 18.351L30.0308 18.0226C30.6832 17.3702 31.5505 17.0109 32.4731 17.0109C33.3957 17.0109 34.263 17.3702 34.9153 18.0226C35.5677 18.675 35.927 19.5423 35.927 20.4649C35.927 21.3875 35.5677 22.2548 34.9163 22.9061L34.5864 23.2352L29.7024 18.351ZM30.2035 40.4478L25.3203 35.6009L30.6292 30.3065L32.1217 31.7929L29.9977 33.9323C29.5672 34.3659 29.5698 35.0663 30.0034 35.4968C30.2191 35.711 30.501 35.818 30.7828 35.818C31.0673 35.818 31.3517 35.709 31.5679 35.4911L33.6895 33.3543L35.4711 35.1287L30.2035 40.4478Z" fill="#FF5468"/>
</svg>
