<svg width="46" height="45" viewBox="0 0 46 45" fill="none" xmlns="http://www.w3.org/2000/svg">
<circle cx="16.6241" cy="16.5264" r="16" fill="#994DF8" fill-opacity="0.12"/>
<path d="M38.3305 38.6474H14.7391C14.1332 38.6474 13.5799 38.8588 13.1306 39.2022V13.2294C13.1306 12.3349 13.8523 11.607 14.7391 11.607H15.2752V37.5658H16.3476V11.607H38.3305V27.8312H39.4029V10.5254H14.7391C13.2609 10.5254 12.0582 11.7384 12.0582 13.2294V41.3514C12.0582 42.8424 13.2609 44.0554 14.7391 44.0554H38.3305H38.8667H39.4029V42.9738H38.8667H38.3305C37.4437 42.9738 36.722 42.2459 36.722 41.3514C36.722 40.4569 37.4437 39.729 38.3305 39.729H38.8667H39.4029V39.1882V38.6474V36.4841H38.3305V38.6474ZM36.1998 42.9738H14.7391C13.8523 42.9738 13.1306 42.2459 13.1306 41.3514C13.1306 40.4569 13.8523 39.729 14.7391 39.729H36.1998C35.8593 40.1822 35.6497 40.7403 35.6497 41.3514C35.6497 41.9625 35.8593 42.5206 36.1998 42.9738Z" fill="#994DF8"/>
<path d="M16.3475 40.8105H15.2751V41.8922H16.3475V40.8105Z" fill="#994DF8"/>
<path d="M23.3178 40.8105H17.4199V41.8922H23.3178V40.8105Z" fill="#994DF8"/>
<path d="M37.2582 24.5862V12.6885H17.4199V24.5862H37.2582ZM18.4923 13.7701H36.1859V23.5046H18.4923V13.7701Z" fill="#994DF8"/>
<path d="M22.8725 17.8836L26.3832 19.1859L25.7462 22.9032L26.8032 23.0883L27.5923 18.4819L23.2421 16.8679L22.8725 17.8836Z" fill="#994DF8"/>
<path d="M27.8756 14.2489L27.0865 18.8553L31.4367 20.4693L31.8063 19.4536L28.2956 18.1513L28.9326 14.434L27.8756 14.2489Z" fill="#994DF8"/>
<path d="M42.0838 28.9131H21.5152L17.6548 32.1579L21.5152 35.4028H42.0838C43.8579 35.4028 45.3008 33.9475 45.3008 32.1579C45.3008 30.3684 43.8579 28.9131 42.0838 28.9131ZM21.7093 34.1584L19.3298 32.1579L21.7093 30.158V34.1584ZM37.2582 34.3212H22.7816V32.6987H36.1859V31.6171H22.7816V29.9947H37.2582V34.3212ZM39.4029 34.3212H38.3306V29.9947H39.4029V34.3212ZM42.0838 34.3212H40.4752V29.9947H42.0838C43.2665 29.9947 44.2284 30.9649 44.2284 32.1579C44.2284 33.3509 43.2665 34.3212 42.0838 34.3212Z" fill="#994DF8"/>
</svg>
