<svg width="49" height="37" viewBox="0 0 49 37" fill="none" xmlns="http://www.w3.org/2000/svg">
<circle cx="32.6991" cy="16.1577" r="16" fill="#3FBA53" fill-opacity="0.12"/>
<path d="M16.9696 19.2136H15.1997C15.722 18.2538 16.0189 17.1544 16.0189 15.9871C16.0189 12.2526 12.9807 9.21436 9.24625 9.21436C5.51175 9.21436 2.47352 12.2526 2.47352 15.9871C2.47352 17.1545 2.77046 18.2538 3.29269 19.2136H1.52278C0.918562 19.2136 0.428711 19.7035 0.428711 20.3077V35.7546C0.428711 36.3588 0.918562 36.8486 1.52278 36.8486H16.9696C17.5738 36.8486 18.0636 36.3588 18.0636 35.7546V20.3077C18.0636 19.7035 17.5738 19.2136 16.9696 19.2136ZM9.24625 11.4025C11.7741 11.4025 13.8308 13.4591 13.8308 15.9871C13.8308 18.515 11.7741 20.5717 9.24625 20.5717C6.71829 20.5717 4.66166 18.515 4.66166 15.9871C4.66166 13.4591 6.71822 11.4025 9.24625 11.4025ZM7.91586 27.8836C7.91586 27.1479 8.51439 26.5494 9.25004 26.5494C9.98576 26.5494 10.5843 27.1479 10.5843 27.8836C10.5843 28.6193 9.98576 29.2179 9.25004 29.2179C8.51439 29.2178 7.91586 28.6193 7.91586 27.8836ZM9.25004 31.4059C11.1054 31.4059 12.6486 32.7518 12.9114 34.5654H5.58907C5.8523 32.7747 7.41405 31.4059 9.25004 31.4059ZM15.8755 34.6605H15.1163V34.6414C15.1163 34.6064 15.1146 34.5714 15.1113 34.5366C14.9717 33.086 14.3003 31.7439 13.2205 30.7577C12.8762 30.4432 12.4994 30.1738 12.0986 29.952C12.5218 29.3707 12.7724 28.656 12.7724 27.8835C12.7724 25.9413 11.1923 24.3612 9.25004 24.3612C7.30785 24.3612 5.72772 25.9413 5.72772 27.8835C5.72772 28.6561 5.97841 29.371 6.40174 29.9523C5.98614 30.1823 5.596 30.4632 5.24123 30.793C4.15474 31.8033 3.49349 33.1719 3.37941 34.6467C3.37905 34.6513 3.37919 34.6559 3.3789 34.6604H2.61685V21.4018H5.18251C6.31524 22.254 7.72272 22.7598 9.24625 22.7598C10.7697 22.7598 12.1772 22.254 13.3099 21.4018H15.8756V34.6605H15.8755Z" fill="#3FBA53"/>
<path d="M36.6788 19.2136H34.909C35.4312 18.2538 35.7281 17.1544 35.7281 15.9871C35.7281 12.2526 32.6899 9.21436 28.9554 9.21436C25.221 9.21436 22.1828 12.2526 22.1828 15.9871C22.1828 17.1545 22.4797 18.2538 23.0019 19.2136H21.232C20.6278 19.2136 20.1379 19.7035 20.1379 20.3077V35.7546C20.1379 36.3588 20.6278 36.8486 21.232 36.8486H36.6788C37.283 36.8486 37.7729 36.3588 37.7729 35.7546V20.3077C37.7729 19.7035 37.283 19.2136 36.6788 19.2136ZM28.9553 11.4025C31.4833 11.4025 33.5399 13.4591 33.5399 15.9871C33.5399 18.515 31.4833 20.5717 28.9553 20.5717C26.4274 20.5717 24.3708 18.515 24.3708 15.9871C24.3708 13.4591 26.4274 11.4025 28.9553 11.4025ZM27.5928 27.8836C27.5928 27.1479 28.1914 26.5494 28.9271 26.5494C29.6628 26.5494 30.2613 27.1479 30.2613 27.8836C30.2613 28.6193 29.6628 29.2179 28.9271 29.2179C28.1914 29.2178 27.5928 28.6193 27.5928 27.8836ZM28.9271 31.4059C30.7824 31.4059 32.3256 32.7518 32.5884 34.5654H25.266C25.5293 32.7747 27.091 31.4059 28.9271 31.4059ZM35.5847 34.6605H34.7932V34.6414C34.7932 34.6064 34.7915 34.5714 34.7882 34.5366C34.6486 33.086 33.9772 31.7439 32.8975 30.7577C32.5532 30.4432 32.1763 30.1738 31.7755 29.952C32.1988 29.3707 32.4494 28.656 32.4494 27.8835C32.4494 25.9413 30.8693 24.3612 28.9271 24.3612C26.9848 24.3612 25.4047 25.9413 25.4047 27.8835C25.4047 28.6562 25.6554 29.371 26.0788 29.9523C25.6632 30.1823 25.2731 30.4632 24.9183 30.793C23.8317 31.8033 23.1705 33.1719 23.0564 34.6467C23.056 34.6513 23.0562 34.6559 23.0559 34.6604H22.3261V21.4018H24.8917C26.0245 22.254 27.4319 22.7598 28.9554 22.7598C30.4789 22.7598 31.8864 22.254 33.0191 21.4018H35.5847V34.6605Z" fill="#3FBA53"/>
<path d="M7.23161 17.9104C7.44524 18.124 7.72525 18.2308 8.00519 18.2308C8.28512 18.2308 8.56521 18.1239 8.77877 17.9104L9.24623 17.4429L9.71369 17.9104C9.92732 18.124 10.2073 18.2308 10.4873 18.2308C10.7672 18.2308 11.0473 18.1239 11.2608 17.9104C11.6881 17.4831 11.6881 16.7904 11.2608 16.3631L10.7934 15.8957L11.2608 15.4282C11.6881 15.001 11.6881 14.3083 11.2608 13.881C10.8336 13.4537 10.1409 13.4538 9.71361 13.881L9.24615 14.3485L8.7787 13.881C8.35157 13.4537 7.65881 13.4537 7.23146 13.881C6.80419 14.3083 6.80419 15.001 7.23146 15.4282L7.69892 15.8957L7.23146 16.3631C6.80427 16.7904 6.80427 17.4831 7.23161 17.9104Z" fill="#3FBA53"/>
<path d="M27.394 18.136C27.6076 18.3496 27.8876 18.4564 28.1676 18.4564C28.4475 18.4564 28.7276 18.3496 28.9411 18.1359L31.6019 15.4751C32.0292 15.0478 32.0292 14.3551 31.6019 13.9278C31.1747 13.5006 30.4819 13.5006 30.0547 13.9278L28.1675 15.8151L27.7503 15.3981C27.3231 14.9708 26.6304 14.9708 26.2031 15.3981C25.7758 15.8254 25.7759 16.5181 26.2031 16.9454L27.394 18.136Z" fill="#3FBA53"/>
</svg>
