<svg width="46" height="51" viewBox="0 0 46 51" fill="none" xmlns="http://www.w3.org/2000/svg">
<path d="M33.4151 44.3539C33.4151 43.9664 33.1038 43.6523 32.7196 43.6523H29.4863C29.1021 43.6523 28.7908 43.9664 28.7908 44.3539C28.7908 44.7414 29.1021 45.0554 29.4863 45.0554H32.7196C33.1038 45.0554 33.4151 44.7414 33.4151 44.3539Z" fill="#FF5468"/>
<path d="M37.2127 22.0651C37.1977 18.1708 35.0888 14.6622 31.6918 12.8422L31.6573 12.4114L34.1277 9.506C34.4002 9.18535 34.4857 8.75423 34.3563 8.35257C34.2268 7.951 33.9064 7.65299 33.4994 7.55543L29.8076 6.66942L29.7689 6.60553C29.5689 6.27487 29.141 6.17039 28.8129 6.37206C28.485 6.57382 28.3814 7.00551 28.5814 7.33636L28.6636 7.47218C28.8278 7.74344 29.0979 7.94128 29.4046 8.01498L32.8582 8.84374L30.5471 11.5618C30.3419 11.8032 30.2388 12.1234 30.264 12.4405L30.5498 16.0097L27.2729 14.6325C26.9816 14.51 26.6478 14.5101 26.3567 14.6325L23.0798 16.0097L23.3655 12.4408C23.391 12.1238 23.2879 11.8034 23.0825 11.5618L20.7713 8.84384L24.2252 8.01508C24.532 7.94137 24.8021 7.74344 24.9661 7.47199L26.8148 4.41503L27.1324 4.94016C27.3325 5.2711 27.7607 5.37559 28.0884 5.17373C28.4163 4.97206 28.52 4.54037 28.3199 4.20952L27.8316 3.40191C27.6136 3.04141 27.2335 2.82617 26.8147 2.82617C26.396 2.82617 26.016 3.04141 25.798 3.40191L23.8219 6.66952L20.1304 7.55533C19.7231 7.65299 19.4027 7.95091 19.2733 8.35247C19.1439 8.75413 19.2292 9.18526 19.5018 9.50609L21.9722 12.4113L21.9377 12.8416C18.7345 14.5602 16.634 17.8568 16.433 21.5172C16.4117 21.9041 16.7054 22.2351 17.0889 22.2564C17.1021 22.2572 17.115 22.2576 17.128 22.2576C17.4945 22.2576 17.8014 21.9684 17.8218 21.5948C17.9789 18.7365 19.4736 16.1339 21.8002 14.5582L21.6667 16.2264C21.633 16.6473 21.815 17.0468 22.1536 17.295C22.4922 17.5431 22.9249 17.5946 23.3118 17.4321L26.8146 15.9601L30.3176 17.4322C30.7049 17.5948 31.1375 17.5428 31.4756 17.295C31.8143 17.0468 31.9962 16.6473 31.9625 16.2265L31.8288 14.5573C34.3048 16.2254 35.8096 19.0105 35.8213 22.0707C35.8388 26.6477 36.3357 29.5212 37.4195 31.2124C36.276 31.5357 35.125 31.8075 33.9787 32.0269C34.4371 31.0201 34.6947 29.9018 34.6947 28.7234V23.2748C34.6947 22.8195 34.3567 22.4288 33.9085 22.3663C32.086 22.1124 30.7228 21.5414 29.7413 20.6207C29.4156 20.3151 28.9224 20.2901 28.5687 20.561C26.4119 22.2136 23.592 22.8204 19.9484 22.4163C19.6908 22.3878 19.4333 22.4713 19.2409 22.6451C19.0489 22.8186 18.9387 23.0673 18.9387 23.3273V28.7234C18.9387 29.9022 19.1965 31.0209 19.6551 32.028C18.5075 31.8084 17.3547 31.5362 16.2094 31.2124C17.0973 29.828 17.5898 27.6598 17.7477 24.4794C17.767 24.0924 17.4715 23.7631 17.0879 23.7437C16.7006 23.7217 16.3776 24.0224 16.3585 24.4092C16.1968 27.6657 15.6726 29.768 14.7562 30.8361C14.5437 31.0837 14.4712 31.4189 14.5622 31.7328C14.6528 32.0451 14.8915 32.2868 15.2005 32.3791C16.9979 32.9171 18.82 33.3338 20.6201 33.6212C20.7148 33.7427 20.8126 33.8616 20.9139 33.9774L19.8104 34.4954C18.1748 35.2631 17.1181 36.9348 17.1181 38.7543V49.3349C17.1181 50.0984 17.7341 50.7196 18.4911 50.7196H28.8766C29.2608 50.7196 29.5722 50.4056 29.5722 50.0181C29.5722 49.6305 29.2608 49.3165 28.8766 49.3165H18.5094V38.7542C18.5094 37.4782 19.2506 36.3058 20.3977 35.7673L22.0087 35.0111C22.6132 35.4825 23.287 35.8672 24.0122 36.147L23.5338 38.1497C23.3667 38.8493 23.6632 39.5719 24.2713 39.9479L25.9595 40.9919C26.224 41.1554 26.5204 41.2371 26.8168 41.2371C27.1133 41.2371 27.41 41.1553 27.6744 40.9918L29.3625 39.9479C29.9706 39.5719 30.267 38.8493 30.0999 38.1496L29.6217 36.147C30.347 35.8673 31.0206 35.4825 31.6253 35.0111L33.2364 35.7673C34.3834 36.3058 35.1245 37.4782 35.1245 38.7542V49.3165H31.6574C31.2731 49.3165 30.9618 49.6305 30.9618 50.0181C30.9618 50.4056 31.2731 50.7196 31.6574 50.7196H35.1427C35.8997 50.7196 36.5156 50.0984 36.5156 49.3349V38.7542C36.5156 36.9347 35.4587 35.263 33.8233 34.4953L32.7197 33.9773C32.8214 33.8612 32.9194 33.7419 33.0143 33.6201C34.813 33.3325 36.633 32.9164 38.4281 32.3791C38.7374 32.2867 38.9761 32.045 39.0667 31.7327C39.1578 31.4189 39.0852 31.0837 38.8728 30.8361C37.4083 29.1291 37.2239 25.0128 37.2127 22.0651ZM20.3302 23.8638C23.9234 24.1768 26.7994 23.5362 29.0932 21.9122C30.1723 22.8108 31.5567 23.3961 33.3039 23.6923V28.7233C33.3039 32.331 30.3939 35.2662 26.817 35.2662C23.2402 35.2662 20.3302 32.331 20.3302 28.7233V23.8638ZM28.7477 38.4782C28.7731 38.5847 28.7281 38.6945 28.6356 38.7518L26.9476 39.7956C26.8671 39.8452 26.7671 39.8453 26.6866 39.7957L24.9985 38.7518C24.9061 38.6946 24.861 38.5847 24.8863 38.4783L25.3518 36.5294C25.8269 36.62 26.3162 36.6694 26.8171 36.6694C27.3179 36.6694 27.8073 36.6201 28.2824 36.5295L28.7477 38.4782Z" fill="#FF5468"/>
<path d="M24.1479 27.5041C24.5322 27.5041 24.8435 27.1901 24.8435 26.8025V26.7201C24.8435 26.3326 24.5322 26.0186 24.1479 26.0186C23.7637 26.0186 23.4524 26.3326 23.4524 26.7201V26.8025C23.4524 27.1901 23.7637 27.5041 24.1479 27.5041Z" fill="#FF5468"/>
<path d="M29.4863 27.5041C29.8705 27.5041 30.1819 27.1901 30.1819 26.8025V26.7201C30.1819 26.3326 29.8705 26.0186 29.4863 26.0186C29.1021 26.0186 28.7908 26.3326 28.7908 26.7201V26.8025C28.7908 27.1901 29.1022 27.5041 29.4863 27.5041Z" fill="#FF5468"/>
<path d="M25.1511 31.2656C25.696 31.5944 26.2566 31.7587 26.8171 31.7587C27.3777 31.7587 27.9382 31.5943 28.4831 31.2656C28.8129 31.0666 28.9202 30.636 28.723 30.3034C28.5256 29.9707 28.0984 29.8629 27.7691 30.0614C27.1195 30.4534 26.5146 30.4533 25.8652 30.0614C25.5357 29.8627 25.1087 29.9709 24.9113 30.3034C24.7141 30.636 24.8214 31.0666 25.1511 31.2656Z" fill="#FF5468"/>
<path d="M15.8371 17.3359C16.1171 17.1308 16.2676 16.8006 16.2397 16.4527L16.0714 14.3509L17.4323 12.7504C17.6577 12.4855 17.7284 12.1292 17.6215 11.7973C17.5146 11.4653 17.2497 11.2188 16.9131 11.1382L14.8792 10.6501L13.7905 8.84986C13.6105 8.55194 13.2964 8.37412 12.9504 8.37402C12.9504 8.37402 12.9503 8.37402 12.9502 8.37402C12.6043 8.37402 12.2902 8.55184 12.1098 8.84986L11.0213 10.6501L8.9875 11.1381C8.65078 11.2188 8.38601 11.4652 8.27899 11.7972C8.17216 12.1293 8.24273 12.4855 8.46799 12.7503L9.829 14.3509L9.66078 16.4528C9.63296 16.8008 9.78338 17.1309 10.0633 17.3359C10.3406 17.5391 10.6979 17.5847 11.0204 17.4491L12.9503 16.6381L14.8801 17.4491C15.1993 17.5833 15.5571 17.5412 15.8371 17.3359ZM13.3288 15.2772C13.2085 15.2267 13.0795 15.2015 12.9504 15.2015C12.8212 15.2015 12.6921 15.2267 12.5717 15.2773L11.1011 15.8953L11.2293 14.294C11.2506 14.0316 11.1652 13.7666 10.9955 13.5672L9.95818 12.3474L11.5085 11.9754C11.7618 11.9145 11.985 11.751 12.1208 11.5265L12.9504 10.1546L13.7801 11.5266C13.9157 11.7509 14.1389 11.9144 14.3925 11.9754L15.9424 12.3474L14.9052 13.5673C14.7356 13.7668 14.6504 14.0313 14.6713 14.2936L14.7996 15.8953L13.3288 15.2772Z" fill="#FF5468"/>
<path d="M45.3504 11.7963C45.2435 11.4643 44.9787 11.2179 44.642 11.1372L42.6081 10.6491L41.5194 8.84888C41.3394 8.55096 41.0253 8.37314 40.6793 8.37305C40.6793 8.37305 40.6792 8.37305 40.6791 8.37305C40.3332 8.37305 40.0191 8.55087 39.8387 8.84888L38.7503 10.6492L36.7165 11.1372C36.3798 11.218 36.115 11.4643 36.008 11.7963C35.9012 12.1284 35.9717 12.4846 36.197 12.7494L37.558 14.3499L37.3898 16.4519C37.362 16.7999 37.5124 17.13 37.7924 17.335C38.0696 17.5382 38.4269 17.5838 38.7494 17.4482L40.6793 16.6372L42.6091 17.4482C42.9284 17.5824 43.2862 17.5402 43.5662 17.335C43.8461 17.1299 43.9967 16.7997 43.9688 16.4519L43.8005 14.35L45.1614 12.7495C45.3866 12.4847 45.4574 12.1283 45.3504 11.7963ZM40.332 9.57952L40.3321 9.5798C40.3321 9.5797 40.332 9.57961 40.332 9.57952C40.3319 9.57952 40.3319 9.57952 40.332 9.57952ZM42.6341 13.5664C42.4645 13.7659 42.3793 14.0304 42.4002 14.2927L42.5285 15.8944L41.0578 15.2763C40.9375 15.2258 40.8085 15.2006 40.6794 15.2006C40.5502 15.2006 40.4211 15.2258 40.3007 15.2764L38.8301 15.8944L38.9583 14.2931C38.9795 14.031 38.8943 13.7661 38.7245 13.5663L37.6873 12.3465L39.2375 11.9745C39.4908 11.9136 39.7141 11.7501 39.8498 11.5256L40.6794 10.1538L41.5091 11.5257C41.6448 11.75 41.8679 11.9135 42.1215 11.9745L43.6714 12.3465L42.6341 13.5664Z" fill="#FF5468"/>
<circle cx="16.6326" cy="16.3271" r="16" fill="#FF5468" fill-opacity="0.11"/>
</svg>
