<svg width="47" height="42" viewBox="0 0 47 42" fill="none" xmlns="http://www.w3.org/2000/svg">
<circle cx="30.6991" cy="16.4893" r="16" fill="#FF5468" fill-opacity="0.12"/>
<path d="M30.7426 7.76416H3.63703C1.86791 7.76416 0.428711 9.20336 0.428711 10.9725V31.2082C0.428711 32.9773 1.86791 34.4165 3.63703 34.4165H11.6735L10.9151 39.2459H9.42444C8.88227 39.2459 8.44273 39.6855 8.44273 40.2276C8.44273 40.7698 8.88227 41.2094 9.42444 41.2094C12.7137 41.2168 21.6815 41.2152 24.9551 41.2094C25.4973 41.2094 25.9369 40.7698 25.9369 40.2276C25.9369 39.6855 25.4973 39.2459 24.9551 39.2459H23.33L22.6493 34.4165H30.7426C32.5117 34.4165 33.9509 32.9773 33.9509 31.2082V10.9725C33.9509 9.20336 32.5117 7.76416 30.7426 7.76416ZM31.9874 10.9725V20.1087H29.5892C29.3571 18.9189 28.6184 17.9086 27.6073 17.3117C27.9714 16.7889 28.1856 16.1543 28.1856 15.4704C28.1856 13.689 26.7364 12.2398 24.9551 12.2398C23.1738 12.2398 21.7246 13.6891 21.7246 15.4704C21.7246 16.1544 21.9388 16.7889 22.3029 17.3117C21.2919 17.9086 20.5531 18.9188 20.321 20.1087H18.1715V9.72759H30.7426C31.429 9.72759 31.9874 10.286 31.9874 10.9725ZM25.0296 16.7336H24.8807C24.2167 16.6948 23.688 16.1439 23.688 15.4703C23.688 14.7716 24.2565 14.2032 24.9551 14.2032C25.6538 14.2032 26.2222 14.7717 26.2222 15.4703C26.2222 16.1439 25.6936 16.6948 25.0296 16.7336ZM24.419 18.6971C24.7212 18.6978 25.1172 18.6988 25.4913 18.6971C26.4289 18.6971 27.2322 19.2834 27.5538 20.1086H22.3565C22.6781 19.2834 23.4813 18.6971 24.419 18.6971ZM3.63703 9.72759H16.2081V20.1086H14.0168C13.7846 18.9188 13.0459 17.9086 12.0348 17.3116C12.3989 16.7888 12.6132 16.1542 12.6132 15.4703C12.6132 13.689 11.164 12.2397 9.38269 12.2397C7.6014 12.2397 6.15212 13.689 6.15212 15.4703C6.15212 16.1543 6.3664 16.7888 6.73048 17.3116C5.71944 17.9086 4.98067 18.9188 4.74853 20.1086H2.39214V10.9725C2.39214 10.286 2.95055 9.72759 3.63703 9.72759ZM9.45704 16.7336H9.30821C8.64418 16.6948 8.11549 16.1439 8.11549 15.4703C8.11549 14.7716 8.68397 14.2032 9.38262 14.2032C10.0813 14.2032 10.6497 14.7717 10.6497 15.4703C10.6497 16.1439 10.121 16.6948 9.45704 16.7336ZM8.84641 18.6971C9.14865 18.6978 9.54461 18.6988 9.91871 18.6971C10.8563 18.6971 11.6596 19.2834 11.9812 20.1086H6.78395C7.10556 19.2834 7.9088 18.6971 8.84641 18.6971ZM2.39214 31.2082V22.072H16.2081V32.453H14.0168C13.7846 31.2632 13.0459 30.253 12.0348 29.6561C12.3989 29.1333 12.6132 28.4987 12.6132 27.8147C12.6132 26.0333 11.164 24.5842 9.38269 24.5842C7.6014 24.5842 6.15212 26.0334 6.15212 27.8147C6.15212 28.4987 6.3664 29.1332 6.73048 29.6561C5.71938 30.253 4.98067 31.2632 4.74853 32.453H3.63703C2.95055 32.4531 2.39214 31.8946 2.39214 31.2082ZM9.30814 29.0781C8.64411 29.0392 8.11542 28.4883 8.11542 27.8147C8.11542 27.116 8.6839 26.5476 9.38256 26.5476C10.0812 26.5476 10.6496 27.116 10.6496 27.8147C10.6496 28.4883 10.1209 29.0392 9.45697 29.0781H9.30814ZM8.84641 31.0415C9.14865 31.0422 9.54461 31.0432 9.91871 31.0415C10.8563 31.0415 11.6597 31.6279 11.9812 32.453H6.78395C7.1055 31.6279 7.9088 31.0415 8.84641 31.0415ZM12.9026 39.2459L13.6609 34.4165H20.6664L21.3471 39.2459H12.9026ZM22.3565 32.4531C22.678 31.6279 23.4814 31.0416 24.419 31.0416C24.7212 31.0423 25.1172 31.0433 25.4913 31.0416C26.4289 31.0416 27.2323 31.6279 27.5538 32.4531H22.3565ZM25.0296 29.0781H24.8807C24.2167 29.0392 23.688 28.4883 23.688 27.8147C23.688 27.116 24.2565 26.5476 24.9551 26.5476C25.6538 26.5476 26.2222 27.116 26.2222 27.8147C26.2222 28.4883 25.6936 29.0393 25.0296 29.0781ZM30.7426 32.4531H29.5893C29.3572 31.2633 28.6184 30.2531 27.6073 29.6561C27.9714 29.1333 28.1857 28.4987 28.1857 27.8147C28.1857 26.0334 26.7365 24.5842 24.9552 24.5842C23.1739 24.5842 21.7246 26.0335 21.7246 27.8147C21.7246 28.4987 21.9389 29.1333 22.303 29.6561C21.2919 30.2531 20.5532 31.2633 20.321 32.4531H18.1716V22.072H31.9876V31.2082C31.9874 31.8946 31.429 32.4531 30.7426 32.4531Z" fill="#FF5468"/>
</svg>
