<svg width="40" height="48" viewBox="0 0 40 48" fill="none" xmlns="http://www.w3.org/2000/svg">
<circle cx="23.6432" cy="16.9893" r="16" fill="#994DF8" fill-opacity="0.12"/>
<path d="M13.5644 8.21484C6.36572 8.21484 0.509277 14.0713 0.509277 21.27C0.509277 28.4683 6.36572 34.3252 13.5644 34.3252C20.7628 34.3252 26.6196 28.4683 26.6196 21.27C26.6196 14.0713 20.7628 8.21484 13.5644 8.21484ZM13.5644 31.7569C7.78209 31.7569 3.0775 27.0524 3.0775 21.27C3.0775 15.4877 7.78209 10.7831 13.5644 10.7831C19.3472 10.7831 24.0514 15.4877 24.0514 21.27C24.0514 27.0524 19.3472 31.7569 13.5644 31.7569Z" fill="#994DF8"/>
<path d="M22.68 45.5292L22.0379 30.291L19.4723 30.3989L20.0322 43.6809L14.7276 39.1103C14.0645 38.4909 13.0642 38.49 12.4008 39.1103L7.0965 43.6804L7.65639 30.3989L5.0903 30.291L4.44823 45.5292C4.44777 45.5472 4.44739 45.5652 4.44739 45.5831C4.44739 46.2632 4.84244 46.8844 5.45412 47.1652C6.06877 47.4486 6.77501 47.3471 7.29724 46.8981L13.5645 41.4983L19.8336 46.9001C20.1589 47.1788 20.5566 47.3231 20.9589 47.3231C21.2012 47.3231 21.4447 47.2713 21.675 47.1651C22.2862 46.8843 22.6813 46.2632 22.6813 45.5831C22.6813 45.5651 22.6809 45.5472 22.68 45.5292Z" fill="#994DF8"/>
<path d="M19.267 17.3655C18.7653 16.8638 17.9529 16.8638 17.4513 17.3655L11.8585 22.9583L9.25647 20.3246C8.75784 19.8199 7.94497 19.8148 7.44031 20.3134C6.93564 20.8121 6.93053 21.6249 7.42915 22.1296L10.939 25.6823C11.1796 25.9259 11.5066 26.0633 11.8486 26.0642C11.8499 26.0642 11.8512 26.0642 11.8524 26.0642C12.1927 26.0642 12.5197 25.9289 12.7607 25.6875L19.2668 19.1814C19.7687 18.68 19.7687 17.8667 19.267 17.3655Z" fill="#994DF8"/>
</svg>
