<svg width="38" height="43" viewBox="0 0 38 43" fill="none" xmlns="http://www.w3.org/2000/svg">
<circle cx="16.7185" cy="16.3779" r="16" fill="#FC5AFF" fill-opacity="0.12"/>
<path d="M35.1528 13.2148H15.0001C13.8541 13.2148 12.9216 14.0172 12.9216 15.0035V41.0893C12.9216 42.0756 13.854 42.8779 15.0001 42.8779H31.4687C31.6607 42.8779 31.8447 42.8123 31.9804 42.6956L37.0194 38.3594C37.1551 38.2426 37.2313 38.0842 37.2313 37.9191V15.0035C37.2313 14.0172 36.2989 13.2148 35.1528 13.2148ZM32.1924 40.7519V39.085C32.1924 38.7854 32.4756 38.5417 32.8237 38.5417H34.7608L32.1924 40.7519ZM15.0001 14.4602H35.1528C35.5009 14.4602 35.7841 14.7039 35.7841 15.0035V16.9279H14.3688V15.0035C14.3688 14.7039 14.652 14.4602 15.0001 14.4602ZM14.3688 41.0893V18.1733H35.7841V37.2964H32.8237C31.6776 37.2964 30.7452 38.0987 30.7452 39.085V41.6326H15.0001C14.652 41.6326 14.3688 41.3889 14.3688 41.0893Z" fill="#FC5AFF"/>
<path d="M17.3477 22.7844H26.8233C27.2229 22.7844 27.5469 22.5056 27.5469 22.1617C27.5469 21.8178 27.2229 21.5391 26.8233 21.5391H17.3477C16.9481 21.5391 16.6241 21.8178 16.6241 22.1617C16.6241 22.5056 16.9481 22.7844 17.3477 22.7844Z" fill="#FC5AFF"/>
<path d="M29.7177 22.7844H32.1642C32.5638 22.7844 32.8877 22.5056 32.8877 22.1617C32.8877 21.8178 32.5638 21.5391 32.1642 21.5391H29.7177C29.3181 21.5391 28.9941 21.8178 28.9941 22.1617C28.9941 22.5056 29.3181 22.7844 29.7177 22.7844Z" fill="#FC5AFF"/>
<path d="M17.3477 27.7278H26.8233C27.2229 27.7278 27.5469 27.449 27.5469 27.1051C27.5469 26.7612 27.2229 26.4824 26.8233 26.4824H17.3477C16.9481 26.4824 16.6241 26.7612 16.6241 27.1051C16.6241 27.449 16.9481 27.7278 17.3477 27.7278Z" fill="#FC5AFF"/>
<path d="M29.7177 27.7278H32.1642C32.5638 27.7278 32.8877 27.449 32.8877 27.1051C32.8877 26.7612 32.5638 26.4824 32.1642 26.4824H29.7177C29.3181 26.4824 28.9941 26.7612 28.9941 27.1051C28.9941 27.449 29.3181 27.7278 29.7177 27.7278Z" fill="#FC5AFF"/>
<path d="M27.5469 32.0504C27.5469 31.7065 27.2229 31.4277 26.8233 31.4277H17.3477C16.9481 31.4277 16.6241 31.7065 16.6241 32.0504C16.6241 32.3943 16.9481 32.6731 17.3477 32.6731H26.8233C27.2229 32.6731 27.5469 32.3943 27.5469 32.0504Z" fill="#FC5AFF"/>
<path d="M29.7177 32.6731H32.1642C32.5638 32.6731 32.8877 32.3943 32.8877 32.0504C32.8877 31.7065 32.5638 31.4277 32.1642 31.4277H29.7177C29.3181 31.4277 28.9941 31.7065 28.9941 32.0504C28.9941 32.3943 29.3181 32.6731 29.7177 32.6731Z" fill="#FC5AFF"/>
<path d="M32.1641 36.2307C32.5637 36.2307 32.8877 35.9519 32.8877 35.608C32.8877 35.2641 32.5637 34.9854 32.1641 34.9854H25.2728C24.8732 34.9854 24.5492 35.2641 24.5492 35.608C24.5492 35.9519 24.8732 36.2307 25.2728 36.2307H32.1641Z" fill="#FC5AFF"/>
</svg>
