<svg width="47" height="42" viewBox="0 0 47 42" fill="none" xmlns="http://www.w3.org/2000/svg">
<path d="M31.4083 30.6859C31.3763 30.1503 31.1435 29.6383 30.7528 29.2443L27.934 26.4006C28.3894 26.2552 28.8003 26.0051 29.135 25.6676L29.2067 25.5952C30.4489 24.3422 30.3493 22.2031 28.9846 20.8265C28.3352 20.1716 27.4952 19.7816 26.6194 19.7282C25.7092 19.6728 24.8706 19.9834 24.2568 20.6026L24.1851 20.6749C23.8503 21.0125 23.6023 21.4272 23.4582 21.8866L20.639 19.043C19.8083 18.205 18.5067 18.1544 17.7374 18.9301L15.1824 21.5074C14.8697 21.8228 14.7397 22.2812 14.8345 22.7335C14.9377 23.2254 15.2778 23.6276 15.7444 23.8094C16.0389 23.9242 16.306 24.1011 16.5381 24.3352L16.619 24.4169C17.0116 24.8128 17.245 25.3162 17.2759 25.8342C17.3049 26.318 17.1505 26.7564 16.8412 27.0684C16.5318 27.3804 16.0971 27.5365 15.6175 27.5068C15.104 27.4756 14.6049 27.2402 14.2124 26.8442L14.1314 26.7626C13.8994 26.5285 13.724 26.2591 13.6102 25.9621C13.4299 25.4914 13.0311 25.1483 12.5434 25.0443C12.0949 24.9486 11.6405 25.0798 11.3277 25.3951L8.77555 27.9695C8.00648 28.7453 8.05658 30.0581 8.88739 30.8961L11.7066 33.7398C11.2511 33.8852 10.84 34.1353 10.5052 34.4729L10.4335 34.5453C9.19129 35.7983 9.29096 37.9374 10.6557 39.314C11.3802 40.0447 12.3175 40.4159 13.2236 40.4158C14.0243 40.4158 14.8007 40.1258 15.3834 39.538L15.4552 39.4657C15.7899 39.128 16.0379 38.7134 16.182 38.2538L19.0012 41.0975C19.3919 41.4915 19.8995 41.7263 20.4305 41.7587C20.4711 41.7612 20.5117 41.7624 20.5522 41.7624C21.0647 41.7624 21.5515 41.5647 21.9029 41.2103L24.3331 38.759C24.5219 39.2221 24.7998 39.6404 25.1596 40.0035L25.2406 40.0852C26.6053 41.4616 28.7261 41.5621 29.9684 40.3092C31.2106 39.0562 31.111 36.917 29.7463 35.5405L29.6653 35.4588C29.3054 35.0958 28.8907 34.8156 28.4315 34.6252L30.8647 32.171C31.2438 31.7885 31.442 31.2473 31.4083 30.6859ZM29.8152 31.1124L27.2601 33.6896C26.9476 34.0049 26.8175 34.4633 26.9123 34.9156C27.0154 35.4076 27.3555 35.8098 27.8222 35.9917C28.1167 36.1065 28.3838 36.2834 28.6159 36.5175L28.6968 36.5992C29.4828 37.392 29.5825 38.5813 28.9189 39.2506C28.2555 39.9199 27.0761 39.8194 26.2903 39.0266L26.2093 38.9449C25.9772 38.7108 25.8018 38.4414 25.6879 38.1444C25.5077 37.6737 25.1089 37.3307 24.6211 37.2267C24.1726 37.131 23.7182 37.2622 23.4056 37.5775L20.8534 40.1519C20.7507 40.2555 20.6155 40.2706 20.52 40.2644C20.3539 40.2543 20.1829 40.1721 20.0509 40.0391L18.9199 38.8983L21.3828 36.4142C21.6726 36.1219 21.6726 35.6479 21.3828 35.3555C21.093 35.0632 20.6231 35.0632 20.3332 35.3555L17.8703 37.8397L17.1019 37.0645C16.8208 36.7811 16.4507 36.6277 16.0776 36.6277C15.9486 36.6277 15.8192 36.6461 15.693 36.6838C15.2368 36.8201 14.9051 37.1823 14.8059 37.6528C14.7435 37.9482 14.6088 38.202 14.4055 38.4071L14.3337 38.4794C13.6703 39.1487 12.4909 39.0481 11.705 38.2553C10.919 37.4625 10.8194 36.2732 11.4828 35.6039L11.5546 35.5315C11.7579 35.3264 12.0095 35.1906 12.3024 35.1277C12.769 35.0276 13.1281 34.693 13.2632 34.2327C13.4085 33.7377 13.2638 33.1933 12.8857 32.8119L9.93691 29.8374C9.80489 29.7043 9.72347 29.5318 9.71338 29.3642C9.70759 29.268 9.72236 29.1316 9.825 29.0279L12.2552 26.5766C12.444 27.0397 12.7219 27.458 13.0818 27.8211L13.1627 27.9028C14.5275 29.2793 16.6483 29.3797 17.8906 28.1268C19.1328 26.8738 19.0332 24.7347 17.6684 23.3581L17.5875 23.2764C17.2275 22.9134 16.8128 22.6332 16.3537 22.4428L18.7868 19.9886C18.9741 19.7998 19.3416 19.8515 19.5893 20.1014L22.5383 23.0758C22.9164 23.4572 23.4561 23.6031 23.947 23.4565C24.4032 23.3203 24.7349 22.958 24.8342 22.4875C24.8965 22.1921 25.0312 21.9383 25.2346 21.7332L25.3063 21.6609C25.6157 21.3489 26.0501 21.1932 26.53 21.2224C27.0435 21.2536 27.5426 21.489 27.9351 21.885C28.7211 22.6778 28.8208 23.8673 28.1572 24.5364L28.0855 24.6088C27.8822 24.8139 27.6306 24.9497 27.3378 25.0126C26.8713 25.1127 26.5121 25.4472 26.3769 25.9075C26.2316 26.4025 26.3763 26.947 26.7545 27.3285L29.7034 30.3029C29.8353 30.436 29.9168 30.6085 29.9268 30.7761C29.9326 30.8723 29.9179 31.0087 29.8152 31.1124Z" fill="#FFB913"/>
<path d="M23.2866 33.4351C23.1486 33.2959 22.9571 33.2158 22.7619 33.2158C22.5667 33.2158 22.3753 33.2959 22.2372 33.4351C22.0992 33.5744 22.0198 33.7675 22.0198 33.9644C22.0198 34.1612 22.0992 34.3544 22.2372 34.4936C22.3753 34.6328 22.566 34.7129 22.7619 34.7129C22.9571 34.7129 23.1486 34.6328 23.2866 34.4936C23.4246 34.3544 23.504 34.1612 23.504 33.9644C23.504 33.7675 23.4246 33.5744 23.2866 33.4351Z" fill="#FFB913"/>
<path d="M39.0462 12.943C38.9082 12.8037 38.7167 12.7236 38.5215 12.7236C38.3264 12.7236 38.1349 12.8037 37.9969 12.943C37.8588 13.0822 37.7794 13.2753 37.7794 13.4722C37.7794 13.669 37.8588 13.8622 37.9969 14.0014C38.1349 14.1406 38.3264 14.2207 38.5215 14.2207C38.7167 14.2207 38.9082 14.1406 39.0462 14.0014C39.1843 13.8622 39.2637 13.669 39.2637 13.4722C39.2637 13.2753 39.1843 13.0822 39.0462 12.943Z" fill="#FFB913"/>
<path d="M44.6038 20.6405C44.2006 20.2338 43.7128 19.9227 43.1884 19.737L45.6763 17.2276C46.0555 16.8453 46.2536 16.3039 46.22 15.7425C46.1879 15.2069 45.9551 14.6949 45.5645 14.3009L42.8009 11.513C43.1906 11.3629 43.5448 11.1326 43.8371 10.8378L43.9089 10.7654C45.151 9.5124 45.0514 7.37328 43.6867 5.9967C42.322 4.62027 40.2012 4.51974 38.9589 5.77266L38.8871 5.84504C38.5948 6.13997 38.3664 6.4974 38.2176 6.89054L35.4506 4.09965C34.6198 3.26165 33.3182 3.21105 32.549 3.98684L30.0611 6.49628C29.877 5.96735 29.5686 5.47533 29.1654 5.06865L29.0845 4.98698C27.7198 3.61047 25.5989 3.51002 24.3566 4.76294C23.1145 6.01593 23.2141 8.15513 24.5787 9.53149L24.6598 9.61331C25.0629 10.0199 25.5507 10.331 26.0752 10.5167L23.5872 13.0262C22.8181 13.802 22.8682 15.1148 23.6993 15.953L26.6508 18.9278C27.0291 19.3092 27.569 19.4551 28.0596 19.3086C28.5158 19.1723 28.8475 18.81 28.9468 18.3395C29.0091 18.0441 29.1438 17.7904 29.3472 17.5853L29.4189 17.5129C29.7283 17.2009 30.1636 17.045 30.6426 17.0744C31.1561 17.1057 31.6551 17.341 32.0477 17.737C32.4403 18.133 32.6735 18.6363 32.7046 19.1543C32.7336 19.6382 32.5791 20.0766 32.2698 20.3886L32.1981 20.4609C31.9948 20.666 31.7432 20.8019 31.4504 20.8647C30.9839 20.9648 30.6247 21.2993 30.4896 21.7595C30.3443 22.2545 30.4889 22.7988 30.8669 23.1803L33.8131 26.1543C34.2495 26.5945 34.8158 26.8174 35.3667 26.8174C35.8645 26.8174 36.3496 26.6354 36.7147 26.2671L39.2026 23.7576C39.3867 24.2865 39.6951 24.7786 40.0982 25.1852L40.1793 25.2669C41.5441 26.6434 43.6648 26.7439 44.9071 25.491C46.1493 24.238 46.0497 22.0988 44.685 20.7223L44.6038 20.6405ZM43.8573 24.4322C43.1938 25.1014 42.0145 25.0009 41.2286 24.2081L41.1476 24.1265C40.8891 23.8657 40.6953 23.5505 40.5873 23.2149C40.4303 22.7275 40.0257 22.3503 39.5313 22.2305C39.0698 22.1188 38.6012 22.2466 38.278 22.5727L35.665 25.2083C35.5622 25.3119 35.4268 25.3268 35.3316 25.3208C35.1655 25.3107 34.9945 25.2285 34.8627 25.0956L32.046 22.2524C32.5016 22.107 32.9127 21.8569 33.2474 21.5193L33.3191 21.4469C33.933 20.8277 34.2408 19.9813 34.1859 19.0639C34.133 18.1804 33.7464 17.3331 33.0971 16.6783C32.4478 16.0234 31.6078 15.6333 30.7319 15.5799C29.8219 15.5248 28.9832 15.835 28.3693 16.4541L28.2976 16.5265C27.9628 16.8643 27.7148 17.2789 27.5707 17.7383L24.7487 14.8941C24.6167 14.761 24.5353 14.5885 24.5252 14.4209C24.5194 14.3247 24.5342 14.1882 24.6368 14.0846L27.2498 11.449C27.5731 11.123 27.6999 10.6503 27.5891 10.1847C27.4702 9.68606 27.0963 9.27796 26.6131 9.11971C26.2805 9.01072 25.968 8.81528 25.7095 8.55463L25.6284 8.47282C24.8424 7.68003 24.7428 6.49066 25.4063 5.82139C26.0697 5.15211 27.2491 5.25256 28.035 6.04543L28.116 6.12709C28.3745 6.38781 28.5683 6.70303 28.6764 7.0386C28.8333 7.52605 29.2379 7.90325 29.7323 8.02294C30.1939 8.1347 30.6624 8.00677 30.9857 7.68078L33.5986 5.04522C33.7859 4.85651 34.1533 4.90808 34.4011 5.15802L37.2846 8.06651C37.6501 8.43517 38.1748 8.58555 38.6537 8.4586C39.0982 8.34092 39.4372 8.0046 39.5604 7.55899C39.6306 7.30508 39.7572 7.08456 39.9367 6.90356L40.0084 6.83118C40.6718 6.1619 41.8512 6.26236 42.6371 7.05522C43.4231 7.848 43.5228 9.03737 42.8593 9.70665L42.7875 9.77903C42.6081 9.96011 42.3894 10.0878 42.1378 10.1586C41.696 10.283 41.3625 10.6248 41.2459 11.0731C41.1202 11.5562 41.2691 12.0854 41.6346 12.4541L44.5149 15.3593C44.6469 15.4924 44.7283 15.6649 44.7384 15.8325C44.7442 15.9287 44.7294 16.0652 44.6267 16.1688L43.4358 17.3701L40.9763 14.8893C40.6865 14.597 40.2166 14.597 39.9268 14.8893C39.637 15.1816 39.6369 15.6556 39.9268 15.9479L42.3862 18.4287L42.0137 18.8044C41.6905 19.1305 41.5637 19.6031 41.6745 20.0686C41.7932 20.5673 42.1672 20.9754 42.6504 21.1338C42.9831 21.2427 43.2955 21.4382 43.554 21.699L43.635 21.7807C44.4212 22.5735 44.5208 23.763 43.8573 24.4322Z" fill="#FFB913"/>
<circle cx="16.6326" cy="16.7236" r="16" fill="#FACD62" fill-opacity="0.22"/>
</svg>
