<svg width="46" height="44" viewBox="0 0 46 44" fill="none" xmlns="http://www.w3.org/2000/svg">
<path d="M15.0232 14.0854L14.5306 17.5456C14.4056 18.4235 15.316 19.0853 16.1125 18.695L19.251 17.1572L22.3895 18.695C23.1856 19.0852 24.0965 18.4238 23.9715 17.5456L23.4787 14.0854L25.9111 11.5757C26.5282 10.939 26.1806 9.86835 25.3069 9.71591L21.8639 9.11528L20.2287 6.02629C19.814 5.24269 18.6883 5.24239 18.2733 6.02629L16.6381 9.11528L13.1951 9.71591C12.3217 9.86828 11.9735 10.9388 12.5909 11.5757L15.0232 14.0854ZM17.5523 11.2018C17.8892 11.143 18.1799 10.9318 18.3399 10.6295L19.251 8.90848L20.1621 10.6295C20.3221 10.9318 20.6128 11.143 20.9497 11.2018L22.8681 11.5365L21.5128 12.9348C21.2748 13.1803 21.1638 13.5221 21.212 13.8606L21.4865 15.7886L19.7379 14.9317C19.4313 14.7815 19.072 14.781 18.7643 14.9317L17.0157 15.7886L17.2902 13.8606C17.3384 13.5221 17.2274 13.1803 16.9894 12.9348L15.6341 11.5365L17.5523 11.2018Z" fill="#FFB913"/>
<path d="M37.215 17.6342L34.7108 17.1974L33.5215 14.9506C33.1067 14.1671 31.981 14.1666 31.566 14.9506L30.3768 17.1973L27.8726 17.6341C26.9992 17.7865 26.651 18.857 27.2684 19.4939L29.0375 21.3193L28.6791 23.836C28.5536 24.7174 29.4678 25.3743 30.2611 24.9854L32.5438 23.8669L34.8266 24.9854C35.6229 25.3755 36.5335 24.7141 36.4085 23.836L36.0502 21.3193L37.8193 19.4939C38.4363 18.8573 38.0887 17.7866 37.215 17.6342ZM34.0841 20.1687C33.8461 20.4142 33.7351 20.7561 33.7833 21.0946L33.9234 22.0789C33.1418 21.7243 32.9549 21.5285 32.5438 21.5285C32.133 21.5285 31.9468 21.7238 31.1641 22.0789L31.3042 21.0946C31.3525 20.7561 31.2414 20.4142 31.0034 20.1687L30.3114 19.4547L31.2909 19.2839C31.6278 19.2251 31.9185 19.0138 32.0785 18.7116L32.5437 17.8329L33.0089 18.7117C33.1689 19.0139 33.4596 19.2251 33.7965 19.2839L34.776 19.4548L34.0841 20.1687Z" fill="#FFB913"/>
<path d="M9.82277 23.836L9.46442 21.3194L11.2336 19.4939C11.8506 18.8573 11.503 17.7866 10.6293 17.6342L8.1251 17.1973L6.93586 14.9507C6.52109 14.1671 5.39542 14.1666 4.98043 14.9507L3.79112 17.1974L1.2869 17.6342C0.413466 17.7866 0.0652876 18.8571 0.682658 19.494L2.4518 21.3194L2.09344 23.8361C1.96851 24.7138 2.87904 25.3759 3.6754 24.9855L5.95814 23.867L8.24089 24.9855C9.03172 25.3731 9.94845 24.7188 9.82277 23.836ZM7.49844 20.1687C7.26044 20.4142 7.14937 20.7561 7.1976 21.0946L7.33773 22.0789L6.4449 21.6414C6.13788 21.491 5.77841 21.491 5.47139 21.6414L4.57848 22.0789L4.71861 21.0946C4.76684 20.7561 4.65577 20.4142 4.41778 20.1687L3.72577 19.4547L4.70526 19.2838C5.04216 19.2251 5.33288 19.0138 5.49285 18.7116L5.95807 17.8328L6.42322 18.7115C6.58318 19.0138 6.87398 19.2251 7.21088 19.2838L8.19037 19.4546L7.49844 20.1687Z" fill="#FFB913"/>
<path d="M23.8343 34.6463C25.0994 33.4369 25.8886 31.7336 25.8886 29.8494C25.8886 29.3473 25.8886 25.3753 25.8886 24.8739C25.8886 22.7373 24.1504 20.999 22.0138 20.999H16.4882C14.3516 20.999 12.6134 22.7373 12.6134 24.8739V29.8494C12.6134 31.7336 13.4026 33.4368 14.6677 34.6462C11.5538 35.65 9.29456 38.5752 9.29456 42.0186V42.0923C9.29456 42.7033 9.78987 43.1986 10.4008 43.1986C11.0118 43.1986 11.5071 42.7033 11.5071 42.0923V42.0186C11.5071 40.0016 12.5926 38.2341 14.2097 37.2676C14.7726 39.068 16.2763 40.4559 18.1422 40.855V42.0923C18.1422 42.7033 18.6376 43.1986 19.2485 43.1986C19.8595 43.1986 20.3548 42.7033 20.3548 42.0923V40.8544C22.2208 40.4541 23.7241 39.0651 24.2859 37.2639C25.9064 38.2296 26.9948 39.999 26.9948 42.0185V42.0923C26.9948 42.7032 27.4901 43.1985 28.1011 43.1985C28.712 43.1985 29.2073 42.7032 29.2073 42.0923V42.0185C29.2074 38.5752 26.9481 35.6501 23.8343 34.6463ZM14.826 29.0175C15.6397 29.5647 16.5946 29.8583 17.5949 29.8582C17.6744 29.8582 17.6975 29.857 18.1659 29.8492C18.7709 29.8389 19.2553 29.3445 19.2533 28.7394L19.2497 27.6368H23.6761V29.8494C23.6761 32.2895 21.691 34.2746 19.251 34.2746C16.811 34.2746 14.826 32.2894 14.826 29.8494V29.0175ZM16.4882 23.2117H22.0139C22.9305 23.2117 23.6762 23.9574 23.6762 24.874V25.4243H18.1398C17.8458 25.4243 17.5638 25.5414 17.3562 25.7496C16.8646 26.2429 17.0903 26.8098 17.037 27.5896C15.801 27.3373 14.826 26.2386 14.826 24.874C14.826 23.9574 15.5717 23.2117 16.4882 23.2117ZM19.2482 38.7598C19.2479 38.7598 19.2476 38.7598 19.2473 38.7598C17.8498 38.7598 16.6687 37.8191 16.3017 36.5377C16.9678 36.4486 17.0095 36.5037 21.4635 36.4872C21.7109 36.4872 21.9541 36.5052 22.193 36.5368C21.8266 37.8182 20.6457 38.7593 19.2482 38.7598Z" fill="#FFB913"/>
<circle cx="29.9424" cy="16.9106" r="16" fill="#FACD62" fill-opacity="0.2"/>
</svg>
