<svg width="51" height="41" viewBox="0 0 51 41" fill="none" xmlns="http://www.w3.org/2000/svg">
<circle cx="34.7194" cy="16.459" r="16" fill="#FACD62" fill-opacity="0.2"/>
<path d="M36.7316 34.7971C36.5145 35.5558 35.7234 35.9951 34.9648 35.7779C34.2058 35.5611 33.7668 34.77 33.9837 34.0111C34.2276 33.1587 34.2081 32.2607 33.9278 31.4147L30.7101 21.7088C30.1109 19.9004 28.4277 18.6854 26.5225 18.6854H10.9182C9.01259 18.6854 7.32976 19.9004 6.73021 21.7088L3.51277 31.4147C3.14098 32.5368 3.22863 33.7426 3.76007 34.8097C4.29068 35.8759 5.19727 36.6667 6.31236 37.0365C7.42411 37.4049 8.61707 37.3114 9.6716 36.773C10.7281 36.2335 11.5152 35.3166 11.8884 34.1911L12.1 33.5528C12.6962 31.7544 14.3698 30.5458 16.2645 30.5458H21.1759C23.0708 30.5458 24.7445 31.7544 25.3407 33.5528L25.5522 34.1911C26.1515 35.9993 27.8731 37.2623 29.7388 37.262C30.0969 37.262 30.4558 37.2177 30.8053 37.13C31.5709 36.9385 32.3469 37.4038 32.5387 38.1692C32.7304 38.9348 32.2651 39.7108 31.4995 39.9025C30.9231 40.0468 30.3308 40.12 29.7391 40.12C28.224 40.12 26.7642 39.6443 25.5173 38.7442C24.256 37.8334 23.3299 36.5701 22.8394 35.0905L22.6279 34.4521C22.4199 33.8249 21.8366 33.4037 21.1762 33.4037H16.2647C15.6041 33.4037 15.0207 33.8249 14.8127 34.4518L14.6012 35.0905C13.9902 36.9335 12.7012 38.4349 10.9712 39.3183C9.2303 40.2073 7.25663 40.3603 5.41303 39.749C3.56999 39.138 2.07418 37.8362 1.20164 36.0833C0.331621 34.3357 0.188989 32.3584 0.800266 30.5154L4.0177 20.8095C5.00552 17.8293 7.77859 15.8271 10.9182 15.8271H26.5225C29.662 15.8271 32.4354 17.8293 33.4232 20.8095L36.6406 30.5154C37.1026 31.9093 37.1341 33.3898 36.7316 34.7971ZM25.5079 20.9716C24.7188 20.9716 24.079 21.6114 24.079 22.4007C24.079 23.1898 24.7188 23.8296 25.5079 23.8296C26.2972 23.8296 26.937 23.1898 26.937 22.4007C26.937 21.6114 26.2972 20.9716 25.5079 20.9716ZM25.5079 29.5457C26.2972 29.5457 26.937 28.906 26.937 28.1166C26.937 27.3275 26.2972 26.6878 25.5079 26.6878C24.7188 26.6878 24.079 27.3275 24.079 28.1166C24.079 28.9057 24.7188 29.5457 25.5079 29.5457ZM22.6499 23.8296C21.8608 23.8296 21.2211 24.4693 21.2211 25.2587C21.2211 26.048 21.8608 26.6878 22.6499 26.6878C23.4393 26.6878 24.079 26.048 24.079 25.2587C24.079 24.4693 23.4393 23.8296 22.6499 23.8296ZM28.3661 26.6878C29.1551 26.6878 29.7949 26.048 29.7949 25.2587C29.7949 24.4693 29.1551 23.8296 28.3661 23.8296C27.5767 23.8296 26.937 24.4693 26.937 25.2587C26.937 26.0478 27.5767 26.6878 28.3661 26.6878ZM11.9325 29.5457C12.7218 29.5457 13.3616 28.906 13.3616 28.1166V26.6878H14.7904C15.5798 26.6878 16.2195 26.048 16.2195 25.2587C16.2195 24.4693 15.5798 23.8296 14.7904 23.8296H13.3616V22.4007C13.3616 21.6114 12.7218 20.9716 11.9325 20.9716C11.1434 20.9716 10.5037 21.6114 10.5037 22.4007V23.8296H9.07455C8.28548 23.8296 7.64545 24.4693 7.64545 25.2587C7.64545 26.048 8.28548 26.6878 9.07455 26.6878H10.5037V28.1166C10.5037 28.9057 11.1434 29.5457 11.9325 29.5457Z" fill="#FFB913"/>
</svg>
