<svg width="49" height="51" viewBox="0 0 49 51" fill="none" xmlns="http://www.w3.org/2000/svg">
<circle cx="16.6786" cy="16.8252" r="16" fill="#7DD48B" fill-opacity="0.19"/>
<path d="M46.485 15.2344H15.9656C14.7617 15.2344 13.7856 16.2188 13.7856 17.4332V42.3531C13.7856 43.5674 14.7617 44.5519 15.9656 44.5519H33.4053V43.086H15.9656C15.5643 43.086 15.2389 42.7579 15.2389 42.3531V17.4332C15.2389 17.0284 15.5643 16.7002 15.9656 16.7002H46.485C46.8863 16.7002 47.2117 17.0284 47.2117 17.4332V42.3531C47.2117 42.7579 46.8863 43.086 46.485 43.086H45.0317V44.5519H46.485C47.689 44.5519 48.665 43.5674 48.665 42.3531V17.4332C48.665 16.2188 47.689 15.2344 46.485 15.2344Z" fill="#3FBA53"/>
<path d="M44.305 22.5632C42.6997 22.5632 41.3984 21.2505 41.3984 19.6314C41.3984 19.2266 41.073 18.8984 40.6717 18.8984H21.7788C21.3775 18.8984 21.0521 19.2266 21.0521 19.6314C21.0521 21.2505 19.7508 22.5632 18.1455 22.5632C17.7442 22.5632 17.4188 22.8913 17.4188 23.2961V36.489C17.4188 36.8938 17.7442 37.222 18.1455 37.222C19.7508 37.222 21.0521 38.5346 21.0521 40.1537C21.0521 40.5585 21.3775 40.8867 21.7788 40.8867H31.2253V39.4207H22.4451C22.1326 37.5766 20.7005 36.1321 18.8722 35.8169V23.9682C20.7005 23.653 22.1326 22.2085 22.4451 20.3644H40.0054C40.318 22.2085 41.7501 23.653 43.5784 23.9682V29.8926H45.0317V23.2961C45.0317 22.8913 44.7063 22.5632 44.305 22.5632Z" fill="#3FBA53"/>
<path d="M39.2185 30.626C35.6066 30.626 32.6786 33.5793 32.6786 37.2224C32.6786 40.8655 35.6066 43.8188 39.2185 43.8188C42.8285 43.8144 45.7539 40.8637 45.7583 37.2224C45.7583 33.5793 42.8303 30.626 39.2185 30.626ZM39.2185 42.353C36.4092 42.353 34.1319 40.056 34.1319 37.2224C34.1319 34.3889 36.4092 32.0918 39.2185 32.0918C42.0264 32.0951 44.3018 34.3902 44.305 37.2224C44.305 40.0559 42.0277 42.353 39.2185 42.353Z" fill="#3FBA53"/>
<path d="M42.1251 41.6201V48.1572L39.6727 46.1783C39.4072 45.9639 39.0299 45.9639 38.7644 46.1783L36.3119 48.1572V41.6201H34.8586V49.6824C34.8586 49.849 34.9148 50.0107 35.0181 50.1408C35.2689 50.4568 35.7262 50.5079 36.0394 50.2549L39.2186 47.6896L42.3977 50.2549C42.5266 50.3588 42.6868 50.4154 42.8519 50.4154C43.2532 50.4154 43.5785 50.0872 43.5785 49.6824V41.6201H42.1251Z" fill="#3FBA53"/>
<path d="M38.4918 22.5645H23.9588C23.5575 22.5645 23.2321 22.8926 23.2321 23.2974V26.2291C23.2321 26.6339 23.5575 26.9621 23.9588 26.9621H38.4918C38.8931 26.9621 39.2185 26.6339 39.2185 26.2291V23.2973C39.2185 22.8926 38.8931 22.5645 38.4918 22.5645ZM37.7651 25.4962H24.6854V24.0303H37.7651V25.4962Z" fill="#3FBA53"/>
<path d="M23.9587 29.1592H22.5054V30.625H23.9587V29.1592Z" fill="#3FBA53"/>
<path d="M26.8654 29.1592H25.4121V30.625H26.8654V29.1592Z" fill="#3FBA53"/>
<path d="M31.2253 32.0918H22.5054V33.5576H31.2253V32.0918Z" fill="#3FBA53"/>
<path d="M39.2185 33.5566C37.2119 33.5566 35.5853 35.1974 35.5853 37.2213C35.5853 39.2452 37.2119 40.886 39.2185 40.886C41.2241 40.8836 42.8494 39.2442 42.8517 37.2213C42.8517 35.1974 41.2251 33.5566 39.2185 33.5566ZM39.2185 39.4201C38.0146 39.4201 37.0385 38.4357 37.0385 37.2213C37.0385 36.0069 38.0146 35.0225 39.2185 35.0225C40.4225 35.0225 41.3985 36.0069 41.3985 37.2213C41.3985 38.4357 40.4225 39.4201 39.2185 39.4201Z" fill="#3FBA53"/>
<path d="M18.8722 39.4209H17.4189V40.8868H18.8722V39.4209Z" fill="#3FBA53"/>
<path d="M45.0317 18.8984H43.5784V20.3643H45.0317V18.8984Z" fill="#3FBA53"/>
<path d="M18.8722 18.8984H17.4189V20.3643H18.8722V18.8984Z" fill="#3FBA53"/>
</svg>
