<svg width="42" height="42" viewBox="0 0 42 42" fill="none" xmlns="http://www.w3.org/2000/svg">
<path d="M15.8292 23.8193C12.5832 23.8193 9.94238 26.4601 9.94238 29.7061C9.94238 31.4559 10.7101 33.0295 11.926 34.1087V40.3908C11.926 40.8202 12.1413 41.221 12.4994 41.4579C12.8577 41.6951 13.3106 41.7365 13.7058 41.5687L15.7649 40.6945L17.8241 41.5697C17.9848 41.6379 18.155 41.6716 18.3245 41.6716C18.5721 41.6716 18.8182 41.5999 19.0307 41.4593C19.3889 41.2223 19.6044 40.8214 19.6044 40.3919V34.2192C20.8942 33.1384 21.716 31.5166 21.716 29.7061C21.716 26.4601 19.0752 23.8193 15.8292 23.8193ZM17.0449 38.4575L16.2657 38.1264C15.9461 37.9906 15.5849 37.9904 15.265 38.1262L14.4854 38.4572V35.438C14.9172 35.5392 15.367 35.5929 15.8292 35.5929C16.2458 35.5929 16.6525 35.5491 17.0449 35.4663V38.4575ZM15.8292 33.0334C13.9945 33.0334 12.5019 31.5408 12.5019 29.7061C12.5019 27.8714 13.9945 26.3788 15.8292 26.3788C17.6639 26.3788 19.1565 27.8714 19.1565 29.7061C19.1565 31.5408 17.6639 33.0334 15.8292 33.0334Z" fill="#5A75FF"/>
<path d="M31.5059 28.3697H27.0268V13.0226C27.0268 10.7553 25.1822 8.91064 22.9149 8.91064H5.14336C2.32077 8.91064 0.0244141 11.207 0.0244141 14.0296V16.6459C0.0244141 17.3527 0.597352 17.9257 1.30415 17.9257H4.50349V32.5218C4.50349 34.598 5.7424 36.4542 7.65983 37.2506C7.82037 37.3173 7.98654 37.3488 8.15022 37.3488C8.65194 37.3488 9.12807 37.0518 9.33257 36.5597C9.60368 35.907 9.29437 35.158 8.64164 34.8869C7.68267 34.4886 7.06296 33.5602 7.06296 32.5218V17.9257H19.9883C20.6951 17.9257 21.268 17.3527 21.268 16.6459V13.0226C21.268 12.1665 21.9645 11.4701 22.8205 11.4701H22.9149C23.7709 11.4701 24.4674 12.1665 24.4674 13.0226V33.5288C24.4674 34.078 24.5764 34.6019 24.7726 35.0813H23.4436C22.7368 35.0813 22.1638 35.6542 22.1638 36.361C22.1638 37.0678 22.7368 37.6408 23.4436 37.6408H28.6905C28.6962 37.6408 28.7018 37.64 28.7075 37.6399C30.9593 37.6215 32.7856 35.7848 32.7856 33.5287V29.6495C32.7856 28.9427 32.2127 28.3697 31.5059 28.3697ZM18.7086 13.0226V15.3662H2.58389V14.0296C2.58389 12.6183 3.73206 11.4701 5.14336 11.4701H19.0128C18.8167 11.9493 18.7086 12.4736 18.7086 13.0226ZM30.2262 33.5287C30.2262 34.3848 29.5297 35.0812 28.6737 35.0812H28.5793C27.7233 35.0812 27.0268 34.3848 27.0268 33.5287V30.9292H30.2262V33.5287Z" fill="#5A75FF"/>
<circle cx="25.9424" cy="16.9106" r="16" fill="#5A75FF" fill-opacity="0.14"/>
</svg>
